<svg width="256" height="288" viewBox="0 0 256 288" fill="none" xmlns="http://www.w3.org/2000/svg">
<path d="M123.101 287.676C178.453 287.676 223.324 278.702 223.324 267.633C223.324 256.563 178.453 247.59 123.101 247.59C67.7488 247.59 22.8772 256.563 22.8772 267.633C22.8772 278.702 67.7488 287.676 123.101 287.676Z" fill="#92E3A9"/>
<path opacity="0.5" d="M123.101 287.676C178.453 287.676 223.324 278.702 223.324 267.633C223.324 256.563 178.453 247.59 123.101 247.59C67.7488 247.59 22.8772 256.563 22.8772 267.633C22.8772 278.702 67.7488 287.676 123.101 287.676Z" fill="white"/>
<path d="M229.499 1.00024H157.235C154.766 1.00024 152.765 3.0014 152.765 5.46994V85.1314C152.765 87.5999 154.766 89.6011 157.235 89.6011H229.499C231.967 89.6011 233.969 87.5999 233.969 85.1314V5.46994C233.969 3.0014 231.967 1.00024 229.499 1.00024Z" fill="white" stroke="#263238" stroke-width="0.422259" stroke-linecap="round" stroke-linejoin="round"/>
<path d="M157.235 1.00006H229.491C230.671 1.00006 231.802 1.46863 232.636 2.30269C233.47 3.13675 233.939 4.26797 233.939 5.44751V10.0877H152.765V5.46976C152.762 4.88196 152.876 4.29941 153.1 3.75579C153.323 3.21218 153.652 2.71827 154.068 2.30263C154.484 1.88699 154.977 1.55787 155.521 1.33429C156.065 1.11071 156.647 0.997109 157.235 1.00006Z" fill="#263238" stroke="#263238" stroke-width="0.422259" stroke-linecap="round" stroke-linejoin="round"/>
<path d="M157.191 48.3062H189.865" stroke="#263238" stroke-width="0.422259" stroke-linecap="round" stroke-linejoin="round"/>
<path d="M157.191 52.524H189.865" stroke="#263238" stroke-width="0.422259" stroke-linecap="round" stroke-linejoin="round"/>
<path d="M157.191 56.7415H189.865" stroke="#263238" stroke-width="0.422259" stroke-linecap="round" stroke-linejoin="round"/>
<path d="M157.191 60.9592H189.865" stroke="#263238" stroke-width="0.422259" stroke-linecap="round" stroke-linejoin="round"/>
<path d="M157.191 65.1769H189.865" stroke="#263238" stroke-width="0.422259" stroke-linecap="round" stroke-linejoin="round"/>
<path d="M157.191 69.4021H189.865" stroke="#263238" stroke-width="0.422259" stroke-linecap="round" stroke-linejoin="round"/>
<path d="M157.191 73.6196H189.865" stroke="#263238" stroke-width="0.422259" stroke-linecap="round" stroke-linejoin="round"/>
<path d="M157.191 77.8375H189.865" stroke="#263238" stroke-width="0.422259" stroke-linecap="round" stroke-linejoin="round"/>
<path d="M157.191 82.0551H189.865" stroke="#263238" stroke-width="0.422259" stroke-linecap="round" stroke-linejoin="round"/>
<path d="M195.609 48.3062H228.283" stroke="#263238" stroke-width="0.422259" stroke-linecap="round" stroke-linejoin="round"/>
<path d="M195.609 52.524H228.283" stroke="#263238" stroke-width="0.422259" stroke-linecap="round" stroke-linejoin="round"/>
<path d="M195.609 56.7415H228.283" stroke="#263238" stroke-width="0.422259" stroke-linecap="round" stroke-linejoin="round"/>
<path d="M195.609 60.9592H228.283" stroke="#263238" stroke-width="0.422259" stroke-linecap="round" stroke-linejoin="round"/>
<path d="M195.609 65.1769H228.283" stroke="#263238" stroke-width="0.422259" stroke-linecap="round" stroke-linejoin="round"/>
<path d="M195.609 69.4021H228.283" stroke="#263238" stroke-width="0.422259" stroke-linecap="round" stroke-linejoin="round"/>
<path d="M195.609 73.6196H228.283" stroke="#263238" stroke-width="0.422259" stroke-linecap="round" stroke-linejoin="round"/>
<path d="M195.609 77.8375H228.283" stroke="#263238" stroke-width="0.422259" stroke-linecap="round" stroke-linejoin="round"/>
<path d="M195.609 82.0551H228.283" stroke="#263238" stroke-width="0.422259" stroke-linecap="round" stroke-linejoin="round"/>
<path d="M179.043 21.5994C179.204 21.0985 179.289 20.5763 179.295 20.0502C179.295 18.1304 177.345 18.0192 175.433 18.0192H174.951V17.567H183.297V18.0192C181.125 18.0192 180.332 19.4053 179.658 21.4585L175.21 34.7342C174.877 35.7201 174.595 36.4539 173.55 36.4539H173.461L169.547 23.7712L165.908 34.7639C165.567 35.7497 165.285 36.4836 164.24 36.4836H164.158L158.466 18.0192H156.464V17.567H163.788V18.0192H161.705L165.93 32.5624H166.1L169.288 22.904L167.805 18.0562H165.804V17.567H173.135V18.0192H171.052L175.277 32.5624H175.44L179.043 21.5994Z" fill="#92E3A9"/>
<path d="M228.513 13.364H194.89V43.755H228.513V13.364Z" fill="#92E3A9" stroke="#263238" stroke-width="0.844518" stroke-linecap="round" stroke-linejoin="round"/>
<path d="M228.513 26.0691C227.385 26.1333 226.265 26.2895 225.163 26.5361C220.055 27.6479 218.721 34.9788 212.947 34.9788C207.832 34.9788 207.395 28.0927 200.064 27.2032C198.28 26.9223 196.454 27.2458 194.875 28.1223V43.7552H228.513V26.0691Z" fill="#263238" stroke="#263238" stroke-width="0.422259" stroke-linecap="round" stroke-linejoin="round"/>
<path d="M206.061 20.317C206.062 21.0653 205.842 21.7972 205.427 22.42C205.012 23.0428 204.422 23.5285 203.731 23.8156C203.039 24.1026 202.279 24.1781 201.545 24.0325C200.811 23.8868 200.136 23.5267 199.607 22.9975C199.078 22.4684 198.718 21.7941 198.572 21.0601C198.427 20.3261 198.502 19.5654 198.789 18.8743C199.076 18.1832 199.562 17.5929 200.185 17.1781C200.808 16.7633 201.539 16.5426 202.288 16.5441C203.288 16.5441 204.248 16.9416 204.956 17.6491C205.663 18.3567 206.061 19.3164 206.061 20.317Z" fill="white" stroke="#263238" stroke-width="0.422259" stroke-linecap="round" stroke-linejoin="round"/>
<path d="M230.047 3.66125H155.204V6.54469H230.047V3.66125Z" fill="white" stroke="#263238" stroke-width="0.422259" stroke-linecap="round" stroke-linejoin="round"/>
<path d="M225.377 107.28H192.978C191.704 107.28 190.482 107.786 189.581 108.686C188.681 109.587 188.174 110.809 188.174 112.083V129.413C188.174 130.687 188.681 131.909 189.581 132.809C190.482 133.71 191.704 134.216 192.978 134.216H193.971C192.963 136.44 191.006 139.85 187.915 141.873C187.915 141.873 194.49 141.414 201.339 134.216H225.363C226.637 134.216 227.858 133.71 228.759 132.809C229.66 131.909 230.166 130.687 230.166 129.413V112.083C230.166 110.811 229.662 109.592 228.764 108.692C227.867 107.791 226.649 107.283 225.377 107.28Z" fill="#263238" stroke="#263238" stroke-width="0.422259" stroke-linecap="round" stroke-linejoin="round"/>
<path d="M203.607 120.133C203.609 119.643 203.465 119.163 203.193 118.755C202.922 118.346 202.535 118.028 202.082 117.84C201.63 117.651 201.131 117.602 200.65 117.697C200.169 117.792 199.728 118.028 199.381 118.375C199.034 118.722 198.798 119.163 198.703 119.644C198.608 120.125 198.657 120.624 198.846 121.076C199.034 121.529 199.352 121.916 199.761 122.187C200.169 122.459 200.649 122.603 201.139 122.601C201.793 122.599 202.42 122.339 202.882 121.876C203.345 121.414 203.605 120.787 203.607 120.133Z" fill="#92E3A9" stroke="#263238" stroke-width="0.422259" stroke-linecap="round" stroke-linejoin="round"/>
<path d="M212.006 120.133C212.006 119.645 211.861 119.167 211.59 118.761C211.318 118.356 210.933 118.039 210.482 117.852C210.031 117.665 209.535 117.617 209.056 117.712C208.577 117.807 208.137 118.042 207.792 118.387C207.447 118.733 207.212 119.172 207.116 119.651C207.021 120.13 207.07 120.626 207.257 121.077C207.444 121.528 207.76 121.914 208.166 122.185C208.572 122.456 209.049 122.601 209.537 122.601C210.191 122.599 210.818 122.338 211.28 121.876C211.743 121.414 212.004 120.787 212.006 120.133Z" fill="#92E3A9" stroke="#263238" stroke-width="0.422259" stroke-linecap="round" stroke-linejoin="round"/>
<path d="M220.411 120.133C220.413 119.643 220.269 119.163 219.998 118.755C219.726 118.347 219.34 118.029 218.888 117.84C218.436 117.652 217.938 117.602 217.457 117.696C216.976 117.791 216.534 118.026 216.187 118.372C215.841 118.718 215.604 119.159 215.508 119.64C215.412 120.12 215.46 120.618 215.647 121.071C215.835 121.524 216.152 121.911 216.559 122.183C216.967 122.456 217.445 122.601 217.935 122.601C218.59 122.599 219.218 122.339 219.681 121.876C220.145 121.414 220.407 120.787 220.411 120.133Z" fill="#92E3A9" stroke="#263238" stroke-width="0.422259" stroke-linecap="round" stroke-linejoin="round"/>
<path d="M47.2049 11.511H100.574C101.844 11.511 103.062 12.0155 103.96 12.9135C104.858 13.8115 105.363 15.0294 105.363 16.2994V53.2949H42.4387V16.2994C42.4387 15.0333 42.9401 13.8187 43.8333 12.9213C44.7265 12.024 45.9388 11.5169 47.2049 11.511Z" fill="#92E3A9" stroke="#263238" stroke-width="0.422259" stroke-linecap="round" stroke-linejoin="round"/>
<path d="M105.333 47.3278H42.4387V53.2725H105.333V47.3278Z" fill="#263238" stroke="#263238" stroke-width="0.422259" stroke-linecap="round" stroke-linejoin="round"/>
<path d="M102.457 49.3588H45.3222V51.2415H102.457V49.3588Z" fill="white" stroke="#263238" stroke-width="0.422259" stroke-linecap="round" stroke-linejoin="round"/>
<path d="M73.8897 39.1594C78.6876 39.1594 82.5771 35.2699 82.5771 30.472C82.5771 25.6741 78.6876 21.7847 73.8897 21.7847C69.0918 21.7847 65.2024 25.6741 65.2024 30.472C65.2024 35.2699 69.0918 39.1594 73.8897 39.1594Z" fill="#263238" stroke="#263238" stroke-width="0.422259" stroke-linecap="round" stroke-linejoin="round"/>
<path d="M69.9684 25.0684L79.3452 30.4794L69.9684 35.8905V25.0684Z" fill="white" stroke="#263238" stroke-width="0.422259" stroke-linecap="round" stroke-linejoin="round"/>
<path d="M78.1295 68.4905H18.4372C17.2828 68.4905 16.3469 69.4263 16.3469 70.5808V93.3295C16.3469 94.484 17.2828 95.4199 18.4372 95.4199H78.1295C79.284 95.4199 80.2198 94.484 80.2198 93.3295V70.5808C80.2198 69.4263 79.284 68.4905 78.1295 68.4905Z" fill="#263238" stroke="#263238" stroke-width="0.422259" stroke-linecap="round" stroke-linejoin="round"/>
<path d="M23.9521 72.1594L24.2634 72.6783C22.855 73.464 21.543 74.8427 21.543 76.4586C21.525 76.7362 21.5626 77.0146 21.6535 77.2775C21.7444 77.5404 21.8869 77.7825 22.0726 77.9896C22.2584 78.1967 22.4835 78.3646 22.735 78.4836C22.9864 78.6026 23.2591 78.6701 23.537 78.6824C23.7445 78.6824 23.8854 78.5786 23.8854 78.371C23.8854 78.1635 23.7816 78.0968 23.574 78.0597C23.2941 77.9839 23.0503 77.8111 22.886 77.5721C22.7217 77.3332 22.6477 77.0436 22.6771 76.7551C22.6825 76.525 22.7347 76.2983 22.8304 76.089C22.9262 75.8796 23.0635 75.6919 23.2341 75.5373C23.4046 75.3826 23.6049 75.2643 23.8226 75.1895C24.0403 75.1147 24.271 75.085 24.5006 75.1022C24.7503 75.103 24.9974 75.154 25.2271 75.252C25.4568 75.35 25.6645 75.493 25.838 75.6727C26.0115 75.8524 26.1471 76.065 26.237 76.2981C26.3268 76.5311 26.369 76.7798 26.3611 77.0294C26.3575 77.3431 26.2907 77.6529 26.1647 77.9402C26.0387 78.2275 25.8561 78.4865 25.6277 78.7016C25.3994 78.9168 25.1301 79.0838 24.8358 79.1925C24.5415 79.3013 24.2284 79.3496 23.915 79.3347C23.5254 79.3599 23.1349 79.303 22.7687 79.1676C22.4025 79.0323 22.0688 78.8215 21.7893 78.549C21.5098 78.2764 21.2906 77.9482 21.146 77.5855C21.0015 77.2229 20.9347 76.8339 20.95 76.4438C20.9278 74.5685 22.3732 73.0563 23.9521 72.1594ZM30.3194 72.1594L30.6307 72.6783C29.2149 73.464 27.9103 74.8427 27.9103 76.4586C27.8913 76.7364 27.9281 77.0152 28.0187 77.2786C28.1092 77.5419 28.2517 77.7844 28.4375 77.9917C28.6234 78.199 28.849 78.367 29.1009 78.4856C29.3529 78.6042 29.626 78.6711 29.9043 78.6824C30.1118 78.6824 30.2526 78.5786 30.2526 78.371C30.2526 78.1635 30.1489 78.0968 29.9413 78.0597C29.6614 77.9839 29.4176 77.8111 29.2533 77.5721C29.089 77.3332 29.015 77.0436 29.0444 76.7551C29.0487 76.5246 29.1002 76.2975 29.1956 76.0876C29.291 75.8777 29.4283 75.6896 29.5991 75.5348C29.7699 75.3799 29.9706 75.2617 30.1887 75.1873C30.4069 75.1129 30.6381 75.0839 30.8679 75.1022C31.1176 75.103 31.3647 75.154 31.5944 75.252C31.8241 75.35 32.0318 75.493 32.2053 75.6727C32.3787 75.8524 32.5144 76.065 32.6043 76.2981C32.6941 76.5311 32.7363 76.7798 32.7284 77.0294C32.7237 77.3428 32.6562 77.6521 32.5299 77.9389C32.4035 78.2257 32.2209 78.4843 31.9928 78.6993C31.7647 78.9142 31.4958 79.0812 31.202 79.1904C30.9081 79.2995 30.5954 79.3486 30.2823 79.3347C29.893 79.3587 29.5029 79.301 29.1373 79.1652C28.7716 79.0295 28.4384 78.8187 28.1591 78.5464C27.8798 78.2741 27.6607 77.9463 27.5157 77.5842C27.3707 77.2221 27.3031 76.8336 27.3173 76.4438C27.2877 74.5685 28.7331 73.0563 30.3194 72.1594Z" fill="#92E3A9"/>
<path d="M36.4124 77.6448H72.763" stroke="white" stroke-width="0.422259" stroke-linecap="round" stroke-linejoin="round"/>
<path d="M36.4124 80.7653H72.763" stroke="white" stroke-width="0.422259" stroke-linecap="round" stroke-linejoin="round"/>
<path d="M36.4124 83.886H72.763" stroke="white" stroke-width="0.422259" stroke-linecap="round" stroke-linejoin="round"/>
<path d="M36.4124 87.014H72.763" stroke="white" stroke-width="0.422259" stroke-linecap="round" stroke-linejoin="round"/>
<path d="M66.3314 137.174C73.8343 135.949 78.9238 128.874 77.6992 121.371C76.4746 113.868 69.3996 108.779 61.8967 110.003C54.3939 111.228 49.3043 118.303 50.5289 125.806C51.7535 133.309 58.8286 138.398 66.3314 137.174Z" fill="#263238" stroke="#263238" stroke-width="0.422259" stroke-linecap="round" stroke-linejoin="round"/>
<path d="M72.8449 131.269C77.0779 126.449 76.602 119.11 71.782 114.877C66.9619 110.644 59.6229 111.12 55.3899 115.94C51.1568 120.76 51.6327 128.099 56.4528 132.332C61.2728 136.565 68.6118 136.089 72.8449 131.269Z" fill="white" stroke="#263238" stroke-width="0.422259" stroke-linecap="round" stroke-linejoin="round"/>
<path d="M64.1202 115.189V123.587H69.7981" stroke="#263238" stroke-width="0.844518" stroke-linecap="round" stroke-linejoin="round"/>
<path d="M150.238 123.617C150.238 123.617 158.132 140.465 158.132 141.355C158.132 142.244 151.127 146.054 149.793 146.855C148.758 147.444 147.692 147.976 146.598 148.448L147.399 156.254C147.399 156.254 159.459 153.504 164.514 150.754C169.569 148.004 169.392 144.898 168.22 140.287C167.049 135.677 159.259 117.857 159.259 117.857L150.238 123.617Z" fill="white"/>
<g style="mix-blend-mode:multiply" opacity="0.5">
<path d="M164.492 150.754C169.547 148.004 169.369 144.898 168.198 140.287C167.027 135.677 159.237 117.857 159.237 117.857L157.976 118.658L157.576 119.399C157.576 119.399 164.848 137.248 165.285 143.193C165.582 147.188 157.539 152.169 152.224 155.016C156.168 153.971 161.534 152.362 164.492 150.754Z" fill="#92E3A9"/>
</g>
<path d="M150.238 123.617C150.238 123.617 158.132 140.465 158.132 141.355C158.132 142.244 151.127 146.054 149.793 146.855C148.758 147.444 147.692 147.976 146.598 148.448L147.399 156.254C147.399 156.254 159.459 153.504 164.514 150.754C169.569 148.004 169.392 144.898 168.22 140.287C167.049 135.677 159.259 117.857 159.259 117.857L150.238 123.617Z" stroke="#263238" stroke-width="0.422259" stroke-linecap="round" stroke-linejoin="round"/>
<path d="M93.2806 119.896C93.2806 119.896 87.5211 140.999 87.3506 144.727C87.1801 148.456 98.788 155.809 99.2105 156.253C99.633 156.698 98.5508 143.43 98.5508 143.43L102.487 124.158L93.2806 119.896Z" fill="white"/>
<g style="mix-blend-mode:multiply" opacity="0.5">
<path d="M95.9194 121.623L95.7934 121.052L93.2806 119.896C93.2806 119.896 87.5211 140.999 87.3506 144.727C87.1801 148.456 98.788 155.809 99.2105 156.254C99.381 156.431 99.3143 154.445 99.1734 151.991C95.7193 149.063 90.7603 144.942 90.1822 143.208" fill="#92E3A9"/>
</g>
<path d="M93.2806 119.896C93.2806 119.896 87.5211 140.999 87.3506 144.727C87.1801 148.456 98.788 155.809 99.2105 156.253C99.633 156.698 98.5508 143.43 98.5508 143.43L102.487 124.158L93.2806 119.896Z" stroke="#263238" stroke-width="0.422259" stroke-linecap="round" stroke-linejoin="round"/>
<path d="M120.329 98.6961C120.329 98.6961 118.105 100.297 113.769 100.475C109.432 100.653 109.225 97.5101 103.836 97.5101C97.3056 97.5101 89.1149 118.169 89.1149 118.169C89.1149 118.169 93.1917 122.164 97.187 123.847C99.3972 124.815 101.721 125.5 104.103 125.885L104.725 139.457H148.711L149.237 125.885L162.987 116.968C162.987 116.968 156.242 104.908 152.966 100.386C149.689 95.8646 144.182 97.5472 142.499 98.6961C140.817 99.8451 135.828 100.119 133.99 99.8525C131.592 99.3217 129.222 98.6711 126.889 97.903C126.889 97.903 124.057 95.5459 120.329 98.6961Z" fill="#92E3A9" stroke="#263238" stroke-width="0.422259" stroke-linecap="round" stroke-linejoin="round"/>
<path d="M104.548 103.484L104.37 126.011" stroke="#263238" stroke-width="0.21113" stroke-linecap="round" stroke-linejoin="round"/>
<path d="M106.141 105.53C106.141 105.53 106.764 116.523 109.106 122.645" stroke="#263238" stroke-width="0.21113" stroke-linecap="round" stroke-linejoin="round"/>
<path d="M109.514 123.528C110.02 125.022 110.642 126.474 111.374 127.871" stroke="#263238" stroke-width="0.21113" stroke-linecap="round" stroke-linejoin="round"/>
<path d="M107.557 104.285C108.398 108.282 109.587 112.198 111.108 115.989" stroke="#263238" stroke-width="0.21113" stroke-linecap="round" stroke-linejoin="round"/>
<path d="M145.79 106.234C145.79 106.234 143.663 114.929 141.795 118.836" stroke="#263238" stroke-width="0.21113" stroke-linecap="round" stroke-linejoin="round"/>
<path d="M149.237 125.922L149.148 108.362" stroke="#263238" stroke-width="0.21113" stroke-linecap="round" stroke-linejoin="round"/>
<path d="M148.266 108.718C148.266 108.718 146.665 119.836 142.766 125.655" stroke="#263238" stroke-width="0.21113" stroke-linecap="round" stroke-linejoin="round"/>
<path d="M146.317 123.439C146.317 123.439 144.538 126.811 143.3 128.583" stroke="#263238" stroke-width="0.21113" stroke-linecap="round" stroke-linejoin="round"/>
<path d="M117.845 100.03C117.845 100.03 119.091 107.658 120.862 111.557C122.634 115.456 125.74 116.256 128.401 115.107C131.062 113.958 133.011 108.273 132.848 101.024" stroke="#263238" stroke-width="0.21113" stroke-linecap="round" stroke-linejoin="round"/>
<path d="M111.552 84.064C111.552 84.064 109.862 81.1435 108.535 82.6482C107.209 84.1529 109.603 87.6145 110.93 88.7634C112.257 89.9124 113.235 89.2082 113.153 87.9703C113.072 86.7324 111.552 84.064 111.552 84.064Z" fill="#92E3A9" stroke="#263238" stroke-width="0.422259" stroke-linecap="round" stroke-linejoin="round"/>
<path opacity="0.5" d="M111.552 84.064C111.552 84.064 109.862 81.1435 108.535 82.6482C107.209 84.1529 109.603 87.6145 110.93 88.7634C112.257 89.9124 113.235 89.2082 113.153 87.9703C113.072 86.7324 111.552 84.064 111.552 84.064Z" fill="white"/>
<path d="M111.552 84.064C111.552 84.064 109.862 81.1435 108.535 82.6482C107.209 84.1529 109.603 87.6145 110.93 88.7634C112.257 89.9124 113.235 89.2082 113.153 87.9703C113.072 86.7324 111.552 84.064 111.552 84.064Z" stroke="#263238" stroke-width="0.422259" stroke-linecap="round" stroke-linejoin="round"/>
<path d="M138.378 84.064C138.378 84.064 140.061 81.1435 141.395 82.6482C142.729 84.1529 140.327 87.6145 139.001 88.7634C137.674 89.9124 136.688 89.2082 136.777 87.9703C136.866 86.7324 138.378 84.064 138.378 84.064Z" fill="#92E3A9" stroke="#263238" stroke-width="0.422259" stroke-linecap="round" stroke-linejoin="round"/>
<path opacity="0.5" d="M138.378 84.064C138.378 84.064 140.061 81.1435 141.395 82.6482C142.729 84.1529 140.327 87.6145 139.001 88.7634C137.674 89.9124 136.688 89.2082 136.777 87.9703C136.866 86.7324 138.378 84.064 138.378 84.064Z" fill="white"/>
<path d="M138.378 84.064C138.378 84.064 140.061 81.1435 141.395 82.6482C142.729 84.1529 140.327 87.6145 139.001 88.7634C137.674 89.9124 136.688 89.2082 136.777 87.9703C136.866 86.7324 138.378 84.064 138.378 84.064Z" stroke="#263238" stroke-width="0.422259" stroke-linecap="round" stroke-linejoin="round"/>
<path d="M119.528 98.0808C120.365 101.866 121.432 105.596 122.723 109.251C124.324 113.239 127.333 113.239 128.579 110.667C129.824 108.095 130.617 98.5107 130.617 98.5107C130.617 98.5107 122.278 99.6745 119.528 98.0808Z" fill="white" stroke="#263238" stroke-width="0.422259" stroke-linecap="round" stroke-linejoin="round"/>
<path d="M111.73 85.0423C111.73 85.0423 114.035 93.196 118.401 97.9919C122.767 102.788 124.331 103.922 126.651 103.573C128.971 103.225 131.44 100.208 134.894 93.9373C138.348 87.6663 138.6 82.8557 138.889 82.4109C139.178 81.9662 138.148 73.1009 133.211 69.2835C128.275 65.4661 122.745 63.7909 117.957 67.9567C113.168 72.1225 110.129 78.9197 111.73 85.0423Z" fill="white"/>
<g style="mix-blend-mode:multiply" opacity="0.5">
<path d="M133.189 69.2538C128.223 65.4438 122.723 63.7612 117.934 67.927C113.146 72.0928 110.129 78.9196 111.73 85.0423C111.73 85.0423 112.167 86.6137 113.035 88.7485C113.032 88.4752 113.07 88.203 113.146 87.9406C114.206 84.5827 117.334 78.082 127.86 81.0618C136.221 83.419 135.198 90.7721 134.42 94.6933L134.872 93.8779C138.333 87.5848 138.578 82.7963 138.867 82.3516C139.156 81.9068 138.155 73.0712 133.189 69.2538Z" fill="#92E3A9"/>
</g>
<path d="M111.73 85.0423C111.73 85.0423 114.035 93.196 118.401 97.9919C122.767 102.788 124.331 103.922 126.651 103.573C128.971 103.225 131.44 100.208 134.894 93.9373C138.348 87.6663 138.6 82.8557 138.889 82.4109C139.178 81.9662 138.148 73.1009 133.211 69.2835C128.275 65.4661 122.745 63.7909 117.957 67.9567C113.168 72.1225 110.129 78.9197 111.73 85.0423Z" stroke="#263238" stroke-width="0.422259" stroke-linecap="round" stroke-linejoin="round"/>
<path d="M126.629 89.2971C126.354 91.0284 126.206 92.7774 126.184 94.5303C126.273 96.3019 126.807 96.8356 126.007 97.0135C125.206 97.1914 124.324 95.9461 124.324 95.9461" stroke="#263238" stroke-width="0.422259" stroke-linecap="round" stroke-linejoin="round"/>
<path d="M117.756 90.7201C118.27 91.0912 118.884 91.2983 119.518 91.3142C120.152 91.3301 120.775 91.154 121.307 90.809" stroke="#263238" stroke-width="0.422259" stroke-linecap="round" stroke-linejoin="round"/>
<path d="M129.023 90.7201C129.536 91.0906 130.149 91.2973 130.781 91.3132C131.413 91.3291 132.036 91.1533 132.566 90.809" stroke="#263238" stroke-width="0.422259" stroke-linecap="round" stroke-linejoin="round"/>
<path d="M123.42 87.7331C123.42 87.7331 121.729 83.5599 116.148 85.5093" stroke="#263238" stroke-width="0.422259" stroke-linecap="round" stroke-linejoin="round"/>
<path d="M128.067 87.2215C128.067 87.2215 129.483 83.1372 134.538 85.5315" stroke="#263238" stroke-width="0.422259" stroke-linecap="round" stroke-linejoin="round"/>
<path d="M124.494 91.0242C124.494 93.3072 121.878 95.1529 118.646 95.1529C115.414 95.1529 112.79 93.3072 112.79 91.0242C112.79 88.7412 115.236 87.7924 118.468 87.7924C121.7 87.7924 124.494 88.7486 124.494 91.0242Z" stroke="#263238" stroke-width="0.422259" stroke-linecap="round" stroke-linejoin="round"/>
<path d="M137.978 91.0242C137.978 93.3072 135.354 95.1529 132.122 95.1529C128.89 95.1529 126.273 93.3072 126.273 91.0242C126.273 88.7412 128.712 87.7924 131.944 87.7924C135.176 87.7924 137.978 88.7486 137.978 91.0242Z" stroke="#263238" stroke-width="0.422259" stroke-linecap="round" stroke-linejoin="round"/>
<path d="M63.238 162.132L62.8748 251.993C62.8748 252.276 62.9873 252.547 63.1874 252.747C63.3876 252.948 63.6591 253.06 63.9422 253.06C64.2183 253.06 64.4835 252.952 64.6814 252.76C64.8794 252.568 64.9945 252.306 65.0022 252.03L67.5669 162.258L63.238 162.132Z" fill="white" stroke="#263238" stroke-width="0.422259" stroke-linecap="round" stroke-linejoin="round"/>
<path d="M57.1895 183.138L56.8411 276.038C56.8401 276.179 56.8671 276.318 56.9204 276.448C56.9737 276.578 57.0522 276.696 57.1516 276.795C57.2509 276.895 57.3689 276.973 57.4989 277.027C57.6288 277.08 57.7681 277.107 57.9085 277.106C58.1841 277.106 58.449 277 58.648 276.809C58.8469 276.618 58.9644 276.358 58.9759 276.083L61.5332 183.257L57.1895 183.138Z" fill="white" stroke="#263238" stroke-width="0.422259" stroke-linecap="round" stroke-linejoin="round"/>
<path d="M187.47 162.132L187.834 251.993C187.835 252.132 187.808 252.271 187.755 252.4C187.702 252.53 187.624 252.648 187.526 252.747C187.427 252.846 187.31 252.925 187.181 252.979C187.052 253.032 186.913 253.06 186.774 253.06C186.497 253.06 186.231 252.953 186.032 252.761C185.833 252.568 185.716 252.306 185.706 252.03L183.149 162.258L187.47 162.132Z" fill="white" stroke="#263238" stroke-width="0.422259" stroke-linecap="round" stroke-linejoin="round"/>
<path d="M193.526 183.138L193.89 276.038C193.891 276.179 193.864 276.318 193.81 276.448C193.757 276.578 193.678 276.696 193.579 276.795C193.48 276.895 193.362 276.973 193.232 277.027C193.102 277.08 192.963 277.107 192.822 277.106C192.547 277.106 192.283 276.999 192.085 276.809C191.888 276.618 191.772 276.358 191.762 276.083L189.198 183.257L193.526 183.138Z" fill="white" stroke="#263238" stroke-width="0.422259" stroke-linecap="round" stroke-linejoin="round"/>
<path d="M99.307 187L99.092 269.456C99.0686 269.662 99.1257 269.869 99.2515 270.033C99.3773 270.198 99.5619 270.307 99.7666 270.338C99.9664 270.311 100.148 270.208 100.275 270.051C100.402 269.894 100.464 269.694 100.449 269.493L102.057 187.097L99.307 187Z" fill="white" stroke="#263238" stroke-width="0.422259" stroke-linecap="round" stroke-linejoin="round"/>
<path d="M151.498 184.347L151.698 256.307C151.715 256.481 151.665 256.655 151.557 256.793C151.449 256.931 151.293 257.022 151.12 257.048C150.947 257.022 150.792 256.93 150.685 256.792C150.579 256.654 150.53 256.48 150.549 256.307L149.178 184.406L151.498 184.347Z" fill="white" stroke="#263238" stroke-width="0.422259" stroke-linecap="round" stroke-linejoin="round"/>
<path d="M98.499 184.347L98.6991 256.307C98.7162 256.481 98.6658 256.655 98.5582 256.793C98.4506 256.931 98.294 257.022 98.1209 257.048C97.9484 257.022 97.7926 256.93 97.6862 256.792C97.5798 256.654 97.531 256.48 97.5502 256.307L96.1789 184.406L98.499 184.347Z" fill="white" stroke="#263238" stroke-width="0.422259" stroke-linecap="round" stroke-linejoin="round"/>
<path d="M150.008 187L150.238 269.456C150.261 269.662 150.204 269.869 150.078 270.033C149.953 270.198 149.768 270.307 149.563 270.338C149.364 270.309 149.183 270.206 149.057 270.049C148.931 269.892 148.868 269.694 148.881 269.493L147.273 187.097L150.008 187Z" fill="white" stroke="#263238" stroke-width="0.422259" stroke-linecap="round" stroke-linejoin="round"/>
<path d="M124.294 192.775C142.512 192.775 157.28 189.4 157.28 185.236C157.28 181.073 142.512 177.698 124.294 177.698C106.077 177.698 91.3089 181.073 91.3089 185.236C91.3089 189.4 106.077 192.775 124.294 192.775Z" fill="white" stroke="#263238" stroke-width="0.422259" stroke-linecap="round" stroke-linejoin="round"/>
<path d="M108.232 249.228C108.232 249.228 106.504 251.703 107.742 252.934C108.98 254.164 110.211 253.675 110.085 254.913C109.959 256.151 107.987 260.346 106.26 264.794C104.533 269.241 108.113 273.689 111.449 272.458C114.784 271.228 114.414 258.864 114.903 256.64C115.392 254.416 115.77 254.046 115.644 251.948C115.518 249.85 115.399 247.627 113.791 247.375C112.182 247.123 108.973 248.368 108.232 249.228Z" fill="white" stroke="#263238" stroke-width="0.422259" stroke-linecap="round" stroke-linejoin="round"/>
<path d="M113.531 269.049C111.308 268.204 107.898 268.374 105.978 268.567C106.623 271.361 109.091 273.326 111.449 272.458C112.434 272.095 113.079 270.776 113.531 269.049Z" fill="#92E3A9" stroke="#263238" stroke-width="0.422259" stroke-linecap="round" stroke-linejoin="round"/>
<path d="M104.407 243.794C104.407 243.794 107.987 249.85 108.973 251.451C109.959 253.053 113.302 252.563 113.672 250.34C114.043 248.116 112.308 241.941 112.308 241.941L104.896 243.794H104.407Z" fill="white" stroke="#263238" stroke-width="0.422259" stroke-linecap="round" stroke-linejoin="round"/>
<path d="M95.8823 234.158C95.8823 234.158 94.8891 235.767 95.3857 236.879C95.8823 237.991 97.2388 241.2 98.1061 242.809C98.9733 244.417 102.924 245.403 107.49 244.662C112.056 243.92 114.658 241.815 114.784 239.962C114.91 238.109 114.043 235.641 113.42 232.676C112.798 229.711 111.196 229.837 108.973 229.837C106.749 229.837 97.7354 232.431 95.8823 234.158Z" fill="#92E3A9" stroke="#263238" stroke-width="0.422259" stroke-linecap="round" stroke-linejoin="round"/>
<path d="M109.225 197.837C109.291 194.798 111.048 193.301 111.182 191.218C111.391 188.464 111.163 185.695 110.507 183.012L107.127 178.395C97.4019 178.521 90.4342 178.684 90.3231 178.721C89.9524 178.839 89.7004 180.944 89.4558 182.672C89.4558 182.672 85.3271 183.198 86.0683 194.687C86.1721 196.288 90.3379 214.812 90.6418 216.924C92.4949 229.829 96.6236 236.293 96.6236 236.293C96.6236 236.293 96.9943 237.902 101.812 237.531C106.63 237.16 111.449 233.951 111.449 233.951C111.449 233.951 108.973 208.83 109.225 197.837Z" fill="#263238" stroke="#263238" stroke-width="0.422259" stroke-linecap="round" stroke-linejoin="round"/>
<path d="M88.7887 180.789C88.7887 180.789 83.6816 181.53 80.5535 185.103C77.4255 188.675 80.0791 191.033 86.1573 190.395C92.2355 189.758 99.2477 183.539 99.5442 183.205C99.8407 182.872 93.2066 178.646 88.7887 180.789Z" fill="white" stroke="#263238" stroke-width="0.422259" stroke-linecap="round" stroke-linejoin="round"/>
<path d="M97.8541 183.013C101.108 183.18 104.337 183.677 107.49 184.495C111.693 185.733 119.106 188.201 120.833 188.201C122.56 188.201 122.071 181.775 122.071 180.544C122.071 179.314 99.8332 178.565 97.1129 178.565C94.3925 178.565 97.8541 183.013 97.8541 183.013Z" fill="white" stroke="#263238" stroke-width="0.422259" stroke-linecap="round" stroke-linejoin="round"/>
<path d="M122.07 180.544C122.07 180.544 120.091 181.53 119.35 185.236C118.609 188.942 117.623 190.922 119.105 191.907C120.588 192.893 127.015 193.635 128 192.649C128.986 191.663 131.707 186.719 132.203 183.509C132.7 180.3 122.07 180.544 122.07 180.544Z" fill="#92E3A9" stroke="#263238" stroke-width="0.422259" stroke-linecap="round" stroke-linejoin="round"/>
<path d="M130.469 181.775C129.32 183.093 128.403 184.597 127.756 186.222C127.232 187.923 126.818 189.656 126.518 191.411C128.883 192.059 131.195 192.887 133.434 193.886C137.392 195.614 144.063 196.851 150.482 198.334C156.902 199.816 158.636 201.299 160.86 201.299C163.084 201.299 165.804 199.564 169.266 195.369C172.727 191.174 169.755 182.271 166.301 179.551C162.846 176.83 144.308 174.614 141.839 175.355C139.371 176.097 130.469 181.775 130.469 181.775Z" fill="#263238" stroke="#263238" stroke-width="0.422259" stroke-linecap="round" stroke-linejoin="round"/>
<path d="M84.1114 190.462C83.6232 188.244 82.6344 186.168 81.2205 184.391C80.9907 184.606 80.7684 184.828 80.5534 185.073C77.8034 188.201 79.5231 190.425 84.1114 190.462Z" fill="#92E3A9" stroke="#263238" stroke-width="0.422259" stroke-linecap="round" stroke-linejoin="round"/>
<path d="M108.847 192.419C108.847 192.419 106.297 219.704 101.093 223.951" stroke="white" stroke-width="0.21113" stroke-linecap="round" stroke-linejoin="round"/>
<path d="M107.046 218.318C107.046 218.318 105.022 227.213 99.7147 230.749" stroke="white" stroke-width="0.21113" stroke-linecap="round" stroke-linejoin="round"/>
<path d="M139.86 187.46C139.86 187.46 131.951 187.957 137.14 191.411C142.329 194.865 151.72 197.096 151.72 197.096" stroke="white" stroke-width="0.21113" stroke-linecap="round" stroke-linejoin="round"/>
<path d="M197.277 178.113L194.609 175.711L188.442 162.369C188.149 161.762 187.69 161.251 187.117 160.895C186.545 160.539 185.883 160.354 185.21 160.36H65.4247C64.7497 160.352 64.0865 160.537 63.5127 160.893C62.939 161.249 62.4786 161.761 62.1855 162.369L54.4988 178.988L53.2313 178.521V182.323L53.2906 182.279C53.3661 182.786 53.6236 183.249 54.015 183.58C54.4065 183.911 54.9051 184.089 55.418 184.08H195.209C195.749 184.092 196.273 183.894 196.67 183.528C197.067 183.161 197.306 182.655 197.336 182.116L197.277 178.113Z" fill="#263238" stroke="#263238" stroke-width="0.422259" stroke-linecap="round" stroke-linejoin="round"/>
<path d="M195.209 180.603H55.4179C55.0717 180.617 54.7277 180.543 54.4181 180.387C54.1086 180.232 53.8436 180 53.648 179.714C53.4524 179.428 53.3326 179.097 53.2999 178.752C53.2672 178.407 53.3227 178.06 53.461 177.742L62.1855 158.892C62.4771 158.283 62.9372 157.77 63.5112 157.414C64.0853 157.058 64.7493 156.874 65.4247 156.884H185.21C185.884 156.875 186.546 157.06 187.119 157.416C187.691 157.772 188.15 158.284 188.441 158.892L197.166 177.742C197.304 178.06 197.36 178.407 197.327 178.752C197.294 179.097 197.175 179.428 196.979 179.714C196.783 180 196.518 180.232 196.209 180.387C195.899 180.543 195.555 180.617 195.209 180.603Z" fill="white" stroke="#263238" stroke-width="0.422259" stroke-linecap="round" stroke-linejoin="round"/>
<g style="mix-blend-mode:multiply" opacity="0.5">
<path d="M62.4967 167.943C62.4967 167.943 59.3316 170.115 61.3107 170.908C63.2898 171.701 86.0386 171.108 88.8108 170.315C91.5831 169.522 94.7408 162.206 94.7408 161.02C94.7408 159.834 90.7529 158.981 89.2852 158.915C87.8176 158.848 68.4266 160.026 68.4266 160.026L62.4967 167.943Z" fill="#92E3A9"/>
</g>
<g style="mix-blend-mode:multiply" opacity="0.5">
<path d="M175.655 171.701C180.134 171.701 183.764 170.194 183.764 168.336C183.764 166.477 180.134 164.97 175.655 164.97C171.176 164.97 167.546 166.477 167.546 168.336C167.546 170.194 171.176 171.701 175.655 171.701Z" fill="#92E3A9"/>
</g>
<g style="mix-blend-mode:multiply" opacity="0.5">
<path d="M124.027 175.859C140.087 175.859 153.106 173.424 153.106 170.419C153.106 167.414 140.087 164.978 124.027 164.978C107.968 164.978 94.9485 167.414 94.9485 170.419C94.9485 173.424 107.968 175.859 124.027 175.859Z" fill="#92E3A9"/>
</g>
<path d="M169.725 155.097C169.725 155.097 169.191 152.97 167.42 153.682C165.648 154.393 165.826 159.093 166.175 161.754C166.523 164.415 168.925 163.169 168.925 163.169V161.576C168.925 161.576 168.042 162.28 167.598 161.309C167.153 160.338 167.242 155.453 167.687 155.542C168.131 155.631 169.013 157.136 169.013 157.136C169.013 157.136 169.28 156.965 169.725 155.097Z" fill="#92E3A9" stroke="#263238" stroke-width="0.422259" stroke-linecap="round" stroke-linejoin="round"/>
<path d="M168.45 155.453V167.105C168.45 168.477 171.6 169.589 175.492 169.589C179.383 169.589 182.526 168.477 182.526 167.105V155.453H168.45Z" fill="#92E3A9" stroke="#263238" stroke-width="0.422259" stroke-linecap="round" stroke-linejoin="round"/>
<path d="M182.526 155.453C182.526 156.639 179.376 157.595 175.492 157.595C171.608 157.595 168.45 156.639 168.45 155.453C168.45 154.267 171.6 153.311 175.492 153.311C179.383 153.311 182.526 154.274 182.526 155.453Z" fill="white" stroke="#263238" stroke-width="0.422259" stroke-linecap="round" stroke-linejoin="round"/>
<path d="M181.607 155.453C181.607 156.483 178.865 157.314 175.492 157.314C172.119 157.314 169.369 156.483 169.369 155.453C169.369 154.423 172.112 153.593 175.492 153.593C178.872 153.593 181.607 154.423 181.607 155.453Z" fill="white" stroke="#263238" stroke-width="0.422259" stroke-linecap="round" stroke-linejoin="round"/>
<path d="M170.77 156.639C173.851 157.538 177.125 157.538 180.206 156.639C177.125 155.74 173.851 155.74 170.77 156.639Z" fill="#263238" stroke="#263238" stroke-width="0.422259" stroke-linecap="round" stroke-linejoin="round"/>
<path d="M61.6221 160.775L61.7111 164.763L88.5812 165.03V160.419L61.6221 160.775Z" fill="white" stroke="#263238" stroke-width="0.422259" stroke-linecap="round" stroke-linejoin="round"/>
<path d="M88.5811 165.03L92.4874 156.609V154.126L88.4032 161.22L88.5811 165.03Z" fill="white" stroke="#263238" stroke-width="0.422259" stroke-linecap="round" stroke-linejoin="round"/>
<path d="M61.6221 164.407L61.7111 168.403L88.5812 168.669V164.059L61.6221 164.407Z" fill="white" stroke="#263238" stroke-width="0.422259" stroke-linecap="round" stroke-linejoin="round"/>
<path d="M88.5811 168.669L92.4874 160.241V157.758L88.4032 164.852L88.5811 168.669Z" fill="white" stroke="#263238" stroke-width="0.422259" stroke-linecap="round" stroke-linejoin="round"/>
<path d="M71.9994 150.665C71.9994 150.665 72.6221 149.427 71.7326 148.893C70.8431 148.359 69.8721 149.634 69.3384 150.042C68.8047 150.45 57.6341 157.847 57.2783 159.004C56.9225 160.16 57.2783 162.71 59.6726 162.992C62.0668 163.273 64.1941 161.665 65.2615 161.398C66.3289 161.131 66.744 161.042 66.744 161.042L74.1046 151.109L71.9994 150.665Z" fill="white" stroke="#263238" stroke-width="0.422259" stroke-linecap="round" stroke-linejoin="round"/>
<path d="M59.6726 162.999C62.0668 163.266 64.1941 161.672 65.2615 161.405C66.3289 161.138 66.744 161.049 66.744 161.049L67.0109 160.686L60.0951 159.278C59.7191 158.924 59.2357 158.705 58.7214 158.657C58.2072 158.608 57.6915 158.733 57.2561 159.011C56.9225 160.153 57.2784 162.725 59.6726 162.999Z" fill="white" stroke="#263238" stroke-width="0.422259" stroke-linecap="round" stroke-linejoin="round"/>
<path d="M60.1174 159.293H80.8723C87.3507 159.293 89.3002 158.937 89.3002 158.937L93.2881 150.687C93.2881 150.687 80.6869 151.487 76.7954 151.221C75.1873 151.174 73.5858 150.996 72.007 150.687L60.1174 159.293Z" fill="white" stroke="#263238" stroke-width="0.422259" stroke-linecap="round" stroke-linejoin="round"/>
<path d="M60.1174 159.293L60.4732 160.886C60.4732 160.886 77.3217 160.975 81.7543 160.975C86.187 160.975 89.5596 161.153 89.5596 161.153L89.2928 158.929L60.1174 159.293Z" fill="white" stroke="#263238" stroke-width="0.422259" stroke-linecap="round" stroke-linejoin="round"/>
<path d="M89.5596 161.131L93.2807 152.614V150.664L89.2928 158.914L89.5596 161.131Z" fill="white" stroke="#263238" stroke-width="0.422259" stroke-linecap="round" stroke-linejoin="round"/>
<path d="M149.422 171.093H98.6102C98.4976 171.094 98.3859 171.073 98.2817 171.031C98.1774 170.988 98.0825 170.926 98.0026 170.846C97.9226 170.767 97.8592 170.673 97.8159 170.569C97.7726 170.465 97.7503 170.353 97.7503 170.241C97.7503 170.128 97.7726 170.017 97.8159 169.913C97.8592 169.809 97.9226 169.715 98.0026 169.636C98.0825 169.556 98.1774 169.494 98.2817 169.451C98.3859 169.409 98.4976 169.387 98.6102 169.388H149.422C149.535 169.387 149.646 169.409 149.75 169.451C149.854 169.494 149.948 169.557 150.027 169.636C150.107 169.715 150.169 169.81 150.212 169.914C150.254 170.017 150.276 170.129 150.275 170.241C150.276 170.353 150.254 170.464 150.212 170.568C150.169 170.672 150.107 170.767 150.027 170.846C149.948 170.925 149.854 170.988 149.75 171.03C149.646 171.073 149.535 171.094 149.422 171.093Z" fill="white" stroke="#263238" stroke-width="0.422259" stroke-linecap="round" stroke-linejoin="round"/>
<path d="M149.852 169.374H98.1729C97.9837 169.374 97.8016 169.302 97.6638 169.172C97.526 169.043 97.443 168.866 97.4316 168.677L94.6223 134.913C94.6097 134.809 94.6194 134.703 94.651 134.602C94.6825 134.502 94.7351 134.409 94.8053 134.331C94.8754 134.252 94.9615 134.189 95.0577 134.147C95.154 134.104 95.2582 134.082 95.3635 134.083H152.669C152.774 134.082 152.879 134.104 152.975 134.147C153.071 134.189 153.157 134.252 153.227 134.331C153.298 134.409 153.35 134.502 153.382 134.602C153.413 134.703 153.423 134.809 153.41 134.913L150.601 168.677C150.59 168.867 150.505 169.045 150.366 169.175C150.227 169.305 150.043 169.376 149.852 169.374Z" fill="white" stroke="#263238" stroke-width="0.422259" stroke-linecap="round" stroke-linejoin="round"/>
<path d="M128.89 152.31C128.89 154.326 126.703 155.957 124.013 155.957C121.322 155.957 119.128 154.326 119.128 152.31C119.128 150.294 121.314 148.671 124.013 148.671C126.711 148.671 128.89 150.301 128.89 152.31Z" fill="white" stroke="#263238" stroke-width="0.422259" stroke-linecap="round" stroke-linejoin="round"/>
<path d="M179.391 125.937C180.184 125.318 180.741 124.447 180.97 123.468C181.136 122.734 181.119 121.97 180.918 121.245" stroke="#263238" stroke-width="0.422259" stroke-linecap="round" stroke-linejoin="round"/>
<path d="M173.476 152.369C173.476 152.369 178.405 149.404 176.796 146.017C175.188 142.63 169.747 140.384 169.747 135.106C169.747 130.555 174.587 128.872 177.745 127.049" stroke="#263238" stroke-width="0.422259" stroke-linecap="round" stroke-linejoin="round"/>
<path d="M178.027 152.273C178.027 152.273 180.777 150.442 180.777 147.536C180.777 145.587 178.694 144.312 175.944 141.177" stroke="#263238" stroke-width="0.422259" stroke-linecap="round" stroke-linejoin="round"/>
<path d="M174.425 139.279C174.425 139.279 172.623 137.863 173.95 135.202" stroke="#263238" stroke-width="0.422259" stroke-linecap="round" stroke-linejoin="round"/>
<path d="M132.692 61.6338C133.575 61.4485 135.465 60.7221 136.74 57.7645C136.759 57.7198 136.77 57.6716 136.771 57.6227C136.772 57.5739 136.763 57.5253 136.745 57.4798C136.727 57.4344 136.7 57.3929 136.666 57.3578C136.632 57.3227 136.592 57.2947 136.547 57.2753C136.456 57.2377 136.355 57.2367 136.263 57.2727C136.172 57.3086 136.098 57.3787 136.058 57.468C134.887 60.181 133.211 60.7814 132.515 60.9148C133.761 59.4058 134.45 57.5131 134.464 55.5556C134.464 50.4114 129.698 46.2456 123.82 46.2456C117.942 46.2456 113.176 50.4114 113.176 55.5556C113.18 57.4341 113.805 59.2585 114.955 60.7443C113.835 60.685 111.945 61.1594 109.551 63.9539C109.482 64.0245 109.444 64.1188 109.444 64.2171C109.444 64.3153 109.482 64.4097 109.551 64.4802C109.62 64.5373 109.706 64.5688 109.795 64.5692C109.849 64.5692 109.903 64.5573 109.951 64.5342C110 64.5111 110.043 64.4775 110.077 64.4357C113.139 60.8703 115.162 61.4708 115.57 61.6338C114.878 62.0145 114.229 62.4694 113.635 62.9903C110.218 66.0665 108.135 71.8852 108.402 76.733C108.702 79.9482 109.867 83.0221 111.775 85.6279C114.256 83.8517 116.314 81.5481 117.801 78.8826C118.909 76.9246 119.899 74.9024 120.766 72.8266C120.766 74.9985 121.048 77.6225 122.189 79.4978C123.013 80.9791 124.219 82.2119 125.682 83.0673C127.145 83.9227 128.811 84.3693 130.506 84.3604C131.091 84.3688 131.675 84.3116 132.248 84.1899C132.298 84.1773 132.345 84.1543 132.386 84.1224C132.427 84.0905 132.461 84.0503 132.485 84.0046C135.346 84.6124 138.193 84.5605 138.63 83.9527C139.334 82.9816 140.335 79.95 140.668 76.2437C141.276 69.958 137.318 64.5024 132.692 61.6338ZM122.878 79.0456C121.44 76.6959 121.485 72.8637 121.655 70.6622L121.752 70.4101C121.82 72.6744 122.397 74.8942 123.441 76.9049C124.484 78.9156 125.966 80.6657 127.778 82.0254C128.779 82.7172 129.889 83.2359 131.062 83.5598C129.246 83.6858 125.51 83.3374 122.878 79.0456Z" fill="#263238"/>
<path d="M123.004 67.3785C123.004 67.3785 122.397 71.8705 128.104 76.2735C133.812 80.6765 139.223 78.9419 139.223 78.9419" stroke="white" stroke-width="0.21113" stroke-linecap="round" stroke-linejoin="round"/>
<path d="M123.842 65.8959C123.842 65.8959 129.854 74.65 138.156 72.3669" stroke="white" stroke-width="0.21113" stroke-linecap="round" stroke-linejoin="round"/>
<path d="M120.87 62.983C119.922 62.5017 118.86 62.29 117.8 62.371C116.739 62.4521 115.722 62.8227 114.858 63.4426C111.663 65.57 110.062 70.5956 110.062 70.5956" stroke="white" stroke-width="0.21113" stroke-linecap="round" stroke-linejoin="round"/>
<path d="M121.025 65.4215C121.025 65.4215 118.438 64.7321 116.837 66.3332C116.057 67.0404 115.39 67.8628 114.858 68.7719" stroke="white" stroke-width="0.21113" stroke-linecap="round" stroke-linejoin="round"/>
</svg>
