<svg width="334" height="247" viewBox="0 0 334 247" fill="none" xmlns="http://www.w3.org/2000/svg">
<path d="M300.297 229.271H278.191V229.438H300.297V229.271Z" fill="#EBEBEB"/>
<path d="M221.081 231.087H215.281V231.254H221.081V231.087Z" fill="#EBEBEB"/>
<path d="M277.523 223.077H264.714V223.244H277.523V223.077Z" fill="#EBEBEB"/>
<path d="M63.8441 224.198H35.0158V224.365H63.8441V224.198Z" fill="#EBEBEB"/>
<path d="M74.0164 224.198H69.7913V224.365H74.0164V224.198Z" fill="#EBEBEB"/>
<path d="M150.282 227.015H87.7532V227.182H150.282V227.015Z" fill="#EBEBEB"/>
<path d="M159.126 188.762H30.2366C29.2258 188.762 28.2564 188.361 27.5417 187.646C26.8269 186.931 26.4254 185.962 26.4254 184.951V3.77791C26.4342 2.77289 26.8396 1.81203 27.5534 1.10448C28.2672 0.396923 29.2316 -3.85307e-05 30.2366 2.8051e-09H159.126C159.627 2.8051e-09 160.122 0.098581 160.585 0.290116C161.047 0.481651 161.467 0.76239 161.821 1.1163C162.175 1.47021 162.456 1.89037 162.647 2.35277C162.839 2.81518 162.938 3.31078 162.938 3.81129V184.951C162.938 185.451 162.839 185.947 162.647 186.409C162.456 186.872 162.175 187.292 161.821 187.646C161.467 188 161.047 188.281 160.585 188.472C160.122 188.664 159.627 188.762 159.126 188.762ZM30.2366 0.133496C29.2706 0.13526 28.3447 0.51979 27.6616 1.20287C26.9785 1.88595 26.594 2.8119 26.5922 3.77791V184.951C26.594 185.917 26.9785 186.843 27.6616 187.526C28.3447 188.209 29.2706 188.594 30.2366 188.595H159.126C160.092 188.594 161.018 188.209 161.701 187.526C162.384 186.843 162.769 185.917 162.771 184.951V3.77791C162.769 2.8119 162.384 1.88595 161.701 1.20287C161.018 0.51979 160.092 0.13526 159.126 0.133496H30.2366Z" fill="#EBEBEB"/>
<path d="M303.501 188.762H174.612C173.601 188.762 172.631 188.361 171.917 187.646C171.202 186.931 170.8 185.962 170.8 184.951V3.77791C170.809 2.77289 171.215 1.81203 171.928 1.10448C172.642 0.396923 173.607 -3.85307e-05 174.612 2.8051e-09H303.501C304.512 2.80511e-09 305.481 0.401545 306.196 1.1163C306.911 1.83106 307.312 2.80047 307.312 3.81129V184.951C307.312 185.962 306.911 186.931 306.196 187.646C305.481 188.361 304.512 188.762 303.501 188.762ZM174.612 0.133496C173.646 0.13526 172.72 0.51979 172.037 1.20287C171.353 1.88595 170.969 2.8119 170.967 3.77791V184.951C170.969 185.917 171.353 186.843 172.037 187.526C172.72 188.209 173.646 188.594 174.612 188.595H303.501C304.467 188.594 305.393 188.209 306.076 187.526C306.759 186.843 307.144 185.917 307.146 184.951V3.77791C307.144 2.8119 306.759 1.88595 306.076 1.20287C305.393 0.51979 304.467 0.13526 303.501 0.133496H174.612Z" fill="#EBEBEB"/>
<path d="M333.738 218.531H0V218.698H333.738V218.531Z" fill="#EBEBEB"/>
<path d="M275.14 127.929H262.585V140.484H275.14V127.929Z" fill="#F5F5F5"/>
<path d="M282.863 127.929H275.147V140.484H282.863V127.929Z" fill="#EBEBEB"/>
<path d="M278.23 127.929V132.681L278.431 132.494L278.784 132.721L279.092 132.494L279.485 132.721L279.906 132.494L280.173 132.721L280.48 132.554V127.929H278.23Z" fill="#E0E0E0"/>
<path opacity="0.7" d="M278.23 127.929V132.681L278.431 132.494L278.784 132.721L279.092 132.494L279.485 132.721L279.906 132.494L280.173 132.721L280.48 132.554V127.929H278.23Z" fill="#E0E0E0"/>
<path d="M275.708 142.8H259.281V159.226H275.708V142.8Z" fill="#F5F5F5"/>
<path d="M285.8 142.8H275.708V159.226H285.8V142.8Z" fill="#E6E6E6"/>
<path d="M272.57 147.418H256.144L259.281 142.8H275.708L272.57 147.418Z" fill="#E6E6E6"/>
<path d="M278.684 147.418H288.77L285.8 142.8H275.708L278.684 147.418Z" fill="#F5F5F5"/>
<path d="M67.762 144.509C72.7902 144.509 76.8664 140.432 76.8664 135.404C76.8664 130.376 72.7902 126.3 67.762 126.3C62.7338 126.3 58.6577 130.376 58.6577 135.404C58.6577 140.432 62.7338 144.509 67.762 144.509Z" fill="#E0E0E0"/>
<path d="M66.347 144.509C71.3752 144.509 75.4514 140.432 75.4514 135.404C75.4514 130.376 71.3752 126.3 66.347 126.3C61.3188 126.3 57.2426 130.376 57.2426 135.404C57.2426 140.432 61.3188 144.509 66.347 144.509Z" fill="#EBEBEB"/>
<path opacity="0.2" d="M71.2986 140.354C74.033 137.619 74.0329 133.186 71.2986 130.452C68.5642 127.717 64.1309 127.717 61.3965 130.452C58.6621 133.186 58.6621 137.619 61.3965 140.354C64.1309 143.088 68.5642 143.088 71.2986 140.354Z" fill="white"/>
<path d="M60.4134 135.404C60.4135 133.641 61.0802 131.943 62.2797 130.65C63.4792 129.358 65.1229 128.567 66.8812 128.436C66.701 128.436 66.5274 128.436 66.3472 128.436C64.4884 128.436 62.7058 129.174 61.3915 130.488C60.0771 131.803 59.3387 133.585 59.3387 135.444C59.3387 137.303 60.0771 139.085 61.3915 140.4C62.7058 141.714 64.4884 142.453 66.3472 142.453C66.5274 142.453 66.701 142.453 66.8812 142.453C65.1096 142.319 63.4553 141.516 62.254 140.207C61.0528 138.898 60.3947 137.181 60.4134 135.404Z" fill="#E0E0E0"/>
<path d="M68.9302 137.941C68.4273 138.381 67.7947 138.646 67.128 138.695V139.856H66.08V138.722C65.5808 138.699 65.087 138.609 64.6116 138.455C64.2095 138.331 63.8306 138.141 63.4902 137.894L64.0643 136.619C64.3492 136.826 64.6615 136.992 64.9921 137.113C65.3426 137.242 65.7083 137.325 66.08 137.36V135.625C65.6536 135.526 65.2361 135.392 64.8319 135.224C64.499 135.087 64.2054 134.869 63.9775 134.59C63.7369 134.267 63.6165 133.871 63.6371 133.469C63.6335 133.192 63.6874 132.917 63.7954 132.662C63.9034 132.407 64.0631 132.177 64.2645 131.987C64.7668 131.537 65.4069 131.271 66.08 131.233V130.078H67.1213V131.213C67.8678 131.248 68.5943 131.466 69.2372 131.847L68.7166 133.128C68.2281 132.839 67.6848 132.655 67.1213 132.588V134.356C67.5432 134.444 67.9565 134.569 68.3561 134.73C68.6844 134.872 68.9747 135.09 69.2038 135.364C69.4424 135.685 69.5627 136.079 69.5442 136.479C69.5468 136.752 69.4936 137.022 69.388 137.273C69.2824 137.525 69.1266 137.752 68.9302 137.941ZM65.5194 133.809C65.6874 133.942 65.8803 134.039 66.0867 134.096V132.614C65.868 132.656 65.6661 132.76 65.506 132.915C65.3835 133.042 65.3163 133.212 65.3191 133.389C65.317 133.469 65.3341 133.55 65.3689 133.623C65.4037 133.696 65.4552 133.76 65.5194 133.809ZM67.6887 137.046C67.7495 136.989 67.7976 136.92 67.8298 136.843C67.862 136.766 67.8776 136.683 67.8755 136.599C67.8782 136.518 67.8629 136.438 67.8305 136.364C67.7982 136.29 67.7497 136.225 67.6887 136.172C67.5207 136.043 67.3307 135.946 67.128 135.885V137.32C67.3382 137.287 67.5336 137.192 67.6887 137.046Z" fill="#E0E0E0"/>
<path d="M186.7 62.3755C191.728 62.3755 195.804 58.2993 195.804 53.2711C195.804 48.2429 191.728 44.1667 186.7 44.1667C181.672 44.1667 177.595 48.2429 177.595 53.2711C177.595 58.2993 181.672 62.3755 186.7 62.3755Z" fill="#E0E0E0"/>
<path d="M185.278 62.3755C190.306 62.3755 194.382 58.2993 194.382 53.2711C194.382 48.2429 190.306 44.1667 185.278 44.1667C180.25 44.1667 176.174 48.2429 176.174 53.2711C176.174 58.2993 180.25 62.3755 185.278 62.3755Z" fill="#EBEBEB"/>
<path opacity="0.2" d="M190.232 58.2267C192.966 55.4923 192.966 51.059 190.232 48.3246C187.497 45.5902 183.064 45.5902 180.33 48.3246C177.595 51.059 177.595 55.4923 180.33 58.2267C183.064 60.9611 187.497 60.9611 190.232 58.2267Z" fill="white"/>
<path d="M179.344 53.2715C179.346 51.508 180.013 49.8101 181.212 48.517C182.411 47.2239 184.054 46.4309 185.812 46.2964C185.638 46.2964 185.458 46.2964 185.278 46.2964C183.419 46.2964 181.636 47.0348 180.322 48.3491C179.008 49.6635 178.269 51.4461 178.269 53.3049C178.269 55.1637 179.008 56.9463 180.322 58.2606C181.636 59.575 183.419 60.3134 185.278 60.3134C185.458 60.3134 185.638 60.3134 185.812 60.3134C184.041 60.1812 182.387 59.3796 181.185 58.0717C179.984 56.7637 179.326 55.0474 179.344 53.2715Z" fill="#E0E0E0"/>
<path d="M187.861 55.8009C187.361 56.2466 186.727 56.5121 186.059 56.5552V57.7233H185.024V56.5886C184.525 56.5639 184.031 56.4718 183.556 56.3149C183.151 56.1923 182.77 56.0028 182.428 55.7542L183.002 54.486C183.288 54.6892 183.6 54.8531 183.93 54.9733C184.282 55.1048 184.65 55.19 185.024 55.2269V53.4848C184.595 53.3911 184.175 53.2593 183.769 53.091C183.437 52.941 183.146 52.7119 182.922 52.4235C182.677 52.105 182.554 51.7098 182.575 51.3088C182.575 51.0278 182.635 50.75 182.75 50.4935C182.865 50.2371 183.033 50.0077 183.242 49.8204C183.746 49.3733 184.385 49.1078 185.058 49.0661V47.9114H186.092V49.0461C186.838 49.0835 187.564 49.301 188.208 49.6802L187.688 50.9617C187.199 50.6727 186.656 50.4885 186.092 50.4211V52.1899C186.514 52.2825 186.927 52.4097 187.327 52.5704C187.659 52.7062 187.951 52.9245 188.175 53.2045C188.417 53.5217 188.54 53.9139 188.522 54.3125C188.522 54.593 188.463 54.8705 188.35 55.1269C188.236 55.3833 188.069 55.613 187.861 55.8009ZM184.45 51.6759C184.62 51.8086 184.815 51.9041 185.024 51.9563V50.4812C184.804 50.519 184.599 50.6212 184.437 50.7749C184.314 50.9019 184.247 51.0723 184.25 51.2488C184.248 51.3305 184.266 51.4116 184.3 51.4857C184.335 51.5597 184.386 51.6248 184.45 51.6759ZM186.626 54.9132C186.742 54.7928 186.809 54.6332 186.813 54.466C186.815 54.3849 186.798 54.3045 186.764 54.2306C186.731 54.1567 186.681 54.0912 186.62 54.0388C186.453 53.9062 186.263 53.8065 186.059 53.7451V55.1802C186.269 55.1452 186.465 55.0528 186.626 54.9132Z" fill="#E0E0E0"/>
<path d="M122.749 152.084C126.365 152.084 129.297 149.153 129.297 145.536C129.297 141.92 126.365 138.988 122.749 138.988C119.132 138.988 116.201 141.92 116.201 145.536C116.201 149.153 119.132 152.084 122.749 152.084Z" fill="#E0E0E0"/>
<path d="M121.728 152.084C125.344 152.084 128.276 149.153 128.276 145.536C128.276 141.92 125.344 138.988 121.728 138.988C118.111 138.988 115.18 141.92 115.18 145.536C115.18 149.153 118.111 152.084 121.728 152.084Z" fill="#F5F5F5"/>
<path opacity="0.2" d="M121.727 150.569C124.507 150.569 126.76 148.316 126.76 145.536C126.76 142.757 124.507 140.504 121.727 140.504C118.948 140.504 116.695 142.757 116.695 145.536C116.695 148.316 118.948 150.569 121.727 150.569Z" fill="white"/>
<path d="M117.476 145.51C117.477 144.238 117.96 143.014 118.826 142.083C119.693 141.152 120.88 140.583 122.148 140.49C122.021 140.49 121.894 140.49 121.761 140.49C120.457 140.538 119.222 141.089 118.317 142.028C117.411 142.968 116.905 144.222 116.905 145.526C116.905 146.831 117.411 148.085 118.317 149.024C119.222 149.964 120.457 150.515 121.761 150.562C121.89 150.569 122.019 150.569 122.148 150.562C120.873 150.471 119.681 149.898 118.813 148.959C117.946 148.021 117.467 146.788 117.476 145.51Z" fill="#E0E0E0"/>
<path d="M123.59 147.359C123.225 147.674 122.769 147.863 122.288 147.899V148.74H121.541V147.919C121.182 147.903 120.827 147.838 120.486 147.726C120.197 147.637 119.924 147.502 119.678 147.325L120.092 146.411C120.297 146.559 120.522 146.678 120.76 146.765C121.011 146.859 121.273 146.917 121.541 146.938V145.69C121.235 145.62 120.936 145.524 120.646 145.403C120.406 145.307 120.194 145.151 120.032 144.949C119.858 144.717 119.771 144.431 119.785 144.141C119.782 143.942 119.821 143.743 119.899 143.56C119.977 143.376 120.093 143.21 120.239 143.073C120.609 142.746 121.08 142.556 121.574 142.533V141.698H122.322V142.519C122.858 142.544 123.381 142.7 123.843 142.973L123.47 143.894C123.118 143.686 122.727 143.554 122.322 143.507V144.776C122.625 144.841 122.922 144.933 123.209 145.049C123.449 145.149 123.66 145.307 123.823 145.51C123.995 145.738 124.082 146.019 124.07 146.304C124.067 146.503 124.023 146.7 123.94 146.882C123.857 147.063 123.738 147.225 123.59 147.359ZM121.133 144.388C121.254 144.483 121.392 144.551 121.541 144.589V143.507C121.384 143.535 121.24 143.609 121.127 143.721C121.037 143.812 120.987 143.934 120.987 144.061C120.981 144.124 120.992 144.187 121.017 144.244C121.043 144.301 121.083 144.351 121.133 144.388ZM122.695 146.718C122.781 146.631 122.829 146.513 122.829 146.391C122.83 146.333 122.817 146.277 122.793 146.225C122.769 146.173 122.733 146.127 122.689 146.09C122.571 145.992 122.435 145.92 122.288 145.877V146.911C122.439 146.886 122.58 146.819 122.695 146.718Z" fill="#E0E0E0"/>
<path d="M144.584 30.6982C147.141 28.1411 147.141 23.9951 144.584 21.438C142.027 18.8809 137.881 18.8809 135.324 21.438C132.767 23.9952 132.767 28.1411 135.324 30.6982C137.881 33.2553 142.027 33.2553 144.584 30.6982Z" fill="#E0E0E0"/>
<path d="M143.562 30.706C146.119 28.1489 146.119 24.003 143.562 21.4458C141.004 18.8887 136.859 18.8887 134.301 21.4458C131.744 24.003 131.744 28.1489 134.301 30.706C136.859 33.2631 141.004 33.2631 143.562 30.706Z" fill="#F5F5F5"/>
<path opacity="0.2" d="M138.935 31.1046C141.715 31.1046 143.968 28.8514 143.968 26.0718C143.968 23.2923 141.715 21.0391 138.935 21.0391C136.156 21.0391 133.902 23.2923 133.902 26.0718C133.902 28.8514 136.156 31.1046 138.935 31.1046Z" fill="white"/>
<path d="M134.663 26.0717C134.665 24.8005 135.148 23.5771 136.015 22.6473C136.881 21.7174 138.068 21.15 139.336 21.0589C139.209 21.0523 139.082 21.0523 138.955 21.0589C137.651 21.1064 136.417 21.6578 135.511 22.5971C134.605 23.5363 134.099 24.7903 134.099 26.095C134.099 27.3998 134.605 28.6538 135.511 29.593C136.417 30.5323 137.651 31.0837 138.955 31.1312C139.082 31.1312 139.209 31.1312 139.336 31.1312C138.061 31.0365 136.869 30.4615 136.002 29.5224C135.135 28.5833 134.656 27.35 134.663 26.0717Z" fill="#E0E0E0"/>
<path d="M140.791 27.894C140.432 28.214 139.976 28.4044 139.496 28.4347V29.2757H138.748V28.4614C138.39 28.442 138.036 28.377 137.694 28.2678C137.404 28.1773 137.131 28.0398 136.886 27.8606L137.3 26.9462C137.504 27.0962 137.729 27.2154 137.967 27.2999C138.221 27.3922 138.486 27.4527 138.755 27.4802V26.2253C138.449 26.1606 138.149 26.0668 137.861 25.945C137.621 25.8444 137.41 25.6862 137.246 25.4844C137.071 25.2529 136.984 24.9667 137 24.6768C136.996 24.4785 137.034 24.2818 137.111 24.0991C137.188 23.9163 137.303 23.7517 137.447 23.6155C137.816 23.2861 138.287 23.0929 138.782 23.0681V22.2405H139.503V23.0548C140.039 23.079 140.562 23.2349 141.024 23.5087L140.651 24.4298C140.299 24.2194 139.909 24.0831 139.503 24.0293V25.3042C139.807 25.3669 140.104 25.4585 140.39 25.5779C140.629 25.677 140.84 25.8328 141.004 26.0317C141.176 26.2602 141.263 26.5408 141.251 26.826C141.254 27.0265 141.215 27.2252 141.135 27.4093C141.056 27.5933 140.938 27.7585 140.791 27.894ZM138.334 24.9237C138.459 25.0163 138.599 25.0863 138.748 25.1307V24.0627C138.591 24.0947 138.446 24.1685 138.328 24.2763C138.243 24.3692 138.195 24.4906 138.194 24.6167C138.192 24.6752 138.204 24.7334 138.228 24.7866C138.253 24.8399 138.289 24.8868 138.334 24.9237ZM139.903 27.2532C139.946 27.2116 139.98 27.1618 140.003 27.1067C140.026 27.0517 140.037 26.9925 140.037 26.9328C140.038 26.8743 140.027 26.8162 140.002 26.7629C139.978 26.7097 139.942 26.6627 139.896 26.6258C139.778 26.5304 139.642 26.46 139.496 26.4189V27.4468C139.647 27.4226 139.789 27.3554 139.903 27.2532Z" fill="#E0E0E0"/>
<path d="M82.3531 177.061L73.222 174.211L83.4143 174.752C81.1783 170.861 80.1838 168.945 78.4083 165.22C80.958 168.124 82.2863 169.599 85.083 172.563C85.8044 168.241 86.8645 163.983 88.2535 159.827C87.5815 163.525 87.2907 167.283 87.3858 171.041L87.5727 171.081C90.598 167.654 93.878 164.461 97.3846 161.529C94.0342 165.12 91.0555 169.04 88.4938 173.23C92.2895 171.797 96.1142 170.433 99.9677 169.138C96.1097 171.248 92.3385 173.424 88.5739 175.706L98.012 178.717L88.2535 178.123C90.3094 180.532 91.3773 181.747 93.5933 184.183C90.85 182.374 89.4951 181.473 86.8185 179.671C87.113 182.181 87.5588 184.671 88.1534 187.127C86.8185 184.083 86.2311 182.568 85.2032 179.584C83.2875 188.749 83.7881 197.606 85.637 206.744L83.3409 206.33C81.9898 197.381 82.3545 188.257 84.4156 179.444C82.1061 181.827 81.0248 183.035 79.0224 185.452C80.1813 183.203 81.4764 181.028 82.9004 178.937C79.6097 179.658 77.9878 180.025 74.7639 180.759C77.7208 179.277 79.2359 178.53 82.3531 177.061Z" fill="#EBEBEB"/>
<path d="M79.1158 180.218L87.5527 175.746L77.6406 178.216C79.1091 173.977 79.7365 171.908 80.7778 167.917C78.8154 171.254 77.7875 172.943 75.6048 176.4C74.0814 172.277 72.2357 168.28 70.0848 164.446C71.436 167.953 72.4245 171.59 73.0351 175.299L72.8548 175.366C69.2395 172.551 65.4174 170.011 61.421 167.77C65.3785 170.676 69.0346 173.972 72.3342 177.608C68.3294 176.91 64.3245 176.285 60.3196 175.733C64.5047 177.068 68.6164 178.516 72.7414 180.058L64.0241 184.777L73.5023 182.374C71.9337 185.124 71.1127 186.513 69.3906 189.323C71.7535 187.033 72.9149 185.892 75.2043 183.629C75.3852 186.148 75.4119 188.676 75.2844 191.198C76.0253 187.961 76.319 186.366 76.7729 183.235C80.3639 191.912 81.5387 200.703 81.4452 210.001L83.6212 209.167C83.2763 200.121 81.2151 191.224 77.5472 182.948C80.2638 184.864 81.552 185.852 83.975 187.874C82.4153 185.884 80.7369 183.989 78.9489 182.201C82.2863 182.294 83.9817 182.348 87.279 182.468C84.1018 181.553 82.4465 181.093 79.1158 180.218Z" fill="#F0F0F0"/>
<path d="M87.3658 185.245L81.2184 181.988L88.4405 183.756C87.3658 180.673 86.912 179.164 86.151 176.254C87.5794 178.677 88.3337 179.912 89.9223 182.435C91.028 179.442 92.3671 176.541 93.9271 173.758C92.9431 176.314 92.2229 178.964 91.7779 181.667L91.9113 181.721C94.5464 179.666 97.3333 177.814 100.248 176.181C97.36 178.299 94.6923 180.703 92.2851 183.356C95.2042 182.844 98.13 182.388 101.062 181.988C98.0121 182.975 95.0151 183.99 92.0115 185.138L98.3592 188.576L91.4441 186.813C92.5855 188.816 93.1862 189.83 94.4411 191.88C92.7257 190.211 91.878 189.376 90.2026 187.728C90.0709 189.565 90.0531 191.409 90.1492 193.248C89.6086 190.885 89.3883 189.724 89.0612 187.441C86.4447 193.748 85.5904 200.176 85.6771 206.951L84.0885 206.344C84.3358 199.75 85.8401 193.264 88.5206 187.234C86.5181 188.629 85.597 189.35 83.8482 190.825C84.9853 189.373 86.209 187.991 87.5127 186.687C85.063 186.76 83.8482 186.8 81.4387 186.887C83.7481 186.226 84.9362 185.879 87.3658 185.245Z" fill="#F5F5F5"/>
<path d="M90.176 218.518H75.3513L73.8962 194.896H91.6311L90.176 218.518Z" fill="#EBEBEB"/>
<path d="M92.7791 196.111H72.6013L72.2408 192.967H93.1395L92.7791 196.111Z" fill="#F5F5F5"/>
<path d="M249.823 218.452H277.496V168.157H249.823V218.452Z" fill="#F0F0F0"/>
<path d="M241.993 218.452H249.823V168.157H241.993V218.452Z" fill="#E6E6E6"/>
<path d="M252.486 185.472H274.62V172.209H252.486V185.472Z" fill="#FAFAFA"/>
<path d="M252.486 200.183H274.62V186.92H252.486V200.183Z" fill="#FAFAFA"/>
<path d="M252.486 214.887H274.62V201.624H252.486V214.887Z" fill="#FAFAFA"/>
<path d="M262.432 175.159C262.432 175.451 262.518 175.736 262.68 175.979C262.842 176.221 263.073 176.41 263.342 176.522C263.612 176.634 263.909 176.663 264.195 176.606C264.481 176.549 264.744 176.409 264.95 176.202C265.156 175.996 265.297 175.733 265.354 175.447C265.411 175.161 265.381 174.864 265.27 174.595C265.158 174.325 264.969 174.095 264.726 173.933C264.484 173.771 264.199 173.684 263.907 173.684C263.516 173.684 263.14 173.84 262.864 174.116C262.587 174.393 262.432 174.768 262.432 175.159Z" fill="#E0E0E0"/>
<path d="M263.199 175.159C263.199 175.451 263.286 175.736 263.448 175.979C263.61 176.221 263.84 176.41 264.11 176.522C264.379 176.634 264.676 176.663 264.962 176.606C265.248 176.549 265.511 176.409 265.717 176.202C265.924 175.996 266.064 175.733 266.121 175.447C266.178 175.161 266.149 174.864 266.037 174.595C265.925 174.325 265.736 174.095 265.494 173.933C265.251 173.771 264.966 173.684 264.674 173.684C264.283 173.684 263.908 173.84 263.631 174.116C263.355 174.393 263.199 174.768 263.199 175.159Z" fill="#F0F0F0"/>
<path d="M262.432 189.817C262.432 190.108 262.518 190.394 262.68 190.636C262.842 190.879 263.073 191.068 263.342 191.18C263.612 191.291 263.909 191.32 264.195 191.263C264.481 191.207 264.744 191.066 264.95 190.86C265.156 190.653 265.297 190.391 265.354 190.104C265.411 189.818 265.381 189.522 265.27 189.252C265.158 188.983 264.969 188.752 264.726 188.59C264.484 188.428 264.199 188.342 263.907 188.342C263.516 188.342 263.14 188.497 262.864 188.774C262.587 189.05 262.432 189.425 262.432 189.817Z" fill="#E0E0E0"/>
<path d="M263.199 189.817C263.199 190.108 263.286 190.394 263.448 190.636C263.61 190.879 263.84 191.068 264.11 191.18C264.379 191.291 264.676 191.32 264.962 191.263C265.248 191.207 265.511 191.066 265.717 190.86C265.924 190.653 266.064 190.391 266.121 190.104C266.178 189.818 266.149 189.522 266.037 189.252C265.925 188.983 265.736 188.752 265.494 188.59C265.251 188.428 264.966 188.342 264.674 188.342C264.283 188.342 263.908 188.497 263.631 188.774C263.355 189.05 263.199 189.425 263.199 189.817Z" fill="#F0F0F0"/>
<path d="M262.432 204.468C262.432 204.76 262.518 205.045 262.68 205.287C262.842 205.53 263.073 205.719 263.342 205.831C263.612 205.942 263.909 205.971 264.195 205.915C264.481 205.858 264.744 205.717 264.95 205.511C265.156 205.305 265.297 205.042 265.354 204.756C265.411 204.469 265.381 204.173 265.27 203.903C265.158 203.634 264.969 203.403 264.726 203.241C264.484 203.079 264.199 202.993 263.907 202.993C263.516 202.993 263.14 203.148 262.864 203.425C262.587 203.701 262.432 204.077 262.432 204.468Z" fill="#E0E0E0"/>
<path d="M263.199 204.468C263.199 204.76 263.286 205.045 263.448 205.287C263.61 205.53 263.84 205.719 264.11 205.831C264.379 205.942 264.676 205.971 264.962 205.915C265.248 205.858 265.511 205.717 265.717 205.511C265.924 205.305 266.064 205.042 266.121 204.756C266.178 204.469 266.149 204.173 266.037 203.903C265.925 203.634 265.736 203.403 265.494 203.241C265.251 203.079 264.966 202.993 264.674 202.993C264.283 202.993 263.908 203.148 263.631 203.425C263.355 203.701 263.199 204.077 263.199 204.468Z" fill="#F0F0F0"/>
<path d="M106.275 40.5627C104.38 41.3369 98.0856 40.4025 98.0856 40.4025L97.4181 40.6895C95.5664 41.4765 93.5619 41.8383 91.5519 41.7482C89.542 41.6581 87.5778 41.1184 85.804 40.1689C85.804 40.1689 80.6311 40.3758 78.9557 40.0354C76.3993 39.5214 72.588 37.499 73.5425 31.1179C74.497 24.7368 84.0686 30.2569 84.0686 30.2569C84.0686 30.2569 81.3052 21.2793 90.6299 23.9893C93.2595 24.7154 95.6168 26.2006 97.4071 28.2592C99.1973 30.3177 100.341 32.8583 100.695 35.5633C100.695 35.5633 115.22 36.8982 106.275 40.5627Z" fill="#F5F5F5"/>
<path d="M80.9181 48.8657C79.5832 49.3997 75.2513 48.7589 75.2513 48.7589L74.784 48.9591C73.506 49.4989 72.1235 49.7461 70.7376 49.6826C69.3517 49.6191 67.9976 49.2465 66.7743 48.592C65.1944 48.6734 63.6107 48.6422 62.0352 48.4986C60.2664 48.1448 57.6299 46.7431 58.2907 42.3311C58.9515 37.9191 65.5729 41.737 65.5729 41.737C65.5729 41.737 63.6639 35.5228 70.1117 37.3984C71.9324 37.8999 73.5646 38.9274 74.8042 40.3521C76.0437 41.7769 76.8354 43.5356 77.0802 45.4081C77.0802 45.4081 87.1123 46.3293 80.9181 48.8657Z" fill="#F0F0F0"/>
<path d="M177.061 66.968C175.166 67.7422 168.871 66.8145 168.871 66.8145L168.204 67.1015C166.352 67.8874 164.347 68.2481 162.337 68.1568C160.327 68.0656 158.363 67.5248 156.59 66.5742C156.59 66.5742 151.417 66.7811 149.742 66.4407C147.185 65.9267 143.381 63.9043 144.328 57.5299C145.276 51.1555 154.854 56.6621 154.854 56.6621C154.854 56.6621 152.091 47.6846 161.416 50.4012C164.045 51.1254 166.403 52.6091 168.193 54.6666C169.984 56.7242 171.127 59.2642 171.481 61.9686C171.481 61.9686 186.006 63.3035 177.061 66.968Z" fill="#F5F5F5"/>
<path d="M258.667 40.5093C258.384 38.3594 257.473 36.3409 256.048 34.7061C254.623 33.0713 252.748 31.8929 250.657 31.3181C247.02 30.2569 245.698 31.445 245.318 32.9201C242.951 30.0183 239.734 27.9314 236.12 26.9529C223.992 23.4286 227.609 35.0961 227.609 35.0961C227.609 35.0961 215.161 27.9274 213.926 36.2241C212.691 44.5208 217.597 47.144 220.935 47.8115C223.117 48.252 229.839 47.985 229.839 47.985C232.145 49.2192 234.699 49.9199 237.312 50.0354C239.925 50.1509 242.531 49.6783 244.937 48.6525L245.825 48.2787C245.825 48.2787 254.008 49.4935 256.471 48.4856C260.369 46.8837 260.836 45.6288 259.735 44.6677C260.861 44.8038 262.003 44.736 263.106 44.4674C270.214 41.5706 258.667 40.5093 258.667 40.5093Z" fill="#F5F5F5"/>
<path d="M163.652 246.105C235.127 246.105 293.069 242.722 293.069 238.549C293.069 234.376 235.127 230.993 163.652 230.993C92.1767 230.993 34.2348 234.376 34.2348 238.549C34.2348 242.722 92.1767 246.105 163.652 246.105Z" fill="#F5F5F5"/>
<path d="M225.28 62.0756C218.363 53.859 209.79 47.1943 200.122 42.5167C190.453 37.8391 179.907 35.254 169.171 34.9302C158.436 34.6064 147.752 36.5513 137.82 40.6376C127.887 44.724 118.928 50.86 111.529 58.6448C111.348 58.8375 111.099 58.9512 110.835 58.9612C110.572 58.9712 110.315 58.8767 110.12 58.6982C110.023 58.6076 109.945 58.4988 109.89 58.3779C109.835 58.257 109.804 58.1264 109.8 57.9937C109.796 57.8609 109.817 57.7287 109.864 57.6044C109.911 57.4802 109.982 57.3665 110.073 57.2698C117.667 49.2802 126.86 42.9825 137.053 38.7881C147.246 34.5936 158.209 32.5969 169.226 32.9282C180.243 33.2596 191.066 35.9116 200.989 40.711C210.911 45.5104 219.709 52.3492 226.808 60.7807L225.28 62.0756Z" fill="#263238"/>
<path d="M227.049 62.2022H220.814C220.549 62.2022 220.294 62.0967 220.106 61.909C219.919 61.7212 219.813 61.4666 219.813 61.201C219.813 60.9355 219.919 60.6808 220.106 60.493C220.294 60.3053 220.549 60.1998 220.814 60.1998H225.046V55.968C225.046 55.7025 225.152 55.4478 225.339 55.26C225.527 55.0723 225.782 54.9668 226.047 54.9668C226.312 54.9685 226.566 55.0746 226.753 55.262C226.941 55.4494 227.047 55.703 227.049 55.968V62.2022Z" fill="#263238"/>
<path d="M210.922 176.033L209.794 174.378C218.587 168.398 226.034 160.647 231.658 151.622C237.282 142.596 240.959 132.496 242.454 121.968C242.49 121.707 242.628 121.471 242.836 121.31C243.044 121.149 243.307 121.076 243.569 121.107C243.835 121.142 244.076 121.281 244.24 121.494C244.404 121.706 244.477 121.975 244.443 122.242C242.908 133.047 239.134 143.414 233.362 152.676C227.59 161.939 219.947 169.895 210.922 176.033Z" fill="#263238"/>
<path d="M214.507 177.689L208.439 176.287L209.841 170.213C209.87 170.086 209.924 169.965 210 169.858C210.076 169.752 210.172 169.661 210.283 169.591C210.394 169.522 210.518 169.475 210.647 169.454C210.776 169.432 210.908 169.436 211.036 169.466C211.164 169.495 211.286 169.549 211.393 169.625C211.501 169.702 211.592 169.798 211.662 169.91C211.732 170.021 211.78 170.146 211.802 170.276C211.824 170.406 211.82 170.539 211.79 170.667L210.835 174.786L214.96 175.733C215.219 175.794 215.443 175.954 215.583 176.179C215.723 176.405 215.768 176.676 215.708 176.935C215.648 177.193 215.487 177.418 215.262 177.559C215.037 177.7 214.766 177.747 214.507 177.689Z" fill="#263238"/>
<path d="M108.892 163.946C98.7888 152.87 92.0937 139.115 89.6085 124.331L91.5775 123.997C93.9988 138.404 100.525 151.807 110.374 162.597C110.551 162.793 110.644 163.049 110.634 163.313C110.624 163.576 110.511 163.825 110.32 164.006C110.223 164.096 110.108 164.166 109.984 164.212C109.859 164.258 109.726 164.278 109.594 164.273C109.461 164.267 109.33 164.236 109.21 164.179C109.09 164.123 108.981 164.044 108.892 163.946Z" fill="#263238"/>
<path d="M86.6849 127.715C86.4698 127.559 86.3252 127.324 86.2827 127.061C86.2402 126.799 86.3032 126.53 86.4579 126.314L90.1224 121.274L95.1618 124.939C95.2683 125.015 95.3586 125.113 95.4274 125.224C95.4961 125.336 95.5421 125.461 95.5626 125.59C95.5831 125.72 95.5777 125.852 95.5467 125.98C95.5157 126.108 95.4598 126.228 95.3821 126.334C95.3053 126.44 95.2082 126.53 95.0964 126.599C94.9845 126.668 94.8602 126.714 94.7305 126.734C94.6008 126.755 94.4683 126.749 94.3407 126.718C94.2131 126.687 94.0929 126.632 93.9871 126.554L90.5629 124.071L88.1066 127.488C88.0296 127.598 87.9313 127.692 87.8174 127.763C87.7036 127.835 87.5765 127.882 87.4439 127.903C87.3112 127.925 87.1757 127.919 87.0453 127.886C86.9149 127.854 86.7923 127.796 86.6849 127.715Z" fill="#263238"/>
<path d="M264.16 81.0582H258.821L259.488 59.0315H263.493L264.16 81.0582Z" fill="#263238"/>
<path opacity="0.7" d="M264.16 81.0582H258.821L259.488 59.0315H263.493L264.16 81.0582Z" fill="white"/>
<path d="M263.82 69.878L263.76 67.7087H259.228L259.161 69.878H263.82Z" fill="#407BFF"/>
<path d="M259.294 65.5394H263.693L263.626 63.3701H259.355L259.294 65.5394Z" fill="#407BFF"/>
<path d="M263.953 74.2167L263.887 72.0474H259.094L259.027 74.2167H263.953Z" fill="#407BFF"/>
<path d="M264.087 78.555L264.02 76.3857H258.961L258.901 78.555H264.087Z" fill="#407BFF"/>
<path d="M263.559 61.2008L263.493 59.0315H259.488L259.421 61.2008H263.559Z" fill="#407BFF"/>
<path d="M273.064 81.0582H267.725L268.392 59.0315H272.397L273.064 81.0582Z" fill="#263238"/>
<path opacity="0.7" d="M273.064 81.0582H267.725L268.392 59.0315H272.397L273.064 81.0582Z" fill="white"/>
<path d="M272.724 69.878L272.657 67.7087H268.125L268.058 69.878H272.724Z" fill="#407BFF"/>
<path d="M268.192 65.5394H272.591L272.524 63.3701H268.259L268.192 65.5394Z" fill="#407BFF"/>
<path d="M272.851 74.2167L272.791 72.0474H267.992L267.932 74.2167H272.851Z" fill="#407BFF"/>
<path d="M272.984 78.555L272.918 76.3857H267.865L267.798 78.555H272.984Z" fill="#407BFF"/>
<path d="M272.457 61.2008L272.397 59.0315H268.392L268.325 61.2008H272.457Z" fill="#407BFF"/>
<path d="M197.193 117.77H279.072V83.1209L238.129 62.9231L197.193 83.1209V117.77Z" fill="#407BFF"/>
<path opacity="0.5" d="M197.193 117.77H279.072V83.1209L238.129 62.9231L197.193 83.1209V117.77Z" fill="white"/>
<path d="M254.375 90.3428H221.889V117.763H254.375V90.3428Z" fill="#263238"/>
<path d="M227.676 90.3428H221.889V117.763H227.676V90.3428Z" fill="#263238"/>
<path opacity="0.5" d="M227.676 90.3428H221.889V117.763H227.676V90.3428Z" fill="white"/>
<path d="M235.793 98.5796H230.9V104.654H235.793V98.5796Z" fill="#263238"/>
<path opacity="0.6" d="M235.793 98.5796H230.9V104.654H235.793V98.5796Z" fill="white"/>
<path d="M238.796 98.5796H235.793V104.654H238.796V98.5796Z" fill="#263238"/>
<path opacity="0.4" d="M238.796 98.5796H235.793V104.654H238.796V98.5796Z" fill="white"/>
<path d="M236.994 98.5796V100.429L237.074 100.362L237.208 100.449L237.328 100.362L237.488 100.449L237.648 100.362L237.748 100.449L237.868 100.382V98.5796H236.994Z" fill="#407BFF"/>
<path opacity="0.7" d="M236.994 98.5796V100.429L237.074 100.362L237.208 100.449L237.328 100.362L237.488 100.449L237.648 100.362L237.748 100.449L237.868 100.382V98.5796H236.994Z" fill="#407BFF"/>
<path d="M244.55 98.5796H239.657V104.654H244.55V98.5796Z" fill="#263238"/>
<path opacity="0.6" d="M244.55 98.5796H239.657V104.654H244.55V98.5796Z" fill="white"/>
<path d="M247.56 98.5796H244.557V104.654H247.56V98.5796Z" fill="#263238"/>
<path opacity="0.4" d="M247.56 98.5796H244.557V104.654H247.56V98.5796Z" fill="white"/>
<path d="M245.758 98.5796V100.429L245.831 100.362L245.972 100.449L246.092 100.362L246.245 100.449L246.412 100.362L246.512 100.449L246.632 100.382V98.5796H245.758Z" fill="#407BFF"/>
<path opacity="0.7" d="M245.758 98.5796V100.429L245.831 100.362L245.972 100.449L246.092 100.362L246.245 100.449L246.412 100.362L246.512 100.449L246.632 100.382V98.5796H245.758Z" fill="#407BFF"/>
<path d="M278.504 84.3355L238.129 64.4114L197.753 84.3355C197.596 84.4132 197.425 84.4591 197.25 84.4706C197.075 84.4822 196.899 84.459 196.733 84.4026C196.567 84.3462 196.413 84.2576 196.282 84.1419C196.15 84.0261 196.042 83.8855 195.964 83.7281C195.887 83.5708 195.841 83.3997 195.829 83.2246C195.818 83.0495 195.841 82.8739 195.897 82.7078C195.954 82.5416 196.042 82.3883 196.158 82.2564C196.274 82.1245 196.414 82.0168 196.572 81.9393L238.129 61.4077L279.673 81.9393C279.83 82.0168 279.971 82.1245 280.086 82.2564C280.202 82.3883 280.291 82.5416 280.347 82.7078C280.404 82.8739 280.427 83.0495 280.415 83.2246C280.404 83.3997 280.358 83.5708 280.28 83.7281C280.123 84.0426 279.849 84.2827 279.517 84.3964C279.185 84.5101 278.821 84.4882 278.504 84.3355Z" fill="#263238"/>
<g opacity="0.5">
<path opacity="0.5" d="M278.504 84.3355L238.129 64.4114L197.753 84.3355C197.596 84.4132 197.425 84.4591 197.25 84.4706C197.075 84.4822 196.899 84.459 196.733 84.4026C196.567 84.3462 196.413 84.2576 196.282 84.1419C196.15 84.0261 196.042 83.8855 195.964 83.7281C195.887 83.5708 195.841 83.3997 195.829 83.2246C195.818 83.0495 195.841 82.8739 195.897 82.7078C195.954 82.5416 196.042 82.3883 196.158 82.2564C196.274 82.1245 196.414 82.0168 196.572 81.9393L238.129 61.4077L279.673 81.9393C279.83 82.0168 279.971 82.1245 280.086 82.2564C280.202 82.3883 280.291 82.5416 280.347 82.7078C280.404 82.8739 280.427 83.0495 280.415 83.2246C280.404 83.3997 280.358 83.5708 280.28 83.7281C280.123 84.0426 279.849 84.2827 279.517 84.3964C279.185 84.5101 278.821 84.4882 278.504 84.3355Z" fill="white"/>
</g>
<path d="M254.375 90.3428H248.588V117.763H254.375V90.3428Z" fill="#263238"/>
<path opacity="0.5" d="M254.375 90.3428H248.588V117.763H254.375V90.3428Z" fill="white"/>
<path d="M248.588 108.759H229.451V117.77H248.588V108.759Z" fill="#263238"/>
<path opacity="0.4" d="M248.588 108.759H229.451V117.77H248.588V108.759Z" fill="white"/>
<path d="M218.111 105.862H214.874V117.763H218.111V105.862Z" fill="#407BFF"/>
<path d="M229.451 109.973C228.743 109.973 228.064 109.692 227.564 109.191C227.063 108.691 226.782 108.012 226.782 107.303C226.782 106.595 227.063 105.916 227.564 105.416C228.064 104.915 228.743 104.634 229.451 104.634H248.588V109.973H229.451Z" fill="#407BFF"/>
<path d="M230.9 107.31C230.9 107.596 230.815 107.876 230.656 108.115C230.497 108.353 230.271 108.539 230.006 108.648C229.741 108.758 229.45 108.786 229.169 108.731C228.888 108.675 228.63 108.537 228.428 108.334C228.225 108.132 228.087 107.874 228.031 107.593C227.975 107.312 228.004 107.02 228.114 106.756C228.223 106.491 228.409 106.265 228.647 106.106C228.885 105.947 229.165 105.862 229.452 105.862C229.836 105.862 230.204 106.014 230.476 106.286C230.748 106.557 230.9 106.926 230.9 107.31Z" fill="#263238"/>
<path d="M216.723 105.862H202.752V117.763H216.723V105.862Z" fill="#407BFF"/>
<path opacity="0.3" d="M216.723 105.862H202.752V117.763H216.723V105.862Z" fill="white"/>
<path opacity="0.8" d="M212.538 111.188H210.182L211.116 108.271L206.944 112.443H209.301L208.366 115.36L212.538 111.188Z" fill="white"/>
<path d="M197.353 130.939H181.627C181.446 130.934 181.266 130.966 181.098 131.033C180.93 131.101 180.777 131.201 180.649 131.329C180.521 131.457 180.42 131.61 180.353 131.778C180.286 131.946 180.254 132.126 180.258 132.307V148.026C180.258 148.206 180.292 148.385 180.361 148.552C180.429 148.719 180.53 148.87 180.657 148.998C180.784 149.126 180.935 149.227 181.102 149.296C181.268 149.365 181.447 149.401 181.627 149.401V152.071C181.63 152.258 181.687 152.439 181.792 152.594C181.897 152.748 182.045 152.868 182.218 152.939C182.391 153.01 182.58 153.029 182.763 152.993C182.947 152.958 183.115 152.869 183.249 152.738L186.586 149.401H197.353C197.533 149.401 197.711 149.365 197.878 149.296C198.044 149.227 198.195 149.126 198.322 148.998C198.45 148.87 198.55 148.719 198.619 148.552C198.687 148.385 198.722 148.206 198.721 148.026V132.307C198.725 132.126 198.693 131.946 198.626 131.778C198.559 131.61 198.458 131.457 198.33 131.329C198.202 131.201 198.05 131.101 197.882 131.033C197.713 130.966 197.533 130.934 197.353 130.939Z" fill="#407BFF"/>
<g opacity="0.9">
<path opacity="0.9" d="M193.888 138.622H185.512L185.198 137.46H182.388V137.981H184.797L186.539 144.415H192.306V143.895H186.967L186.66 142.767H192.52L193.888 138.622ZM186.493 142.246L185.652 139.142H193.161L192.12 142.246H186.493Z" fill="white"/>
<path opacity="0.9" d="M186.827 145.636C187.114 145.636 187.347 145.403 187.347 145.116C187.347 144.828 187.114 144.595 186.827 144.595C186.539 144.595 186.306 144.828 186.306 145.116C186.306 145.403 186.539 145.636 186.827 145.636Z" fill="white"/>
<path opacity="0.9" d="M192.827 145.116C192.827 145.219 192.797 145.319 192.739 145.405C192.682 145.491 192.601 145.557 192.506 145.597C192.411 145.636 192.306 145.647 192.205 145.626C192.104 145.606 192.011 145.557 191.938 145.484C191.866 145.411 191.816 145.318 191.796 145.217C191.776 145.116 191.786 145.012 191.826 144.917C191.865 144.821 191.932 144.74 192.017 144.683C192.103 144.626 192.204 144.595 192.307 144.595C192.445 144.595 192.577 144.65 192.675 144.748C192.772 144.845 192.827 144.978 192.827 145.116Z" fill="white"/>
</g>
<path d="M192.173 140.003C193.865 140.003 195.236 138.631 195.236 136.939C195.236 135.247 193.865 133.876 192.173 133.876C190.481 133.876 189.109 135.247 189.109 136.939C189.109 138.631 190.481 140.003 192.173 140.003Z" fill="#407BFF"/>
<path opacity="0.3" d="M192.173 140.003C193.865 140.003 195.236 138.631 195.236 136.939C195.236 135.247 193.865 133.876 192.173 133.876C190.481 133.876 189.109 135.247 189.109 136.939C189.109 138.631 190.481 140.003 192.173 140.003Z" fill="black"/>
<g opacity="0.9">
<path opacity="0.9" d="M192.08 138.922L189.563 136.312C189.372 136.119 189.265 135.859 189.265 135.588C189.265 135.316 189.372 135.056 189.563 134.864C189.658 134.768 189.771 134.692 189.895 134.641C190.019 134.589 190.153 134.562 190.287 134.562C190.422 134.562 190.555 134.589 190.68 134.641C190.804 134.692 190.917 134.768 191.012 134.864L192.113 136.005L195.45 132.634C195.545 132.539 195.658 132.463 195.782 132.411C195.907 132.36 196.04 132.333 196.174 132.333C196.309 132.333 196.442 132.36 196.567 132.411C196.691 132.463 196.804 132.539 196.899 132.634C197.089 132.826 197.197 133.085 197.197 133.355C197.197 133.625 197.089 133.885 196.899 134.076L192.08 138.922Z" fill="white"/>
</g>
<path d="M120.513 69.8516H61.5479V117.77H120.513V69.8516Z" fill="#407BFF"/>
<path opacity="0.5" d="M120.513 69.8516H61.5479V117.77H120.513V69.8516Z" fill="white"/>
<path d="M68.5169 64.5051H59.5126V70.8862H68.5169V64.5051Z" fill="#407BFF"/>
<path d="M86.4182 64.5049H77.4139V70.886H86.4182V64.5049Z" fill="#407BFF"/>
<path d="M104.326 64.5049H95.3222V70.886H104.326V64.5049Z" fill="#407BFF"/>
<path d="M122.235 64.5049H113.23V70.886H122.235V64.5049Z" fill="#407BFF"/>
<g opacity="0.2">
<path opacity="0.2" d="M68.5169 64.5051H59.5126V70.8862H68.5169V64.5051Z" fill="white"/>
<path opacity="0.2" d="M86.4181 64.5049H77.4139V70.886H86.4181V64.5049Z" fill="white"/>
<path opacity="0.2" d="M104.326 64.5049H95.3222V70.886H104.326V64.5049Z" fill="white"/>
<path opacity="0.2" d="M122.235 64.5049H113.23V70.886H122.235V64.5049Z" fill="white"/>
</g>
<path d="M68.7899 75.2976C68.7899 76.8528 66.714 78.1144 64.1175 78.1144C61.521 78.1144 59.4452 76.8528 59.4452 75.2976V70.8188H68.4494L68.7899 75.2976Z" fill="#407BFF"/>
<path d="M86.7116 75.2976C86.7116 76.8528 84.6357 78.1144 82.0392 78.1144C79.4427 78.1144 77.4003 76.8528 77.4003 75.2976V70.8188H86.4112L86.7116 75.2976Z" fill="#407BFF"/>
<path d="M104.634 75.2976C104.634 76.8528 102.558 78.1144 99.9945 78.1144C97.4314 78.1144 95.3556 76.8528 95.3556 75.2976V70.8188H104.367L104.634 75.2976Z" fill="#407BFF"/>
<path d="M122.241 75.2976C122.241 76.8528 120.433 78.1144 117.869 78.1144C115.306 78.1144 113.197 76.8528 113.197 75.2976V70.8188H122.208L122.241 75.2976Z" fill="#407BFF"/>
<path d="M77.4672 70.8192V64.5049H68.463V70.8793V75.298C68.463 76.8532 70.5388 78.1147 73.1353 78.1147C75.7318 78.1147 77.5073 76.8532 77.5073 75.298V70.8192H77.4672Z" fill="#263238"/>
<path opacity="0.8" d="M77.4672 64.5049H68.463V75.298C68.463 76.8532 70.5388 78.1147 73.1353 78.1147C75.7318 78.1147 77.5073 76.8532 77.5073 75.298L77.4672 64.5049Z" fill="white"/>
<path d="M95.4489 70.8192V64.5049H86.4246V70.8793V75.298C86.4246 76.8532 88.5005 78.1147 91.0636 78.1147C93.6267 78.1147 95.4355 76.8532 95.4355 75.298V70.8192H95.4489Z" fill="#263238"/>
<path opacity="0.8" d="M95.4489 64.5049H86.4246V75.298C86.4246 76.8532 88.5005 78.1147 91.0636 78.1147C93.6267 78.1147 95.4355 76.8532 95.4355 75.298L95.4489 64.5049Z" fill="white"/>
<path d="M113.337 70.8192V64.5049H104.333V70.8793V75.298C104.333 76.8532 106.409 78.1147 109.005 78.1147C111.602 78.1147 113.377 76.8532 113.377 75.298V70.8192H113.337Z" fill="#263238"/>
<path opacity="0.8" d="M113.337 64.5049H104.333V75.298C104.333 76.8532 106.409 78.1147 109.005 78.1147C111.602 78.1147 113.377 76.8532 113.377 75.298L113.337 64.5049Z" fill="white"/>
<path opacity="0.5" d="M114.138 84.8428H87.2456V100.101H114.138V84.8428Z" fill="white"/>
<path opacity="0.4" d="M104.466 100.088H99.6005L103.252 84.9963H108.124L104.466 100.088Z" fill="white"/>
<path opacity="0.4" d="M106.83 100.088H105.748L109.406 84.9963H110.481L106.83 100.088Z" fill="white"/>
<path opacity="0.4" d="M91.8314 100.088H91.284L94.9418 84.9963H95.4891L91.8314 100.088Z" fill="white"/>
<path d="M114.672 100.635H86.7118V84.3088H114.672V100.635ZM87.7797 99.5673H113.604V85.3768H87.7797V99.5673Z" fill="#407BFF"/>
<path d="M80.691 79.2627H64.5247V117.636H80.691V79.2627Z" fill="#407BFF"/>
<path opacity="0.7" d="M80.0034 79.957H65.2121V117.629H80.0034V79.957Z" fill="white"/>
<path opacity="0.1" d="M72.2609 84.9294H66.3337V98.7262H72.2609V84.9294Z" fill="black"/>
<path opacity="0.1" d="M78.9622 84.9294H73.035V98.7262H78.9622V84.9294Z" fill="black"/>
<path opacity="0.1" d="M78.9623 102.898H66.3337V116.695H78.9623V102.898Z" fill="black"/>
<path opacity="0.1" d="M78.969 84.2153H66.3337C66.3337 83.3514 66.6769 82.5229 67.2877 81.912C67.8986 81.3012 68.7271 80.958 69.591 80.958H75.7117C76.5756 80.958 77.4041 81.3012 78.015 81.912C78.6258 82.5229 78.969 83.3514 78.969 84.2153Z" fill="black"/>
<path d="M67.415 99.3472H66.3337V102.157H67.415V99.3472Z" fill="#407BFF"/>
<path opacity="0.3" d="M67.415 99.3472H66.3337V102.157H67.415V99.3472Z" fill="white"/>
<path d="M67.4081 102.157H67.6217V99.3471H67.4081V102.157Z" fill="#407BFF"/>
<path d="M67.0545 100.448C67.0545 100.538 67.0279 100.626 66.978 100.7C66.9281 100.775 66.8572 100.833 66.7743 100.868C66.6914 100.902 66.6001 100.911 66.5121 100.893C66.424 100.876 66.3431 100.833 66.2797 100.769C66.2162 100.706 66.173 100.625 66.1554 100.537C66.1379 100.449 66.1469 100.358 66.1813 100.275C66.2156 100.192 66.2738 100.121 66.3484 100.071C66.4231 100.021 66.5108 99.9944 66.6006 99.9944C66.721 99.9944 66.8364 100.042 66.9216 100.127C67.0067 100.212 67.0545 100.328 67.0545 100.448Z" fill="#263238"/>
<path opacity="0.5" d="M66.9686 101.236H66.7342V101.805H66.9686V101.236Z" fill="white"/>
<path d="M66.2002 101.083C66.5504 101.083 66.8343 100.799 66.8343 100.449C66.8343 100.098 66.5504 99.8145 66.2002 99.8145C65.85 99.8145 65.5661 100.098 65.5661 100.449C65.5661 100.799 65.85 101.083 66.2002 101.083Z" fill="#263238"/>
<path opacity="0.2" d="M66.2002 101.083C66.5504 101.083 66.8343 100.799 66.8343 100.449C66.8343 100.098 66.5504 99.8145 66.2002 99.8145C65.85 99.8145 65.5661 100.098 65.5661 100.449C65.5661 100.799 65.85 101.083 66.2002 101.083Z" fill="white"/>
<path d="M236.293 129.437H212.511L217.056 135.404H240.832L236.293 129.437Z" fill="#407BFF"/>
<path opacity="0.3" d="M236.293 129.437H212.511L217.056 135.404H240.832L236.293 129.437Z" fill="white"/>
<path d="M245.137 129.437H259.742L255.443 135.404H240.832L245.137 129.437Z" fill="#407BFF"/>
<path opacity="0.1" d="M245.137 129.437H259.742L255.443 135.404H240.832L245.137 129.437Z" fill="white"/>
<path d="M240.839 135.404H217.057V159.186H240.839V135.404Z" fill="#407BFF"/>
<path opacity="0.5" d="M240.839 135.404H217.057V159.186H240.839V135.404Z" fill="white"/>
<path opacity="0.2" d="M231.094 135.404H226.788V140.757H231.094V135.404Z" fill="black"/>
<path opacity="0.2" d="M231.094 154.888H226.788V159.186H231.094V154.888Z" fill="black"/>
<path d="M255.436 135.404H240.832V159.186H255.436V135.404Z" fill="#407BFF"/>
<path opacity="0.3" d="M255.436 135.404H240.832V159.186H255.436V135.404Z" fill="white"/>
<path opacity="0.8" d="M249.082 157.625V153.319H242.521V157.625H249.082Z" fill="white"/>
<path d="M183.102 223.991C188.602 224.272 191.352 224.445 196.845 224.879C195.955 205.095 194.805 185.329 193.394 165.581C193.208 163.071 190.778 160.908 187.975 160.741L182.635 160.475C161.816 159.7 141.091 159.927 120.293 161.142C124.943 182.003 129.275 202.917 133.288 223.885C149.942 223.257 166.468 223.277 183.102 223.991Z" fill="#407BFF"/>
<path opacity="0.5" d="M183.102 223.991C188.602 224.272 191.352 224.445 196.845 224.879C195.955 205.095 194.805 185.329 193.394 165.581C193.208 163.071 190.778 160.908 187.975 160.741L182.635 160.475C161.816 159.7 141.091 159.927 120.293 161.142C124.943 182.003 129.275 202.917 133.288 223.885C149.942 223.257 166.468 223.277 183.102 223.991Z" fill="white"/>
<path d="M139.443 223.671C133.943 223.872 131.193 224.012 125.693 224.339C121.981 204.884 118.034 185.481 113.851 166.128C113.311 163.672 115.146 161.496 117.956 161.296C120.079 161.149 121.147 161.075 123.296 160.949C126.106 160.775 128.77 162.664 129.237 165.134C132.877 184.615 136.279 204.128 139.443 223.671Z" fill="#407BFF"/>
<path d="M147.112 234.638L144.509 204.855C144.45 204.211 144.173 203.606 143.724 203.14C143.275 202.674 142.681 202.375 142.039 202.292L140.964 202.152C140.098 202.047 139.293 201.648 138.686 201.021C138.079 200.394 137.705 199.577 137.627 198.708L137.153 193.281C137.107 192.755 137.171 192.224 137.34 191.723C137.51 191.223 137.782 190.763 138.14 190.373C138.497 189.983 138.931 189.672 139.415 189.459C139.899 189.246 140.422 189.136 140.951 189.136H116.922C116.394 189.137 115.871 189.248 115.388 189.461C114.905 189.674 114.471 189.985 114.115 190.375C113.758 190.765 113.487 191.225 113.317 191.725C113.148 192.225 113.084 192.755 113.131 193.281L113.605 198.708C113.682 199.577 114.056 200.394 114.664 201.021C115.271 201.648 116.075 202.047 116.942 202.152L118.017 202.292C118.658 202.375 119.253 202.674 119.702 203.14C120.151 203.606 120.428 204.211 120.486 204.855L123.089 234.638C123.181 235.684 123.662 236.658 124.437 237.368C125.211 238.077 126.224 238.47 127.274 238.469H151.304C150.252 238.47 149.239 238.077 148.463 237.368C147.687 236.659 147.205 235.685 147.112 234.638Z" fill="#407BFF"/>
<g opacity="0.2">
<path opacity="0.2" d="M147.112 234.638L144.509 204.855C144.45 204.211 144.173 203.606 143.724 203.14C143.275 202.674 142.681 202.375 142.039 202.292L140.964 202.152C140.098 202.047 139.293 201.648 138.686 201.021C138.079 200.394 137.705 199.577 137.627 198.708L137.153 193.281C137.107 192.755 137.171 192.224 137.34 191.723C137.51 191.223 137.782 190.763 138.14 190.373C138.497 189.983 138.931 189.672 139.415 189.459C139.899 189.246 140.422 189.136 140.951 189.136H116.922C116.394 189.137 115.871 189.248 115.388 189.461C114.905 189.674 114.471 189.985 114.115 190.375C113.758 190.765 113.487 191.225 113.317 191.725C113.148 192.225 113.084 192.755 113.131 193.281L113.605 198.708C113.682 199.577 114.056 200.394 114.664 201.021C115.271 201.648 116.075 202.047 116.942 202.152L118.017 202.292C118.658 202.375 119.253 202.674 119.702 203.14C120.151 203.606 120.428 204.211 120.486 204.855L123.089 234.638C123.181 235.684 123.662 236.658 124.437 237.368C125.211 238.077 126.224 238.47 127.274 238.469H151.304C150.252 238.47 149.239 238.077 148.463 237.368C147.687 236.659 147.205 235.685 147.112 234.638Z" fill="white"/>
</g>
<path d="M213.245 197.406C213.442 195.149 214.478 193.047 216.149 191.516C217.82 189.985 220.004 189.136 222.27 189.136H201.344C199.079 189.138 196.896 189.987 195.225 191.518C193.555 193.049 192.519 195.149 192.32 197.406L190.231 221.008H211.149L213.245 197.406Z" fill="#407BFF"/>
<path opacity="0.2" d="M213.245 197.406C213.442 195.149 214.478 193.047 216.149 191.516C217.82 189.985 220.004 189.136 222.27 189.136H201.344C199.079 189.138 196.896 189.987 195.225 191.518C193.555 193.049 192.519 195.149 192.32 197.406L190.231 221.008H211.149L213.245 197.406Z" fill="white"/>
<path d="M208.58 219.907C194.101 221.597 179.496 221.941 164.953 220.935C164.454 220.911 163.963 220.788 163.511 220.573C163.059 220.358 162.655 220.056 162.321 219.683C161.986 219.311 161.73 218.875 161.565 218.403C161.401 217.93 161.332 217.429 161.362 216.93C161.783 213.105 161.99 211.196 162.41 207.372C162.523 206.414 163.004 205.539 163.752 204.931C164.5 204.322 165.455 204.03 166.415 204.114C179.691 205.327 193.062 205.004 206.264 203.153C207.222 203.016 208.196 203.259 208.978 203.83C209.76 204.401 210.288 205.255 210.449 206.21L211.95 215.708C212.01 216.206 211.969 216.711 211.831 217.193C211.693 217.675 211.46 218.124 211.146 218.515C210.833 218.906 210.444 219.23 210.003 219.469C209.562 219.708 209.079 219.857 208.58 219.907Z" fill="#407BFF"/>
<path d="M166.155 204.114C162.817 203.814 161.195 203.627 157.905 203.173C156.945 203.034 155.969 203.276 155.186 203.847C154.403 204.419 153.874 205.274 153.713 206.23L152.185 215.728C152.128 216.226 152.172 216.73 152.312 217.211C152.453 217.692 152.688 218.139 153.004 218.528C153.319 218.917 153.709 219.24 154.151 219.476C154.592 219.713 155.077 219.859 155.575 219.906C159.186 220.4 160.989 220.607 164.613 220.934C165.247 214.206 165.534 210.842 166.155 204.114Z" fill="#407BFF"/>
<g opacity="0.4">
<path opacity="0.4" d="M208.58 219.907C194.101 221.597 179.496 221.941 164.953 220.935C164.454 220.911 163.963 220.788 163.511 220.573C163.059 220.358 162.655 220.056 162.321 219.683C161.986 219.311 161.73 218.875 161.565 218.403C161.401 217.93 161.332 217.429 161.362 216.93C161.783 213.105 161.99 211.196 162.41 207.372C162.523 206.414 163.004 205.539 163.752 204.931C164.5 204.322 165.455 204.03 166.415 204.114C179.691 205.327 193.062 205.004 206.264 203.153C207.222 203.016 208.196 203.259 208.978 203.83C209.76 204.401 210.288 205.255 210.449 206.21L211.95 215.708C212.01 216.206 211.969 216.711 211.831 217.193C211.693 217.675 211.46 218.124 211.146 218.515C210.833 218.906 210.444 219.23 210.003 219.469C209.562 219.708 209.079 219.857 208.58 219.907Z" fill="white"/>
</g>
<path d="M231.554 189.136H222.27C220.005 189.138 217.823 189.987 216.153 191.518C214.484 193.049 213.449 195.15 213.252 197.406L211.183 221.008H161.349L159.287 197.406C159.09 195.15 158.054 193.049 156.385 191.518C154.716 189.987 152.534 189.138 150.269 189.136H140.978C140.449 189.136 139.926 189.246 139.442 189.459C138.958 189.672 138.524 189.983 138.166 190.373C137.809 190.762 137.537 191.222 137.367 191.723C137.197 192.224 137.133 192.754 137.18 193.281L137.654 198.708C137.731 199.577 138.105 200.394 138.713 201.021C139.32 201.647 140.124 202.047 140.991 202.152L142.066 202.292C142.708 202.374 143.302 202.673 143.751 203.139C144.2 203.605 144.477 204.211 144.535 204.855L147.139 234.638C147.232 235.684 147.713 236.657 148.487 237.366C149.262 238.075 150.274 238.468 151.324 238.469H221.228C222.279 238.47 223.293 238.077 224.069 237.368C224.844 236.659 225.327 235.685 225.42 234.638L228.023 204.855C228.079 204.21 228.355 203.603 228.805 203.137C229.254 202.67 229.85 202.372 230.493 202.292L231.561 202.152C232.428 202.048 233.233 201.649 233.841 201.022C234.448 200.395 234.822 199.578 234.898 198.708L235.372 193.281C235.42 192.753 235.356 192.22 235.185 191.717C235.015 191.215 234.741 190.753 234.381 190.363C234.022 189.973 233.584 189.662 233.097 189.451C232.611 189.239 232.085 189.132 231.554 189.136Z" fill="#407BFF"/>
<path opacity="0.6" d="M231.554 189.136H222.27C220.005 189.138 217.823 189.987 216.153 191.518C214.484 193.049 213.449 195.15 213.252 197.406L211.183 221.008H161.349L159.287 197.406C159.09 195.15 158.054 193.049 156.385 191.518C154.716 189.987 152.534 189.138 150.269 189.136H140.978C140.449 189.136 139.926 189.246 139.442 189.459C138.958 189.672 138.524 189.983 138.166 190.373C137.809 190.762 137.537 191.222 137.367 191.723C137.197 192.224 137.133 192.754 137.18 193.281L137.654 198.708C137.731 199.577 138.105 200.394 138.713 201.021C139.32 201.647 140.124 202.047 140.991 202.152L142.066 202.292C142.708 202.374 143.302 202.673 143.751 203.139C144.2 203.605 144.477 204.211 144.535 204.855L147.139 234.638C147.232 235.684 147.713 236.657 148.487 237.366C149.262 238.075 150.274 238.468 151.324 238.469H221.228C222.279 238.47 223.293 238.077 224.069 237.368C224.844 236.659 225.327 235.685 225.42 234.638L228.023 204.855C228.079 204.21 228.355 203.603 228.805 203.137C229.254 202.67 229.85 202.372 230.493 202.292L231.561 202.152C232.428 202.048 233.233 201.649 233.841 201.022C234.448 200.395 234.822 199.578 234.898 198.708L235.372 193.281C235.42 192.753 235.356 192.22 235.185 191.717C235.015 191.215 234.741 190.753 234.381 190.363C234.022 189.973 233.584 189.662 233.097 189.451C232.611 189.239 232.085 189.132 231.554 189.136Z" fill="white"/>
<path d="M201.311 226.194L203.547 236.574L207.031 235.372L206.624 225.554L201.311 226.194Z" fill="#FFC3BD"/>
<path d="M168.638 182.621C171.975 182.656 175.3 182.222 178.517 181.333L181.801 188.228C181.801 188.228 202.352 184.544 204.969 190.898C207.205 196.298 207.298 229.612 207.298 229.612L201.578 230.279C201.578 230.279 195.31 206.03 195.337 198C195.339 197.858 195.301 197.719 195.227 197.598C195.153 197.477 195.047 197.379 194.92 197.315C194.793 197.252 194.651 197.226 194.51 197.239C194.369 197.253 194.234 197.306 194.122 197.393C190.965 199.849 182.561 205.162 169.839 204.341C167.87 204.214 165.568 203.787 166.155 197.359C166.716 192.406 167.545 187.486 168.638 182.621Z" fill="#407BFF"/>
<path opacity="0.1" d="M180.025 200.911C185.665 198.407 193.488 191.566 197.106 189.029C197.946 188.412 198.902 187.97 199.916 187.728C196.779 187.06 192.76 187.06 189.303 187.334L181.1 190.958L167.93 196.832L166.302 201.505C166.869 204.008 168.444 204.268 169.859 204.361C174.871 204.712 179.902 204.059 184.657 202.439C184.003 202.472 174.585 203.32 180.025 200.911Z" fill="black"/>
<path d="M219.319 207.178L226.368 214.3L229.104 212.144L223.671 203.974L219.319 207.178Z" fill="#FFC3BD"/>
<path d="M228.597 211.169L225.42 213.592C225.354 213.645 225.308 213.719 225.289 213.801C225.27 213.883 225.278 213.969 225.313 214.046L226.922 217.517C226.99 217.665 227.114 217.78 227.266 217.837C227.418 217.895 227.587 217.89 227.736 217.824C227.776 217.806 227.814 217.783 227.85 217.757C229.151 216.729 230.266 215.755 231.901 214.507C233.837 213.032 233.523 213.639 235.819 211.93C237.208 210.902 236.266 209.154 235.626 209.521C232.709 211.216 231.347 210.989 229.618 210.822C229.246 210.804 228.881 210.928 228.597 211.169Z" fill="#263238"/>
<path opacity="0.1" d="M170.767 187.648L174.278 188.489C174.278 188.489 180.846 183.382 177.782 185.071C175.546 186.313 174.445 183.736 173.984 182.274C172.589 182.468 171.368 182.555 170.447 182.595L170.767 187.648Z" fill="black"/>
<path d="M172.276 182.221C163.565 183.663 159.72 182.308 159.72 182.308C159.72 182.308 153.513 204.608 167.203 204.515C173.27 204.475 175.786 202.099 179.731 199.782C188.702 194.516 196.111 186.713 199.582 187.221C204.568 187.941 201.745 193.895 222.083 210.429L226.301 206.718C226.301 206.718 208.726 175.153 199.495 175.219C190.604 175.279 176.3 186.453 174.418 186.466C172.536 186.48 172.276 182.221 172.276 182.221Z" fill="#407BFF"/>
<path opacity="0.1" d="M202.359 188.489C203.506 188.919 204.443 189.775 204.975 190.878C205.318 191.838 205.555 192.831 205.683 193.842C206.257 194.67 206.938 195.597 207.739 196.612C207.205 189.924 202.359 188.489 202.359 188.489Z" fill="black"/>
<path d="M206.978 234.438L202.973 234.678C202.888 234.682 202.808 234.714 202.745 234.77C202.681 234.826 202.639 234.902 202.626 234.985L202.018 238.77C202.004 238.85 202.006 238.931 202.024 239.011C202.042 239.09 202.075 239.165 202.123 239.231C202.17 239.296 202.23 239.352 202.299 239.395C202.368 239.437 202.445 239.465 202.526 239.477C202.568 239.484 202.61 239.484 202.652 239.477C204.308 239.35 205.77 239.177 207.832 239.057C210.262 238.91 209.661 239.237 212.504 239.11C214.233 239.03 214.427 237.054 213.692 237.001C210.355 236.781 209.327 235.826 207.966 234.705C207.678 234.502 207.328 234.407 206.978 234.438Z" fill="#263238"/>
<path d="M171.248 152.625C172.376 152.191 174.245 152.939 175.867 155.836C177.489 158.732 184.39 170.68 182.428 172.216C180.466 173.751 176.708 169.399 175.326 166.275C173.944 163.151 169.272 153.393 171.248 152.625Z" fill="#263238"/>
<path opacity="0.4" d="M174.278 158.138L174.518 160.054L174.391 164.199C174.765 165.033 175.092 165.748 175.326 166.275C175.926 167.572 176.696 168.784 177.615 169.879C177.909 164.039 175.706 158.138 175.706 158.138H174.278Z" fill="black"/>
<path d="M159.293 182.735C159.293 182.735 171.355 184.17 179.051 181.641C179.051 181.641 176.708 178.69 176.381 172.783C176.08 166.989 178.543 160.034 172.743 152.986C172.63 152.848 172.486 152.739 172.322 152.67C172.158 152.6 171.979 152.571 171.802 152.585C168.751 152.799 154.547 153.92 154.341 156.437C154.1 159.627 160.308 166.435 159.293 182.735Z" fill="#263238"/>
<path d="M160.475 145.924C160.475 145.924 162.057 150.536 160.828 152.512C160.828 152.512 165.267 152.739 166.348 151.29C166.348 151.29 165.721 150.95 165.521 149.188C165.32 147.426 163.632 145.603 160.475 145.924Z" fill="#FFC3BD"/>
<path opacity="0.2" d="M165.534 149.188C165.354 147.559 163.885 145.85 161.155 145.89L160.969 146.057L160.775 146.411C160.775 146.411 162.45 150.91 165.814 150.416C165.67 150.02 165.576 149.607 165.534 149.188Z" fill="black"/>
<path d="M158.806 139.803C159.333 144.041 159.473 145.85 161.749 147.899C165.194 150.99 170.286 149.415 171.041 145.096C171.708 141.211 170.74 134.93 166.468 133.495C165.527 133.174 164.52 133.1 163.541 133.278C162.563 133.456 161.647 133.881 160.879 134.513C160.111 135.145 159.518 135.963 159.155 136.889C158.792 137.814 158.672 138.818 158.806 139.803Z" fill="#FFC3BD"/>
<path d="M168.204 142.3C168.563 143.071 169.026 143.789 169.579 144.435C169.412 144.573 169.216 144.673 169.007 144.727C168.797 144.781 168.577 144.789 168.364 144.749L168.204 142.3Z" fill="#ED893E"/>
<path d="M164.446 140.09L164.366 140.057C164.335 140.024 164.318 139.981 164.318 139.937C164.318 139.892 164.335 139.849 164.366 139.816C164.559 139.563 164.81 139.359 165.098 139.222C165.386 139.085 165.703 139.019 166.021 139.029C166.061 139.04 166.095 139.064 166.118 139.098C166.141 139.132 166.152 139.172 166.148 139.213C166.144 139.254 166.126 139.292 166.096 139.32C166.067 139.349 166.029 139.366 165.988 139.369C165.729 139.367 165.472 139.426 165.24 139.543C165.008 139.659 164.807 139.828 164.653 140.037C164.629 140.066 164.596 140.088 164.558 140.097C164.521 140.107 164.482 140.104 164.446 140.09Z" fill="#2E353A"/>
<path d="M170.741 139.416L170.66 139.383C170.456 139.22 170.215 139.107 169.959 139.055C169.703 139.003 169.437 139.012 169.185 139.082C169.165 139.091 169.143 139.095 169.12 139.095C169.098 139.095 169.076 139.091 169.055 139.082C169.035 139.073 169.016 139.061 169.001 139.045C168.985 139.029 168.973 139.01 168.965 138.989C168.957 138.968 168.953 138.945 168.954 138.923C168.955 138.9 168.961 138.878 168.971 138.858C168.981 138.838 168.995 138.82 169.012 138.806C169.03 138.792 169.05 138.781 169.072 138.775C169.377 138.685 169.698 138.669 170.011 138.729C170.323 138.788 170.617 138.92 170.867 139.116C170.885 139.128 170.901 139.144 170.913 139.163C170.924 139.182 170.932 139.202 170.936 139.224C170.94 139.246 170.939 139.268 170.934 139.29C170.929 139.311 170.92 139.331 170.907 139.349C170.889 139.376 170.864 139.397 170.834 139.41C170.805 139.423 170.772 139.427 170.741 139.423V139.416Z" fill="#2E353A"/>
<path d="M165.701 141.879C165.701 142.226 165.928 142.493 166.155 142.479C166.382 142.466 166.549 142.179 166.522 141.812C166.495 141.445 166.302 141.198 166.075 141.211C165.848 141.225 165.681 141.505 165.701 141.879Z" fill="#2E353A"/>
<path d="M169.626 141.632C169.626 141.979 169.846 142.246 170.073 142.233C170.3 142.219 170.46 141.932 170.44 141.565C170.42 141.198 170.22 140.951 169.993 140.964C169.766 140.978 169.599 141.285 169.626 141.632Z" fill="#2E353A"/>
<path d="M169.899 141.005L170.714 140.718C170.714 140.718 170.327 141.392 169.899 141.005Z" fill="#2E353A"/>
<path d="M165.974 141.251L166.795 140.958C166.795 140.958 166.402 141.638 165.974 141.251Z" fill="#2E353A"/>
<path d="M166.128 145.356C166.036 145.25 165.953 145.136 165.881 145.016C165.867 145 165.86 144.98 165.86 144.959C165.86 144.938 165.867 144.918 165.881 144.902C165.897 144.89 165.917 144.883 165.938 144.883C165.958 144.883 165.978 144.89 165.995 144.902C166.175 145.205 166.424 145.461 166.723 145.649C167.021 145.837 167.359 145.951 167.71 145.984C167.728 145.989 167.744 146 167.755 146.015C167.767 146.03 167.773 146.048 167.773 146.067C167.773 146.086 167.767 146.104 167.755 146.12C167.744 146.135 167.728 146.145 167.71 146.151C167.407 146.129 167.111 146.047 166.84 145.911C166.568 145.775 166.327 145.586 166.128 145.356Z" fill="#263238"/>
<path opacity="0.4" d="M160.762 167.537C160.094 164.52 157.805 159.32 157.805 159.32L156.143 158.859L155.328 159.981C156.777 163.585 159.333 169.325 159.4 178.804C162.604 178.703 166.148 174.185 166.148 174.185L164.333 170.18C162.31 171.181 161.409 170.58 160.762 167.537Z" fill="black"/>
<path d="M160.021 143.174C160.021 143.174 162.771 141.919 161.169 139.563C161.169 139.563 163.985 139.95 164.219 137.2C164.219 137.2 166.722 138.461 168.131 136.499C168.131 136.499 170.8 138.014 171.414 136.118C172.029 134.223 169.946 133.722 169.946 133.722C169.946 133.722 170.266 131.853 169.185 131.359C168.826 131.23 168.44 131.193 168.063 131.25C167.685 131.307 167.328 131.457 167.022 131.686C167.022 131.686 166.816 129.457 165.02 129.544C164.46 129.596 163.92 129.776 163.441 130.07C162.962 130.364 162.557 130.764 162.257 131.239C161.762 130.931 161.2 130.746 160.619 130.702C160.038 130.658 159.455 130.755 158.919 130.985C157.137 131.793 156.843 134.223 156.843 134.223C156.843 134.223 154.841 134.63 154.514 136.178C154.187 137.727 154.828 138.254 154.828 138.254C154.828 138.254 153.746 139.743 154.093 141.118C154.441 142.493 155.161 142.453 155.161 142.453C155.031 143.529 155.297 144.615 155.909 145.51C156.904 146.705 157.658 146.177 157.658 146.177C157.658 146.177 157.985 148.847 159.814 148.573C161.643 148.3 160.021 143.174 160.021 143.174Z" fill="#263238"/>
<path d="M158.005 143.234C158.292 144.009 158.876 144.638 159.627 144.983C160.628 145.436 161.289 144.582 161.149 143.554C161.029 142.633 160.355 141.278 159.287 141.258C158.912 141.265 158.555 141.42 158.294 141.689C158.033 141.957 157.888 142.318 157.892 142.693C157.893 142.879 157.932 143.063 158.005 143.234Z" fill="#FFC3BD"/>
<path d="M160.021 154L161.102 150.836C162.244 151.27 163.473 151.426 164.687 151.29C166.022 151.137 165.975 150.536 165.975 150.536L168.645 152.845L167.503 154.307L165.454 153.366L163.906 155.088L160.021 154Z" fill="#263238"/>
<path opacity="0.7" d="M160.021 154L161.102 150.836C162.244 151.27 163.473 151.426 164.687 151.29C166.022 151.137 165.975 150.536 165.975 150.536L168.645 152.845L167.503 154.307L165.454 153.366L163.906 155.088L160.021 154Z" fill="white"/>
<path d="M174.785 166.488H172.209C172.089 166.493 171.969 166.469 171.86 166.419C171.751 166.368 171.656 166.293 171.582 166.198C171.508 166.104 171.457 165.993 171.433 165.876C171.41 165.758 171.415 165.636 171.448 165.521L172.876 158.766C172.939 158.499 173.087 158.26 173.297 158.085C173.508 157.911 173.771 157.81 174.044 157.798H176.634C176.754 157.794 176.872 157.819 176.98 157.87C177.088 157.921 177.183 157.997 177.256 158.091C177.33 158.185 177.38 158.295 177.403 158.413C177.426 158.53 177.421 158.651 177.388 158.766L175.953 165.534C175.888 165.798 175.739 166.034 175.529 166.206C175.318 166.378 175.057 166.477 174.785 166.488Z" fill="#407BFF"/>
<path opacity="0.3" d="M174.785 166.488H172.209C172.089 166.493 171.969 166.469 171.86 166.419C171.751 166.368 171.656 166.293 171.582 166.198C171.508 166.104 171.457 165.993 171.433 165.876C171.41 165.758 171.415 165.636 171.448 165.521L172.876 158.766C172.939 158.499 173.087 158.26 173.297 158.085C173.508 157.911 173.771 157.81 174.044 157.798H176.634C176.754 157.794 176.872 157.819 176.98 157.87C177.088 157.921 177.183 157.997 177.256 158.091C177.33 158.185 177.38 158.295 177.403 158.413C177.426 158.53 177.421 158.651 177.388 158.766L175.953 165.534C175.888 165.798 175.739 166.034 175.529 166.206C175.318 166.378 175.057 166.477 174.785 166.488Z" fill="white"/>
<path d="M175.166 166.488H172.583C172.463 166.493 172.343 166.469 172.234 166.419C172.125 166.368 172.03 166.293 171.956 166.198C171.881 166.104 171.831 165.993 171.807 165.876C171.784 165.758 171.789 165.636 171.822 165.521L173.257 158.766C173.319 158.499 173.467 158.26 173.678 158.085C173.889 157.911 174.151 157.81 174.425 157.798H177.015C177.134 157.794 177.253 157.819 177.361 157.87C177.469 157.921 177.564 157.997 177.637 158.091C177.71 158.185 177.761 158.295 177.784 158.413C177.807 158.53 177.802 158.651 177.769 158.766L176.334 165.534C176.269 165.798 176.12 166.034 175.909 166.206C175.699 166.378 175.438 166.477 175.166 166.488Z" fill="#407BFF"/>
<path opacity="0.7" d="M175.166 166.488H172.583C172.463 166.493 172.343 166.469 172.234 166.419C172.125 166.368 172.03 166.293 171.956 166.198C171.881 166.104 171.831 165.993 171.807 165.876C171.784 165.758 171.789 165.636 171.822 165.521L173.257 158.766C173.319 158.499 173.467 158.26 173.678 158.085C173.889 157.911 174.151 157.81 174.425 157.798H177.015C177.134 157.794 177.253 157.819 177.361 157.87C177.469 157.921 177.564 157.997 177.637 158.091C177.71 158.185 177.761 158.295 177.784 158.413C177.807 158.53 177.802 158.651 177.769 158.766L176.334 165.534C176.269 165.798 176.12 166.034 175.909 166.206C175.699 166.378 175.438 166.477 175.166 166.488Z" fill="white"/>
<path d="M174.138 159.801H174.391C174.577 159.79 174.754 159.719 174.895 159.599C175.036 159.478 175.133 159.315 175.172 159.133L175.226 158.88C175.252 158.801 175.259 158.718 175.245 158.636C175.232 158.555 175.199 158.478 175.149 158.412C175.099 158.346 175.033 158.293 174.958 158.259C174.883 158.224 174.801 158.208 174.719 158.212H174.465C174.28 158.223 174.103 158.293 173.962 158.414C173.821 158.535 173.723 158.698 173.684 158.88L173.631 159.133C173.604 159.212 173.598 159.295 173.611 159.377C173.625 159.458 173.658 159.535 173.708 159.601C173.758 159.667 173.823 159.719 173.898 159.754C173.973 159.789 174.055 159.805 174.138 159.801Z" fill="#407BFF"/>
<path d="M174.76 158.64C174.745 158.715 174.705 158.782 174.647 158.83C174.588 158.879 174.515 158.907 174.439 158.908C174.405 158.911 174.371 158.905 174.34 158.891C174.309 158.878 174.282 158.857 174.261 158.831C174.24 158.804 174.226 158.773 174.219 158.74C174.213 158.707 174.215 158.672 174.225 158.64C174.243 158.566 174.285 158.5 174.344 158.452C174.403 158.404 174.477 158.376 174.553 158.372C174.586 158.371 174.619 158.377 174.649 158.391C174.679 158.405 174.705 158.426 174.726 158.452C174.746 158.479 174.76 158.509 174.766 158.542C174.772 158.575 174.77 158.608 174.76 158.64Z" fill="#263238"/>
<path d="M174.6 159.414C174.582 159.488 174.54 159.554 174.481 159.603C174.421 159.651 174.348 159.679 174.272 159.682C174.239 159.683 174.206 159.677 174.176 159.663C174.145 159.649 174.119 159.628 174.098 159.602C174.077 159.576 174.063 159.546 174.056 159.513C174.049 159.48 174.049 159.447 174.058 159.414C174.076 159.34 174.118 159.274 174.178 159.226C174.237 159.178 174.31 159.15 174.386 159.147C174.419 159.146 174.452 159.152 174.483 159.166C174.513 159.18 174.539 159.201 174.56 159.227C174.581 159.253 174.595 159.283 174.602 159.316C174.609 159.349 174.609 159.382 174.6 159.414Z" fill="#263238"/>
<path d="M182.007 169.292L178.383 166.495C178.383 166.495 176.968 163.412 175.987 163.024C175.725 162.947 175.446 162.951 175.187 163.037C174.928 163.123 174.702 163.287 174.538 163.505C173.964 164.213 173.904 166.449 174.485 167.156C175.066 167.864 176.834 168.331 176.834 168.331L180.225 171.862L182.007 169.292Z" fill="#FFC3BD"/>
<path d="M182.889 172.396C181.2 173.984 179.504 172.035 177.776 170.073C178.317 169.814 178.796 169.441 179.181 168.981C179.566 168.52 179.847 167.982 180.005 167.403C180.005 167.403 185.111 170.313 182.889 172.396Z" fill="#263238"/>
<path opacity="0.7" d="M177.782 170.073L178.283 170.64C179.397 170.025 180.235 169.008 180.626 167.797C180.265 167.55 180.012 167.41 180.012 167.41C179.852 167.987 179.571 168.524 179.186 168.983C178.802 169.443 178.323 169.814 177.782 170.073Z" fill="white"/>
<path d="M166.348 169.292L169.973 166.495C169.973 166.495 171.388 163.412 172.369 163.024C172.631 162.947 172.91 162.951 173.169 163.037C173.428 163.123 173.654 163.287 173.817 163.505C174.391 164.213 174.451 166.449 173.871 167.156C173.29 167.864 171.521 168.331 171.521 168.331L168.13 171.862L166.348 169.292Z" fill="#FFC3BD"/>
<path d="M153.359 165.881C152.779 163.578 152.131 157.811 154.361 155.976C156.59 154.14 157.872 159.16 158.753 163.024C159.634 166.889 160.088 172.069 162.057 171.268C163.836 170.378 165.535 169.338 167.136 168.157L169.399 171.348C169.399 171.348 162.49 179.311 159.453 176.961C156.416 174.612 154.1 168.798 153.359 165.881Z" fill="#263238"/>
<path opacity="0.7" d="M166.295 168.758L168.618 172.195C169.105 171.688 169.399 171.348 169.399 171.348L167.136 168.157C167.136 168.157 166.802 168.404 166.295 168.758Z" fill="white"/>
</svg>
