<svg width="345" height="255" viewBox="0 0 345 255" fill="none" xmlns="http://www.w3.org/2000/svg">
<path d="M310.431 237.008H287.578V237.18H310.431V237.008Z" fill="#EBEBEB"/>
<path d="M228.542 238.885H222.546V239.057H228.542V238.885Z" fill="#EBEBEB"/>
<path d="M286.888 230.605H273.647V230.777H286.888V230.605Z" fill="#EBEBEB"/>
<path d="M65.9986 231.764H36.1975V231.937H65.9986V231.764Z" fill="#EBEBEB"/>
<path d="M76.5141 231.764H72.1464V231.937H76.5141V231.764Z" fill="#EBEBEB"/>
<path d="M155.354 234.676H90.7143V234.848H155.354V234.676Z" fill="#EBEBEB"/>
<path d="M163.53 195.132H30.3048C29.2599 195.132 28.2578 194.717 27.5189 193.978C26.78 193.239 26.3649 192.237 26.3649 191.192V3.9054C26.374 2.86646 26.7931 1.87318 27.531 1.14175C28.2689 0.410317 29.2659 -3.98309e-05 30.3048 2.89976e-09H163.53C164.575 2.89977e-09 165.577 0.415096 166.316 1.15397C167.055 1.89284 167.47 2.89497 167.47 3.9399V191.192C167.47 192.237 167.055 193.239 166.316 193.978C165.577 194.717 164.575 195.132 163.53 195.132ZM30.3048 0.138001C29.3062 0.139824 28.349 0.537331 27.6429 1.24346C26.9368 1.94959 26.5393 2.90678 26.5374 3.9054V191.192C26.5393 192.191 26.9368 193.148 27.6429 193.854C28.349 194.56 29.3062 194.958 30.3048 194.96H163.53C164.529 194.958 165.486 194.56 166.192 193.854C166.898 193.148 167.296 192.191 167.297 191.192V3.9054C167.296 2.90678 166.898 1.94959 166.192 1.24346C165.486 0.537331 164.529 0.139824 163.53 0.138001H30.3048Z" fill="#EBEBEB"/>
<path d="M312.784 195.132H179.545C178.501 195.13 177.499 194.715 176.761 193.976C176.022 193.238 175.607 192.236 175.605 191.192V3.9054C175.616 2.86703 176.036 1.87478 176.773 1.14374C177.511 0.412695 178.506 0.00175832 179.545 0H312.784C313.82 0.0035911 314.814 0.415552 315.549 1.14659C316.284 1.87763 316.701 2.86885 316.71 3.9054V191.192C316.71 192.235 316.297 193.235 315.561 193.973C314.825 194.712 313.826 195.128 312.784 195.132ZM179.545 0.138001C178.546 0.139824 177.589 0.537331 176.883 1.24346C176.177 1.94959 175.779 2.90678 175.777 3.9054V191.192C175.779 192.191 176.177 193.148 176.883 193.854C177.589 194.56 178.546 194.958 179.545 194.96H312.784C313.783 194.958 314.74 194.56 315.446 193.854C316.152 193.148 316.549 192.191 316.551 191.192V3.9054C316.549 2.90678 316.152 1.94959 315.446 1.24346C314.74 0.537331 313.783 0.139824 312.784 0.138001H179.545Z" fill="#EBEBEB"/>
<path d="M345 225.906H0V226.078H345V225.906Z" fill="#EBEBEB"/>
<path d="M176.088 155.823C175.294 155.825 174.516 155.592 173.854 155.153C173.192 154.714 172.675 154.088 172.369 153.355C172.063 152.622 171.981 151.814 172.134 151.034C172.286 150.255 172.667 149.538 173.227 148.975C173.788 148.411 174.503 148.027 175.282 147.87C176.06 147.713 176.868 147.791 177.603 148.093C178.338 148.396 178.966 148.91 179.409 149.569C179.852 150.229 180.089 151.005 180.09 151.8C180.09 152.863 179.669 153.883 178.919 154.637C178.169 155.391 177.151 155.817 176.088 155.823ZM176.088 149.861C175.702 149.858 175.325 149.97 175.003 150.183C174.681 150.395 174.429 150.698 174.28 151.054C174.131 151.41 174.091 151.802 174.165 152.18C174.239 152.559 174.424 152.907 174.696 153.18C174.968 153.453 175.316 153.64 175.694 153.715C176.072 153.79 176.464 153.752 176.821 153.604C177.177 153.456 177.481 153.205 177.695 152.884C177.908 152.563 178.021 152.186 178.02 151.8C178.017 151.288 177.812 150.798 177.451 150.435C177.089 150.073 176.6 149.866 176.088 149.861Z" fill="#263238"/>
<path d="M178.871 153.241L177.406 154.704L182.16 159.464L183.625 158.002L178.871 153.241Z" fill="#263238"/>
<path d="M307.481 37.1873C309.312 25.9102 301.654 15.2844 290.377 13.4539C279.1 11.6233 268.474 19.2813 266.643 30.5584C264.813 41.8354 272.471 52.4612 283.748 54.2918C295.025 56.1223 305.651 48.4644 307.481 37.1873Z" fill="#E0E0E0"/>
<path d="M287.109 55.0137C281.565 54.9136 276.282 52.6411 272.397 48.6852C268.512 44.7294 266.335 39.4064 266.335 33.8618C266.335 28.3172 268.512 22.9942 272.397 19.0384C276.282 15.0825 281.565 12.81 287.109 12.7098V13.6413C281.811 13.7392 276.763 15.9126 273.05 19.694C269.338 23.4754 267.258 28.5628 267.258 33.8618C267.258 39.1608 269.338 44.2482 273.05 48.0296C276.763 51.811 281.811 53.9844 287.109 54.0822V55.0137Z" fill="white"/>
<path d="M287.109 55.0138V54.0823C289.796 54.1319 292.466 53.6456 294.962 52.6517C297.459 51.6578 299.733 50.1763 301.65 48.2937C303.568 46.4112 305.091 44.1653 306.131 41.6874C307.171 39.2094 307.706 36.5491 307.706 33.8618C307.706 31.1745 307.171 28.5142 306.131 26.0363C305.091 23.5583 303.568 21.3125 301.65 19.4299C299.733 17.5473 297.459 16.0658 294.962 15.072C292.466 14.0781 289.796 13.5917 287.109 13.6414V12.7099C289.919 12.6591 292.711 13.1687 295.321 14.2089C297.932 15.2491 300.309 16.7991 302.314 18.7682C304.32 20.7374 305.912 23.0863 306.999 25.6778C308.087 28.2693 308.646 31.0515 308.646 33.8618C308.646 36.6721 308.087 39.4543 306.999 42.0458C305.912 44.6373 304.32 46.9862 302.314 48.9554C300.309 50.9246 297.932 52.4745 295.321 53.5147C292.711 54.5549 289.919 55.0645 287.109 55.0138Z" fill="white"/>
<path d="M297.921 33.8653H296.99C296.99 27.0136 293.54 17.8366 286.861 13.5724L287.364 12.7858C294.292 17.2501 297.921 26.7583 297.921 33.8653Z" fill="white"/>
<path d="M287.364 54.3169L286.861 53.5303C293.512 49.2661 296.99 40.0891 296.99 33.2374H297.921C297.921 40.3444 294.292 49.8664 287.364 54.3169Z" fill="white"/>
<path d="M277.235 33.8653H276.304C276.304 26.7514 279.926 17.2294 286.861 12.7858L287.364 13.5655C280.713 17.8366 277.235 27.0067 277.235 33.8653Z" fill="white"/>
<path d="M286.861 54.3097C279.926 49.8592 276.304 40.3372 276.304 33.2302H277.235C277.235 40.0888 280.685 49.2589 287.364 53.5231L286.861 54.3097Z" fill="white"/>
<path d="M287.578 13.172H286.647V54.5444H287.578V13.172Z" fill="white"/>
<path d="M304.628 22.3767H269.604V23.3082H304.628V22.3767Z" fill="white"/>
<path d="M307.795 33.7479H266.437V34.6794H307.795V33.7479Z" fill="white"/>
<path d="M304.159 45.1121H270.066V46.0436H304.159V45.1121Z" fill="white"/>
<path d="M65.9571 26.22C65.9646 24.8172 65.7599 23.4215 65.3499 22.08L68.9586 18.9129L66.6885 14.9799L62.1414 16.56C60.2316 14.5069 57.756 13.0662 55.0275 12.42L54.0822 7.72107H49.5489L48.6105 12.42C45.88 13.0661 43.4022 14.5068 41.4897 16.56L36.9426 15.0213L34.6794 18.9543L38.2812 22.1214C37.4717 24.8009 37.4717 27.6598 38.2812 30.3393L34.6794 33.4995L36.9426 37.4325L41.4897 35.88C43.4022 37.9332 45.88 39.3738 48.6105 40.02L49.5489 44.7258H54.0822L55.0275 40.02C57.756 39.3737 60.2316 37.933 62.1414 35.88L66.6885 37.4187L68.9586 33.4857L65.3499 30.36C65.7588 29.0182 65.9635 27.6226 65.9571 26.22ZM51.819 33.8652C50.364 33.8665 48.9412 33.4363 47.7307 32.6289C46.5202 31.8215 45.5764 30.6732 45.0186 29.3293C44.4608 27.9854 44.3142 26.5063 44.5972 25.079C44.8802 23.6518 45.5802 22.3405 46.6086 21.3112C47.637 20.2818 48.9476 19.5806 50.3746 19.2962C51.8016 19.0118 53.2809 19.1571 54.6253 19.7136C55.9697 20.2701 57.1189 21.2129 57.9274 22.4226C58.736 23.6323 59.1675 25.0547 59.1675 26.5098C59.1684 27.4754 58.979 28.4317 58.6101 29.324C58.2412 30.2164 57.7001 31.0273 57.0176 31.7104C56.3352 32.3935 55.5248 32.9354 54.6328 33.3051C53.7407 33.6749 52.7846 33.8652 51.819 33.8652Z" fill="#E0E0E0"/>
<path d="M85.4152 45.7744C85.4141 44.7156 85.2584 43.6626 84.9529 42.6487L87.7129 40.2337L85.9879 37.246L82.5379 38.419C81.0829 36.8609 79.1976 35.7705 77.1214 35.2864L76.4314 31.7053H72.9814L72.2914 35.2864C70.2132 35.7704 68.3256 36.8607 66.868 38.419L63.418 37.246L61.6861 40.2337L64.4461 42.6487C63.8296 44.6893 63.8296 46.8665 64.4461 48.907L61.6861 51.3151L63.418 54.3097L66.868 53.1367C68.3256 54.6951 70.2132 55.7854 72.2914 56.2693L72.9814 59.8504H76.4314L77.1214 56.2693C79.1976 55.7853 81.0829 54.6949 82.5379 53.1367L85.9879 54.3097L87.7129 51.3151L84.9529 48.907C85.2583 47.8908 85.4141 46.8355 85.4152 45.7744ZM74.6443 51.5911C73.5356 51.5925 72.4514 51.2649 71.529 50.6498C70.6065 50.0346 69.8873 49.1597 69.4624 48.1356C69.0375 47.1116 68.926 45.9844 69.1419 44.897C69.3579 43.8095 69.8916 42.8105 70.6756 42.0266C71.4596 41.2426 72.4586 40.7088 73.546 40.4928C74.6335 40.2769 75.7606 40.3884 76.7847 40.8133C77.8087 41.2383 78.6837 41.9575 79.2988 42.8799C79.9139 43.8023 80.2416 44.8865 80.2402 45.9952C80.2402 47.4794 79.6506 48.9027 78.6012 49.9521C77.5518 51.0016 76.1284 51.5911 74.6443 51.5911Z" fill="#E0E0E0"/>
<path d="M137.041 27.9866L138.869 24.2675L140.705 27.9797L144.803 28.5731L141.836 31.4642L142.54 35.5421L138.876 33.617L135.219 35.549L135.916 31.4711L132.949 28.58L137.041 27.9866Z" fill="#EBEBEB"/>
<path d="M153.718 27.9866L155.547 24.2675L157.382 27.9797L161.474 28.5731L158.514 31.4642L159.218 35.5421L155.554 33.617L151.89 35.549L152.587 31.4711L149.62 28.58L153.718 27.9866Z" fill="#EBEBEB"/>
<path d="M170.389 27.9866L172.217 24.2675L174.053 27.9797L178.151 28.5731L175.191 31.4642L175.895 35.5421L172.231 33.617L168.567 35.549L169.264 31.4711L166.297 28.58L170.389 27.9866Z" fill="#EBEBEB"/>
<path d="M187.066 27.9866L188.894 24.2675L190.73 27.9797L194.828 28.5731L191.861 31.4642L192.565 35.5421L188.901 33.617L185.244 35.549L185.941 31.4711L182.974 28.58L187.066 27.9866Z" fill="#EBEBEB"/>
<path d="M203.743 27.9866L205.572 24.2675L207.407 27.9797L211.499 28.5731L208.539 31.4642L209.243 35.5421L205.579 33.617L201.915 35.549L202.612 31.4711L199.645 28.58L203.743 27.9866Z" fill="#EBEBEB"/>
<path d="M169.174 254.41C243.061 254.41 302.958 250.913 302.958 246.599C302.958 242.285 243.061 238.788 169.174 238.788C95.2872 238.788 35.3901 242.285 35.3901 246.599C35.3901 250.913 95.2872 254.41 169.174 254.41Z" fill="#F5F5F5"/>
<path d="M123.965 239.727L123.827 241.314C123.813 241.509 123.834 241.706 123.89 241.893C123.915 241.981 123.952 242.064 124 242.142C124.051 242.219 124.106 242.292 124.166 242.363C124.226 242.433 124.296 242.496 124.373 242.549C124.606 242.715 124.886 242.804 125.173 242.804H182.029C182.165 242.804 182.3 242.783 182.429 242.742C182.519 242.715 182.607 242.68 182.691 242.639C182.992 242.492 183.234 242.249 183.381 241.949C183.469 241.781 183.523 241.598 183.54 241.41L183.671 239.885C183.693 239.704 183.671 239.519 183.609 239.347C183.583 239.268 183.548 239.191 183.506 239.12C183.398 238.939 183.246 238.789 183.064 238.685C182.986 238.642 182.905 238.606 182.822 238.574C182.695 238.533 182.563 238.512 182.429 238.512H168.27C168.092 238.514 167.914 238.498 167.739 238.464L167.539 238.409C167.463 238.387 167.389 238.36 167.318 238.326C167.249 238.304 167.184 238.272 167.125 238.229C167.026 238.178 166.931 238.118 166.842 238.05C166.735 237.965 166.636 237.87 166.545 237.767C166.497 237.705 166.449 237.65 166.4 237.581L166.304 237.443L166.269 237.388C166.228 237.325 166.193 237.258 166.166 237.188L166.083 237.001C166.086 236.988 166.086 236.974 166.083 236.96C166.087 236.944 166.087 236.927 166.083 236.912C166.063 236.858 166.049 236.803 166.042 236.746C166.034 236.668 166.034 236.589 166.042 236.511C166.042 236.442 166.042 236.366 166.042 236.291C166.042 236.215 166.042 236.146 166.042 236.07V235.98C166.038 235.907 166.038 235.833 166.042 235.759C166.042 235.676 166.076 235.607 166.09 235.532L171.651 214.197L172.721 210.098L173.556 206.89H141.264L139.532 210.098L137.324 214.197L124.766 237.477C124.724 237.56 124.683 237.643 124.635 237.726L124.511 238.009C124.476 238.105 124.435 238.195 124.4 238.298L124.338 238.492C124.169 238.888 124.044 239.303 123.965 239.727Z" fill="#263238"/>
<path opacity="0.2" d="M183.65 239.899L183.519 241.438C183.484 241.811 183.312 242.158 183.037 242.412C182.762 242.667 182.403 242.811 182.029 242.818H125.187C124.996 242.819 124.807 242.78 124.632 242.704C124.457 242.627 124.299 242.516 124.17 242.376C124.04 242.236 123.941 242.07 123.878 241.89C123.816 241.709 123.791 241.518 123.807 241.328L123.945 239.741C123.981 239.316 124.064 238.898 124.193 238.492C124.31 238.137 124.458 237.793 124.635 237.464L141.14 206.876H173.432L165.966 235.518C165.916 235.682 165.886 235.851 165.876 236.022C165.829 236.587 165.99 237.151 166.329 237.606C166.669 238.061 167.163 238.376 167.718 238.492C167.892 238.532 168.071 238.551 168.25 238.547H182.388C182.563 238.542 182.736 238.575 182.898 238.642C183.059 238.71 183.204 238.811 183.324 238.939C183.443 239.067 183.534 239.218 183.59 239.384C183.647 239.55 183.667 239.725 183.65 239.899Z" fill="white"/>
<path d="M122.82 237.45L139.318 206.855H141.146L124.642 237.45C124.259 238.154 124.024 238.929 123.952 239.727L123.814 241.314C123.793 241.505 123.813 241.698 123.874 241.881C123.934 242.063 124.033 242.23 124.164 242.371C124.295 242.512 124.455 242.623 124.632 242.696C124.81 242.77 125.001 242.804 125.194 242.797H123.365C123.173 242.804 122.982 242.77 122.804 242.696C122.626 242.623 122.466 242.512 122.336 242.371C122.205 242.23 122.106 242.063 122.045 241.881C121.985 241.698 121.964 241.505 121.985 241.314L122.123 239.727C122.195 238.928 122.432 238.152 122.82 237.45Z" fill="#263238"/>
<path opacity="0.3" d="M141.16 206.855H173.445L171.541 214.169H137.213L141.16 206.855Z" fill="black"/>
<path d="M86.3743 105.487V205.033C86.3734 205.695 86.5028 206.349 86.7552 206.96C87.0076 207.572 87.3779 208.127 87.8451 208.595C88.3123 209.062 88.8671 209.434 89.4778 209.687C90.0886 209.94 90.7432 210.07 91.4044 210.07H229.177C229.838 210.07 230.492 209.94 231.103 209.687C231.714 209.434 232.269 209.062 232.736 208.595C233.203 208.127 233.573 207.572 233.826 206.96C234.078 206.349 234.208 205.695 234.207 205.033V105.487C234.208 104.825 234.078 104.17 233.825 103.558C233.572 102.947 233.201 102.391 232.734 101.923C232.266 101.455 231.71 101.084 231.098 100.832C230.487 100.579 229.831 100.449 229.17 100.45H91.4182C90.3102 100.451 89.2334 100.817 88.3546 101.492C88.2311 101.583 88.1136 101.682 88.0027 101.789C87.6632 102.097 87.3704 102.452 87.1333 102.844C86.9667 103.103 86.8279 103.378 86.7193 103.665C86.495 104.247 86.3781 104.864 86.3743 105.487Z" fill="#263238"/>
<path d="M234.207 194.27V205.034C234.207 206.369 233.676 207.651 232.731 208.595C231.787 209.54 230.506 210.071 229.17 210.071H91.4181C90.0822 210.071 88.801 209.54 87.8564 208.595C86.9118 207.651 86.3811 206.369 86.3811 205.034V194.27H234.207Z" fill="#407BFF"/>
<path opacity="0.6" d="M234.207 194.27V205.034C234.207 206.369 233.676 207.651 232.731 208.595C231.787 209.54 230.506 210.071 229.17 210.071H91.4181C90.0822 210.071 88.801 209.54 87.8564 208.595C86.9118 207.651 86.3811 206.369 86.3811 205.034V194.27H234.207Z" fill="white"/>
<path d="M91.5079 191.227H229.08C229.812 191.227 230.514 190.936 231.032 190.418C231.549 189.901 231.84 189.199 231.84 188.467V106.26C231.84 105.528 231.549 104.826 231.032 104.309C230.514 103.791 229.812 103.5 229.08 103.5H91.5079C90.7759 103.5 90.0739 103.791 89.5563 104.309C89.0387 104.826 88.7479 105.528 88.7479 106.26V188.494C88.7551 189.222 89.0491 189.916 89.5659 190.428C90.0828 190.94 90.7806 191.227 91.5079 191.227Z" fill="#407BFF"/>
<path d="M88.3683 100.45H91.4181C90.0822 100.45 88.801 100.981 87.8564 101.925C86.9118 102.87 86.3811 104.151 86.3811 105.487V205.033C86.3811 206.369 86.9118 207.65 87.8564 208.595C88.801 209.54 90.0822 210.07 91.4181 210.07H88.3683C87.0324 210.07 85.7512 209.54 84.8066 208.595C83.862 207.65 83.3313 206.369 83.3313 205.033V105.487C83.3313 104.151 83.862 102.87 84.8066 101.925C85.7512 100.981 87.0324 100.45 88.3683 100.45Z" fill="#263238"/>
<g opacity="0.2">
<path opacity="0.2" d="M88.3683 100.45H91.4181C90.0822 100.45 88.801 100.981 87.8564 101.925C86.9118 102.87 86.3811 104.151 86.3811 105.487V205.033C86.3811 206.369 86.9118 207.65 87.8564 208.595C88.801 209.54 90.0822 210.07 91.4181 210.07H88.3683C87.0324 210.07 85.7512 209.54 84.8066 208.595C83.862 207.65 83.3313 206.369 83.3313 205.033V105.487C83.3313 104.151 83.862 102.87 84.8066 101.925C85.7512 100.981 87.0324 100.45 88.3683 100.45Z" fill="white"/>
</g>
<path opacity="0.5" d="M232.654 155.885C229.108 155.195 223.491 157.493 222.442 160.943C222.56 159.889 222.372 158.824 221.901 157.875C221.43 156.925 220.696 156.132 219.786 155.588C217.957 154.533 215.563 153.787 213.879 155.057C214.677 151.666 214.515 148.12 213.411 144.816C212.307 141.512 210.304 138.581 207.628 136.351C202.232 131.983 194.359 131.521 188.128 134.564C189.029 132.834 189.54 130.928 189.625 128.979C189.71 127.03 189.368 125.087 188.623 123.284C187.877 121.482 186.746 119.865 185.309 118.546C183.872 117.228 182.163 116.239 180.304 115.651C171.637 112.633 162.37 111.755 153.29 113.091C148.039 113.864 142.685 115.506 138.869 119.191C135.054 122.875 134.039 129.541 136.606 134.184C133.644 133.228 130.477 133.101 127.448 133.817C124.419 134.534 121.644 136.066 119.425 138.249C117.285 140.484 115.804 143.265 115.143 146.288C114.482 149.311 114.667 152.457 115.678 155.381C114.864 154.898 113.942 154.626 112.997 154.59C112.051 154.554 111.111 154.755 110.262 155.174C109.426 155.598 108.712 156.228 108.187 157.004C107.662 157.78 107.343 158.677 107.26 159.611C106.157 158.155 104.72 156.985 103.071 156.2C101.421 155.415 99.6068 155.037 97.7809 155.1C95.955 155.162 94.1708 155.662 92.5784 156.557C90.986 157.453 89.6321 158.718 88.6305 160.246V191.227H231.84L232.654 155.885Z" fill="white"/>
<path d="M200.742 142.285H126.967C123.213 142.285 120.17 145.328 120.17 149.081C120.17 152.835 123.213 155.878 126.967 155.878H200.742C204.495 155.878 207.538 152.835 207.538 149.081C207.538 145.328 204.495 142.285 200.742 142.285Z" fill="white"/>
<path d="M126.546 151.683C125.752 151.683 124.975 151.447 124.315 151.006C123.655 150.565 123.14 149.937 122.836 149.204C122.532 148.47 122.453 147.662 122.607 146.883C122.762 146.104 123.145 145.389 123.707 144.827C124.268 144.266 124.984 143.883 125.763 143.728C126.542 143.573 127.349 143.653 128.083 143.957C128.817 144.261 129.444 144.775 129.885 145.436C130.326 146.096 130.562 146.873 130.562 147.667C130.56 148.731 130.136 149.752 129.384 150.505C128.631 151.257 127.611 151.681 126.546 151.683ZM126.546 145.721C126.161 145.721 125.785 145.835 125.465 146.049C125.145 146.263 124.896 146.567 124.748 146.922C124.601 147.278 124.563 147.669 124.638 148.047C124.713 148.424 124.898 148.771 125.17 149.043C125.442 149.315 125.789 149.5 126.166 149.575C126.544 149.65 126.935 149.612 127.291 149.465C127.646 149.317 127.95 149.068 128.164 148.748C128.378 148.428 128.492 148.052 128.492 147.667C128.49 147.151 128.284 146.658 127.92 146.293C127.555 145.929 127.062 145.723 126.546 145.721Z" fill="#263238"/>
<path d="M129.325 149.094L127.861 150.557L132.615 155.317L134.079 153.854L129.325 149.094Z" fill="#263238"/>
<g opacity="0.1">
<path opacity="0.1" d="M185.244 103.493H190.53L201.508 191.227H196.215L185.244 103.493Z" fill="white"/>
<path opacity="0.1" d="M206.855 191.227L195.884 103.493H215.763L226.734 191.227H206.855Z" fill="white"/>
</g>
<path opacity="0.2" d="M133.77 239.913L133.646 241.369C133.625 241.551 133.644 241.736 133.7 241.911C133.757 242.085 133.85 242.246 133.973 242.382C134.097 242.518 134.248 242.626 134.416 242.698C134.585 242.771 134.767 242.807 134.95 242.804H182.029C182.403 242.797 182.762 242.653 183.037 242.398C183.312 242.144 183.484 241.797 183.519 241.424L183.65 239.899C183.672 239.724 183.656 239.546 183.603 239.377C183.55 239.209 183.461 239.054 183.342 238.923C183.224 238.792 183.078 238.688 182.916 238.618C182.754 238.549 182.578 238.515 182.401 238.519H168.263C168.087 238.52 167.911 238.499 167.739 238.457H135.309C134.919 238.471 134.548 238.626 134.264 238.894C133.981 239.162 133.805 239.525 133.77 239.913Z" fill="white"/>
<path opacity="0.2" d="M124.2 238.478H167.739C167.182 238.365 166.687 238.05 166.349 237.594C166.01 237.138 165.851 236.573 165.904 236.008H125.58L124.2 238.478Z" fill="black"/>
<path d="M146.466 134.129L147.419 132.011C148.598 132.826 149.994 133.268 151.427 133.28C153.09 133.28 153.767 132.721 153.767 131.976C153.767 129.706 146.708 131.286 146.708 126.76C146.708 124.69 148.371 122.979 151.821 122.979C153.298 122.948 154.755 123.32 156.037 124.055L155.167 126.187C154.147 125.583 152.986 125.255 151.8 125.235C150.137 125.235 149.495 125.856 149.495 126.615C149.495 128.851 156.554 127.305 156.554 131.762C156.554 133.791 154.871 135.53 151.4 135.53C149.651 135.573 147.931 135.085 146.466 134.129Z" fill="#263238"/>
<path d="M167.884 133.073V135.323H158.486V123.186H167.67V125.442H161.288V128.078H166.925V130.265H161.288V133.073H167.884Z" fill="#263238"/>
<path d="M169.326 129.258C169.326 125.649 172.134 122.979 175.964 122.979C179.793 122.979 182.609 125.635 182.609 129.258C182.609 132.88 179.78 135.537 175.964 135.537C172.148 135.537 169.326 132.866 169.326 129.258ZM179.766 129.258C179.744 128.511 179.503 127.788 179.073 127.178C178.643 126.568 178.043 126.097 177.347 125.826C176.652 125.555 175.892 125.494 175.162 125.652C174.432 125.81 173.765 126.179 173.244 126.714C172.723 127.248 172.37 127.924 172.231 128.658C172.091 129.391 172.171 130.149 172.459 130.838C172.748 131.526 173.233 132.115 173.854 132.529C174.474 132.944 175.204 133.167 175.95 133.17C176.464 133.186 176.975 133.095 177.452 132.903C177.929 132.711 178.36 132.421 178.719 132.054C179.078 131.686 179.356 131.247 179.536 130.766C179.717 130.284 179.795 129.771 179.766 129.258Z" fill="#263238"/>
<path opacity="0.8" d="M160.232 164.8H131.114C129.647 164.8 128.457 165.989 128.457 167.456V173.611C128.457 175.078 129.647 176.267 131.114 176.267H160.232C161.699 176.267 162.888 175.078 162.888 173.611V167.456C162.888 165.989 161.699 164.8 160.232 164.8Z" fill="white"/>
<path opacity="0.8" d="M202.46 164.8H173.342C171.875 164.8 170.685 165.989 170.685 167.456V173.611C170.685 175.078 171.875 176.267 173.342 176.267H202.46C203.927 176.267 205.116 175.078 205.116 173.611V167.456C205.116 165.989 203.927 164.8 202.46 164.8Z" fill="white"/>
<path d="M144.845 107.405L161.95 77.0452C162.01 76.939 162.097 76.8507 162.203 76.7893C162.308 76.7278 162.428 76.6954 162.55 76.6954C162.672 76.6954 162.792 76.7278 162.897 76.7893C163.003 76.8507 163.09 76.939 163.15 77.0452L180.255 107.405C180.313 107.51 180.342 107.628 180.34 107.747C180.338 107.866 180.306 107.983 180.245 108.086C180.185 108.189 180.098 108.274 179.995 108.334C179.892 108.394 179.775 108.426 179.655 108.426H145.452C145.332 108.427 145.214 108.396 145.11 108.337C145.005 108.278 144.918 108.192 144.857 108.089C144.796 107.986 144.762 107.869 144.76 107.749C144.758 107.629 144.787 107.51 144.845 107.405Z" fill="#407BFF"/>
<path opacity="0.3" d="M144.845 107.405L161.95 77.0452C162.01 76.939 162.097 76.8507 162.203 76.7893C162.308 76.7278 162.428 76.6954 162.55 76.6954C162.672 76.6954 162.792 76.7278 162.897 76.7893C163.003 76.8507 163.09 76.939 163.15 77.0452L180.255 107.405C180.313 107.51 180.342 107.628 180.34 107.747C180.338 107.866 180.306 107.983 180.245 108.086C180.185 108.189 180.098 108.274 179.995 108.334C179.892 108.394 179.775 108.426 179.655 108.426H145.452C145.332 108.427 145.214 108.396 145.11 108.337C145.005 108.278 144.918 108.192 144.857 108.089C144.796 107.986 144.762 107.869 144.76 107.749C144.758 107.629 144.787 107.51 144.845 107.405Z" fill="black"/>
<path d="M154.422 112.974L153.587 109.565H150.593L149.765 112.974C151.256 113.591 152.931 113.591 154.422 112.974Z" fill="#263238"/>
<path opacity="0.2" d="M150.592 109.565L150.399 110.359C151.503 110.683 152.677 110.683 153.78 110.359L153.587 109.565H150.592Z" fill="white"/>
<path opacity="0.4" d="M150.192 111.214C150.137 111.435 150.082 111.649 150.034 111.856C151.381 112.28 152.826 112.28 154.174 111.856L154.022 111.214C152.758 111.47 151.456 111.47 150.192 111.214Z" fill="white"/>
<path d="M155.25 109.324C153.226 110.159 150.954 110.159 148.93 109.324V84.0007C148.928 82.5832 149.206 81.1792 149.748 79.8696C150.29 78.5599 151.086 77.3703 152.09 76.3693C153.093 77.3703 153.889 78.5599 154.432 79.8696C154.974 81.1792 155.252 82.5832 155.25 84.0007V109.324Z" fill="#407BFF"/>
<path d="M148.93 84.0007V107.868C150.976 108.582 153.204 108.582 155.25 107.868V84.0007C155.252 82.5832 154.974 81.1792 154.432 79.8696C153.889 78.5599 153.093 77.3703 152.09 76.3693C151.086 77.3703 150.29 78.5599 149.748 79.8696C149.206 81.1792 148.928 82.5832 148.93 84.0007Z" fill="#407BFF"/>
<path opacity="0.4" d="M148.93 84.0007V107.868C150.976 108.582 153.204 108.582 155.25 107.868V84.0007C155.252 82.5832 154.974 81.1792 154.432 79.8696C153.889 78.5599 153.093 77.3703 152.09 76.3693C151.086 77.3703 150.29 78.5599 149.748 79.8696C149.206 81.1792 148.928 82.5832 148.93 84.0007Z" fill="white"/>
<path d="M148.93 84.0007V101.941C150.995 102.531 153.185 102.531 155.25 101.941V84.0007C155.252 82.5832 154.974 81.1792 154.432 79.8696C153.889 78.5599 153.093 77.3703 152.09 76.3693C151.086 77.3703 150.29 78.5599 149.748 79.8696C149.206 81.1792 148.928 82.5832 148.93 84.0007Z" fill="#407BFF"/>
<path opacity="0.6" d="M148.93 84.0007V101.941C150.995 102.531 153.185 102.531 155.25 101.941V84.0007C155.252 82.5832 154.974 81.1792 154.432 79.8696C153.889 78.5599 153.093 77.3703 152.09 76.3693C151.086 77.3703 150.29 78.5599 149.748 79.8696C149.206 81.1792 148.928 82.5832 148.93 84.0007Z" fill="white"/>
<path d="M148.93 84.0007V93.3847C150.995 93.9782 153.185 93.9782 155.25 93.3847V84.0007C155.252 82.5832 154.974 81.1792 154.432 79.8696C153.889 78.5599 153.093 77.3703 152.09 76.3693C151.086 77.3703 150.29 78.5599 149.748 79.8696C149.206 81.1792 148.928 82.5832 148.93 84.0007Z" fill="#407BFF"/>
<path opacity="0.8" d="M148.93 84.0007V93.3847C150.995 93.9782 153.185 93.9782 155.25 93.3847V84.0007C155.252 82.5832 154.974 81.1792 154.432 79.8696C153.889 78.5599 153.093 77.3703 152.09 76.3693C151.086 77.3703 150.29 78.5599 149.748 79.8696C149.206 81.1792 148.928 82.5832 148.93 84.0007Z" fill="white"/>
<path d="M148.93 84.0007V85.0978C150.995 85.688 153.185 85.688 155.25 85.0978V84.0007C155.252 82.5832 154.974 81.1792 154.432 79.8696C153.889 78.5599 153.093 77.3703 152.09 76.3693C151.086 77.3703 150.29 78.5599 149.748 79.8696C149.206 81.1792 148.928 82.5832 148.93 84.0007Z" fill="#407BFF"/>
<path opacity="0.4" d="M148.93 84.0007V85.0978C150.995 85.688 153.185 85.688 155.25 85.0978V84.0007C155.252 82.5832 154.974 81.1792 154.432 79.8696C153.889 78.5599 153.093 77.3703 152.09 76.3693C151.086 77.3703 150.29 78.5599 149.748 79.8696C149.206 81.1792 148.928 82.5832 148.93 84.0007Z" fill="white"/>
<path d="M174.756 112.974L173.928 109.565H170.934L170.099 112.974C171.59 113.591 173.265 113.591 174.756 112.974Z" fill="#263238"/>
<path opacity="0.2" d="M170.934 109.565L170.741 110.359C171.844 110.683 173.018 110.683 174.122 110.359L173.928 109.565H170.934Z" fill="white"/>
<path opacity="0.4" d="M170.527 111.214C170.478 111.435 170.423 111.649 170.375 111.856C171.722 112.28 173.167 112.28 174.515 111.856L174.356 111.214C173.092 111.47 171.79 111.47 170.527 111.214Z" fill="white"/>
<path d="M175.591 109.324C173.567 110.159 171.295 110.159 169.271 109.324V84.0007C169.269 82.5832 169.547 81.1792 170.089 79.8696C170.632 78.5599 171.427 77.3703 172.431 76.3693C173.435 77.3703 174.23 78.5599 174.773 79.8696C175.315 81.1792 175.593 82.5832 175.591 84.0007V109.324Z" fill="#407BFF"/>
<path d="M169.271 84.0007V107.868C171.317 108.582 173.545 108.582 175.591 107.868V84.0007C175.593 82.5832 175.315 81.1792 174.773 79.8696C174.23 78.5599 173.435 77.3703 172.431 76.3693C171.427 77.3703 170.632 78.5599 170.089 79.8696C169.547 81.1792 169.269 82.5832 169.271 84.0007Z" fill="#407BFF"/>
<path opacity="0.4" d="M169.271 84.0007V107.868C171.317 108.582 173.545 108.582 175.591 107.868V84.0007C175.593 82.5832 175.315 81.1792 174.773 79.8696C174.23 78.5599 173.435 77.3703 172.431 76.3693C171.427 77.3703 170.632 78.5599 170.089 79.8696C169.547 81.1792 169.269 82.5832 169.271 84.0007Z" fill="white"/>
<path d="M169.271 84.0007V101.941C171.336 102.531 173.526 102.531 175.591 101.941V84.0007C175.593 82.5832 175.315 81.1792 174.773 79.8696C174.23 78.5599 173.435 77.3703 172.431 76.3693C171.427 77.3703 170.632 78.5599 170.089 79.8696C169.547 81.1792 169.269 82.5832 169.271 84.0007Z" fill="#407BFF"/>
<path opacity="0.6" d="M169.271 84.0007V101.941C171.336 102.531 173.526 102.531 175.591 101.941V84.0007C175.593 82.5832 175.315 81.1792 174.773 79.8696C174.23 78.5599 173.435 77.3703 172.431 76.3693C171.427 77.3703 170.632 78.5599 170.089 79.8696C169.547 81.1792 169.269 82.5832 169.271 84.0007Z" fill="white"/>
<path d="M169.271 84.0007V93.3847C171.336 93.9782 173.526 93.9782 175.591 93.3847V84.0007C175.593 82.5832 175.315 81.1792 174.773 79.8696C174.23 78.5599 173.435 77.3703 172.431 76.3693C171.427 77.3703 170.632 78.5599 170.089 79.8696C169.547 81.1792 169.269 82.5832 169.271 84.0007Z" fill="#407BFF"/>
<path opacity="0.8" d="M169.271 84.0007V93.3847C171.336 93.9782 173.526 93.9782 175.591 93.3847V84.0007C175.593 82.5832 175.315 81.1792 174.773 79.8696C174.23 78.5599 173.435 77.3703 172.431 76.3693C171.427 77.3703 170.632 78.5599 170.089 79.8696C169.547 81.1792 169.269 82.5832 169.271 84.0007Z" fill="white"/>
<path d="M169.271 84.0007V85.0978C171.336 85.688 173.526 85.688 175.591 85.0978V84.0007C175.593 82.5832 175.315 81.1792 174.773 79.8696C174.23 78.5599 173.435 77.3703 172.431 76.3693C171.427 77.3703 170.632 78.5599 170.089 79.8696C169.547 81.1792 169.269 82.5832 169.271 84.0007Z" fill="#407BFF"/>
<path opacity="0.4" d="M169.271 84.0007V85.0978C171.336 85.688 173.526 85.688 175.591 85.0978V84.0007C175.593 82.5832 175.315 81.1792 174.773 79.8696C174.23 78.5599 173.435 77.3703 172.431 76.3693C171.427 77.3703 170.632 78.5599 170.089 79.8696C169.547 81.1792 169.269 82.5832 169.271 84.0007Z" fill="white"/>
<path d="M166.021 114.926L164.641 109.406H159.811L158.465 114.926C159.662 115.428 160.946 115.687 162.243 115.687C163.54 115.687 164.825 115.428 166.021 114.926Z" fill="#263238"/>
<path opacity="0.2" d="M159.845 109.427C159.845 109.427 159.645 110.255 159.528 110.711C161.312 111.232 163.208 111.232 164.993 110.711L164.675 109.42L159.845 109.427Z" fill="white"/>
<path opacity="0.4" d="M159.19 112.098L158.942 113.133C161.104 113.802 163.417 113.802 165.579 113.133L165.331 112.098C163.304 112.497 161.217 112.497 159.19 112.098Z" fill="white"/>
<path d="M167.366 109.02C165.749 109.695 164.013 110.042 162.26 110.042C160.508 110.042 158.772 109.695 157.154 109.02V68.1581C157.152 65.87 157.602 63.604 158.478 61.4903C159.355 59.3766 160.64 57.4569 162.26 55.8416C163.881 57.4569 165.166 59.3766 166.042 61.4903C166.919 63.604 167.369 65.87 167.366 68.1581V109.02Z" fill="#407BFF"/>
<path d="M157.154 68.1581V106.695C160.462 107.84 164.059 107.84 167.366 106.695V68.1581C167.369 65.87 166.919 63.604 166.042 61.4903C165.166 59.3766 163.881 57.4569 162.26 55.8416C160.64 57.4569 159.355 59.3766 158.478 61.4903C157.602 63.604 157.152 65.87 157.154 68.1581Z" fill="#407BFF"/>
<path opacity="0.4" d="M157.154 68.1581V106.695C160.462 107.84 164.059 107.84 167.366 106.695V68.1581C167.369 65.87 166.919 63.604 166.042 61.4903C165.166 59.3766 163.881 57.4569 162.26 55.8416C160.64 57.4569 159.355 59.3766 158.478 61.4903C157.602 63.604 157.152 65.87 157.154 68.1581Z" fill="white"/>
<path d="M157.154 68.1581V97.0967C160.492 98.0478 164.029 98.0478 167.366 97.0967V68.1581C167.369 65.87 166.919 63.604 166.042 61.4903C165.166 59.3766 163.881 57.4569 162.26 55.8416C160.64 57.4569 159.355 59.3766 158.478 61.4903C157.602 63.604 157.152 65.87 157.154 68.1581Z" fill="#407BFF"/>
<path opacity="0.6" d="M157.154 68.1581V97.0967C160.492 98.0478 164.029 98.0478 167.366 97.0967V68.1581C167.369 65.87 166.919 63.604 166.042 61.4903C165.166 59.3766 163.881 57.4569 162.26 55.8416C160.64 57.4569 159.355 59.3766 158.478 61.4903C157.602 63.604 157.152 65.87 157.154 68.1581Z" fill="white"/>
<path d="M157.154 68.1581V83.3381C160.492 84.2892 164.029 84.2892 167.366 83.3381V68.1581C167.369 65.87 166.919 63.604 166.042 61.4903C165.166 59.3766 163.881 57.4569 162.26 55.8416C160.64 57.4569 159.355 59.3766 158.478 61.4903C157.602 63.604 157.152 65.87 157.154 68.1581Z" fill="#407BFF"/>
<path opacity="0.8" d="M157.154 68.1581V83.3381C160.492 84.2892 164.029 84.2892 167.366 83.3381V68.1581C167.369 65.87 166.919 63.604 166.042 61.4903C165.166 59.3766 163.881 57.4569 162.26 55.8416C160.64 57.4569 159.355 59.3766 158.478 61.4903C157.602 63.604 157.152 65.87 157.154 68.1581Z" fill="white"/>
<path d="M157.154 68.1581V69.9314C160.492 70.8825 164.029 70.8825 167.366 69.9314V68.1581C167.369 65.87 166.919 63.604 166.042 61.4903C165.166 59.3766 163.881 57.4569 162.26 55.8416C160.64 57.4569 159.355 59.3766 158.478 61.4903C157.602 63.604 157.152 65.87 157.154 68.1581Z" fill="#407BFF"/>
<path opacity="0.1" d="M157.154 68.1581V69.9314C160.492 70.8825 164.029 70.8825 167.366 69.9314V68.1581C167.369 65.87 166.919 63.604 166.042 61.4903C165.166 59.3766 163.881 57.4569 162.26 55.8416C160.64 57.4569 159.355 59.3766 158.478 61.4903C157.602 63.604 157.152 65.87 157.154 68.1581Z" fill="white"/>
<path d="M165.234 76.3347C165.236 76.9232 165.062 77.4988 164.737 77.9888C164.411 78.4787 163.947 78.861 163.403 79.0871C162.86 79.3133 162.262 79.3731 161.685 79.2592C161.107 79.1452 160.577 78.8625 160.16 78.4469C159.743 78.0312 159.46 77.5014 159.344 76.9243C159.229 76.3472 159.287 75.7489 159.512 75.2051C159.737 74.6613 160.118 74.1964 160.608 73.8694C161.097 73.5423 161.672 73.3677 162.26 73.3677C163.048 73.3677 163.803 73.68 164.361 74.2363C164.918 74.7925 165.233 75.5471 165.234 76.3347Z" fill="#407BFF"/>
<path d="M162.261 79.3087C161.509 79.3104 160.785 79.0262 160.235 78.5136C159.685 78.0011 159.351 77.2986 159.3 76.5487C159.3 76.6246 159.3 76.7005 159.3 76.7695C159.3 77.5582 159.614 78.3147 160.171 78.8724C160.729 79.4301 161.486 79.7434 162.274 79.7434C163.063 79.7434 163.819 79.4301 164.377 78.8724C164.935 78.3147 165.248 77.5582 165.248 76.7695C165.248 76.7005 165.248 76.6246 165.248 76.5487C165.196 77.3028 164.857 78.0083 164.302 78.5212C163.746 79.0342 163.016 79.3158 162.261 79.3087Z" fill="#407BFF"/>
<path opacity="0.3" d="M162.261 79.3087C161.509 79.3104 160.785 79.0262 160.235 78.5136C159.685 78.0011 159.351 77.2986 159.3 76.5487C159.3 76.6246 159.3 76.7005 159.3 76.7695C159.3 77.5582 159.614 78.3147 160.171 78.8724C160.729 79.4301 161.486 79.7434 162.274 79.7434C163.063 79.7434 163.819 79.4301 164.377 78.8724C164.935 78.3147 165.248 77.5582 165.248 76.7695C165.248 76.7005 165.248 76.6246 165.248 76.5487C165.196 77.3028 164.857 78.0083 164.302 78.5212C163.746 79.0342 163.016 79.3158 162.261 79.3087Z" fill="black"/>
<path d="M162.26 78.4392C163.423 78.4392 164.365 77.497 164.365 76.3347C164.365 75.1724 163.423 74.2302 162.26 74.2302C161.098 74.2302 160.156 75.1724 160.156 76.3347C160.156 77.497 161.098 78.4392 162.26 78.4392Z" fill="white"/>
<path d="M162.15 78.4253L163.013 74.3819C162.793 74.2952 162.559 74.2485 162.323 74.2439L161.46 78.2804C161.679 78.3699 161.913 78.419 162.15 78.4253Z" fill="#407BFF"/>
<path d="M162.937 78.3219L163.682 74.796C163.586 74.7082 163.482 74.6297 163.371 74.5614L162.55 78.4116C162.681 78.3923 162.81 78.3623 162.937 78.3219Z" fill="#407BFF"/>
<g opacity="0.7">
<path opacity="0.7" d="M162.15 78.4253L163.013 74.3819C162.793 74.2952 162.559 74.2485 162.323 74.2439L161.46 78.2804C161.679 78.3699 161.913 78.419 162.15 78.4253Z" fill="white"/>
<path opacity="0.7" d="M162.937 78.3218L163.682 74.7959C163.586 74.7081 163.482 74.6296 163.371 74.5613L162.55 78.4115C162.681 78.3922 162.81 78.3622 162.937 78.3218Z" fill="white"/>
</g>
<path d="M238.443 156.12L237.65 156.292C237.294 156.364 236.97 156.545 236.723 156.809C236.476 157.074 236.317 157.41 236.27 157.769L236.201 158.328C236.165 158.607 236.197 158.89 236.296 159.153C236.395 159.417 236.556 159.652 236.766 159.839C238.071 160.977 241.148 163.089 244.874 161.729L247.848 159.487L247.358 155.471L241.148 154.574C240.772 154.588 240.412 154.724 240.12 154.96L238.443 156.12Z" fill="#FAB27B"/>
<path d="M247.869 159.487L256.128 159.073L254.851 154.581L247.379 155.471L247.869 159.487Z" fill="#FAB27B"/>
<path d="M252.788 154.615C252.45 155.249 252.333 155.978 252.457 156.685C252.607 157.832 253.068 158.915 253.789 159.818C252.397 159.839 251.029 160.176 249.787 160.805L249.718 160.839C245.412 157.9 247.896 154.415 247.896 154.415L248.179 154.457C249.706 154.668 251.251 154.721 252.788 154.615Z" fill="#407BFF"/>
<path d="M269.7 158.321C262.027 160.087 252.485 159.914 252.485 159.914C252.17 159.384 252.028 158.769 252.078 158.155C252.147 156.871 252.319 155.264 252.768 154.615C253.216 153.967 256.535 153.622 256.535 153.622C256.535 153.622 262.945 150.648 264.159 149.675C265.374 148.702 265.326 144.155 265.098 141.167C263.877 125.111 266.699 123.917 269.238 123.179C274.62 121.682 276.49 156.754 269.7 158.321Z" fill="#407BFF"/>
<path d="M217.129 161.764H238.574C239.264 161.764 239.588 161.198 239.264 160.501L233.91 148.405C233.743 148.053 233.486 147.751 233.165 147.529C232.844 147.307 232.47 147.174 232.081 147.143H210.629C209.939 147.143 209.615 147.708 209.939 148.405L215.321 160.501C215.486 160.851 215.74 161.152 216.057 161.373C216.374 161.595 216.744 161.73 217.129 161.764Z" fill="#407BFF"/>
<path opacity="0.2" d="M217.129 161.764H238.574C239.264 161.764 239.588 161.198 239.264 160.501L233.91 148.405C233.743 148.053 233.486 147.751 233.165 147.529C232.844 147.307 232.47 147.174 232.081 147.143H210.629C209.939 147.143 209.615 147.708 209.939 148.405L215.321 160.501C215.486 160.851 215.74 161.152 216.057 161.373C216.374 161.595 216.744 161.73 217.129 161.764Z" fill="black"/>
<path d="M209.698 147.143H210.629C209.939 147.143 209.615 147.708 209.939 148.405L215.321 160.501C215.487 160.853 215.743 161.155 216.063 161.377C216.383 161.598 216.755 161.732 217.143 161.764H216.218C215.83 161.732 215.456 161.599 215.135 161.377C214.814 161.156 214.557 160.854 214.39 160.501L209.015 148.405C208.69 147.708 209.001 147.143 209.698 147.143Z" fill="#407BFF"/>
<path opacity="0.4" d="M209.698 147.143H210.629C209.939 147.143 209.615 147.708 209.939 148.405L215.321 160.501C215.487 160.853 215.743 161.155 216.063 161.377C216.383 161.598 216.755 161.732 217.143 161.764H216.218C215.83 161.732 215.456 161.599 215.135 161.377C214.814 161.156 214.557 160.854 214.39 160.501L209.015 148.405C208.69 147.708 209.001 147.143 209.698 147.143Z" fill="black"/>
<path d="M217.529 160.377H236.939L231.674 148.53H212.265L217.529 160.377Z" fill="#263238"/>
<path opacity="0.8" d="M217.529 160.377H236.939L231.674 148.53H212.265L217.529 160.377Z" fill="white"/>
<path d="M281.396 160.819C281.396 160.819 281.927 167.898 282.003 170.382C282.52 186.976 268.976 188.239 259.012 186.411L222.925 176.323C221.497 181.118 204.812 207.525 204.812 207.525L196.043 202.488C196.043 202.488 205.137 180.691 211.009 165.518C214.355 156.858 241.631 162.847 251.677 164.634C254.727 165.455 254.141 160.688 254.141 160.688L281.396 160.819Z" fill="#263238"/>
<path d="M202.577 207.028L199.224 212.61L192.979 209.505L196.229 203.15L202.577 207.028Z" fill="#FAB27B"/>
<path d="M189.653 208.38C188.832 208.001 188.046 207.463 187.935 207C187.915 206.866 187.936 206.729 187.993 206.606C188.051 206.484 188.144 206.381 188.259 206.31C188.359 206.242 188.472 206.195 188.591 206.171C188.709 206.148 188.831 206.148 188.949 206.172C190.198 206.372 191.91 208.753 191.979 208.856C192 208.885 192.012 208.92 192.012 208.956C192.012 208.993 192 209.028 191.979 209.056C191.957 209.084 191.928 209.105 191.895 209.117C191.862 209.129 191.827 209.132 191.792 209.125C191.059 208.941 190.343 208.691 189.653 208.38ZM189.191 206.607C189.091 206.558 188.984 206.526 188.874 206.51C188.804 206.492 188.732 206.489 188.661 206.502C188.591 206.515 188.524 206.544 188.467 206.586C188.26 206.731 188.253 206.842 188.273 206.917C188.384 207.49 190.053 208.263 191.358 208.677C190.775 207.848 190.04 207.139 189.191 206.586V206.607Z" fill="#407BFF"/>
<path d="M191.744 209.07C191.724 209.078 191.702 209.078 191.682 209.07C191.054 208.38 190.116 206.193 190.599 205.51C190.695 205.337 190.93 205.178 191.385 205.337C191.551 205.395 191.703 205.486 191.832 205.605C191.961 205.724 192.065 205.867 192.137 206.027C192.662 207.11 192.02 208.98 191.993 209.063C191.982 209.093 191.964 209.119 191.939 209.138C191.915 209.158 191.886 209.17 191.855 209.174C191.829 209.166 191.806 209.152 191.787 209.135C191.768 209.117 191.753 209.095 191.744 209.07ZM191.351 205.62L191.268 205.572C190.971 205.461 190.902 205.572 190.875 205.606C190.626 206.034 191.158 207.635 191.758 208.497C192.022 207.709 192.039 206.859 191.806 206.062C191.714 205.864 191.552 205.706 191.351 205.62Z" fill="#407BFF"/>
<path d="M192.869 208.484L200.1 211.789C200.228 211.848 200.334 211.947 200.4 212.072C200.466 212.197 200.489 212.34 200.466 212.479L199.086 218.965C199.058 219.102 199.003 219.233 198.924 219.349C198.845 219.466 198.744 219.565 198.627 219.642C198.509 219.719 198.378 219.772 198.24 219.798C198.102 219.824 197.96 219.822 197.823 219.793C197.749 219.779 197.677 219.756 197.609 219.724C195.021 218.489 192.779 217.281 189.515 215.805C185.686 214.052 186.445 214.956 181.925 212.955C179.165 211.747 180.111 208.435 181.325 208.815C186.9 210.568 188.177 209.222 191.075 208.27C191.678 208.114 192.319 208.19 192.869 208.484Z" fill="#263238"/>
<path opacity="0.2" d="M200.873 209.864L202.577 207.028L196.229 203.15L194.656 206.221L200.873 209.864Z" fill="black"/>
<path d="M206.206 207L195.332 200.218C194.837 200.494 194.44 200.915 194.193 201.425C193.946 201.935 193.862 202.508 193.952 203.067L204.412 209.76C204.412 209.76 205.813 209.671 206.206 207Z" fill="#407BFF"/>
<path d="M221.083 234.8L219.765 240.99L213.044 240.106L214.024 233.234L221.083 234.8Z" fill="#FAB27B"/>
<path d="M209.629 240.12C208.752 240.031 207.862 239.782 207.607 239.375C207.551 239.265 207.53 239.14 207.544 239.018C207.559 238.895 207.61 238.779 207.69 238.685C207.828 238.504 208.03 238.383 208.256 238.347C209.463 238.14 211.788 239.782 211.892 239.858C211.919 239.878 211.94 239.906 211.951 239.938C211.962 239.97 211.963 240.005 211.954 240.038C211.944 240.071 211.924 240.1 211.897 240.122C211.87 240.144 211.837 240.158 211.802 240.162C211.078 240.21 210.351 240.196 209.629 240.12ZM208.642 238.637C208.535 238.62 208.425 238.62 208.318 238.637C208.248 238.642 208.18 238.663 208.119 238.698C208.059 238.732 208.006 238.78 207.966 238.837C207.821 239.037 207.855 239.141 207.897 239.203C208.18 239.693 209.967 239.893 211.285 239.844C210.489 239.274 209.592 238.86 208.642 238.623V238.637Z" fill="#407BFF"/>
<path d="M211.782 240.12C211.759 240.128 211.735 240.128 211.713 240.12C210.905 239.658 209.36 237.967 209.587 237.188C209.622 236.994 209.788 236.781 210.277 236.781C210.444 236.778 210.61 236.81 210.765 236.874C210.919 236.938 211.058 237.033 211.174 237.153C212.002 237.981 212.002 239.913 212.002 239.989C212.003 240.019 211.995 240.049 211.979 240.075C211.963 240.1 211.94 240.121 211.913 240.134C211.892 240.144 211.868 240.148 211.845 240.146C211.822 240.143 211.8 240.135 211.782 240.12ZM210.333 237.098H210.243C209.939 237.098 209.905 237.215 209.891 237.257C209.801 237.733 210.795 239.037 211.616 239.637C211.612 238.831 211.359 238.045 210.892 237.388C210.743 237.234 210.545 237.139 210.333 237.119V237.098Z" fill="#407BFF"/>
<path d="M212.624 239.196L220.317 239.955C220.458 239.968 220.591 240.029 220.693 240.129C220.795 240.228 220.859 240.359 220.876 240.5L221.656 246.896C221.689 247.169 221.613 247.443 221.445 247.66C221.277 247.877 221.031 248.019 220.759 248.055C220.685 248.062 220.611 248.062 220.538 248.055C217.778 247.731 215.315 247.365 211.865 247.007C207.787 246.606 208.773 247.193 203.971 246.793C201.08 246.544 200.873 243.212 202.115 243.17C207.787 243.018 208.539 241.383 210.892 239.589C211.402 239.252 212.018 239.112 212.624 239.196Z" fill="#263238"/>
<path opacity="0.2" d="M213.507 236.85L220.531 237.395L221.083 234.8L214.024 233.234L213.507 236.85Z" fill="black"/>
<path d="M223.077 232.351L222.877 233.131L212.575 232.316L212.686 231.537L223.077 232.351Z" fill="#263238"/>
<path d="M223.498 235.58L220.959 235.352L213.81 234.711L211.506 234.504C211.178 234.063 210.993 233.533 210.974 232.985C210.956 232.436 211.105 231.895 211.402 231.433L212.686 231.537L223.077 232.351L223.822 232.413C224.685 234.89 223.498 235.58 223.498 235.58Z" fill="#407BFF"/>
<path d="M265.326 192.565C256.004 193.386 234.503 193.731 231.592 193.304L223.077 232.351L212.686 231.537C212.686 231.537 213.783 197.775 218.364 183.816C222.049 172.597 280.989 174.922 280.989 174.922L281.196 178.082C281.603 188.97 276 191.62 265.326 192.565Z" fill="#263238"/>
<path opacity="0.1" d="M265.326 192.565C256.004 193.386 234.503 193.731 231.592 193.304L223.077 232.351L212.686 231.537C212.686 231.537 213.783 197.775 218.364 183.816C222.049 172.597 280.989 174.922 280.989 174.922L281.196 178.082C281.603 188.97 276 191.62 265.326 192.565Z" fill="black"/>
<path d="M218.199 187.894C218.195 187.832 218.195 187.77 218.199 187.708V187.894Z" fill="#263238"/>
<path d="M218.895 182.85L218.792 183.616C218.812 183.359 218.846 183.103 218.895 182.85Z" fill="#263238"/>
<path d="M251.891 121.847L254.755 126.029L261.193 120.523L257.17 115.582L251.891 121.847Z" fill="#FAB27B"/>
<path opacity="0.2" d="M253.326 123.828C254.568 121.999 254.016 119.163 254.016 119.163L252.885 120.605L251.905 121.847L253.326 123.828Z" fill="black"/>
<path d="M240.879 112.636C241.017 113.043 241.348 113.326 241.617 113.202C241.886 113.078 242.004 112.67 241.859 112.277C241.714 111.884 241.396 111.587 241.12 111.718C240.844 111.849 240.748 112.229 240.879 112.636Z" fill="#263238"/>
<path d="M242.369 112.76L241.459 116.665C241.919 116.761 242.396 116.749 242.851 116.629C243.306 116.51 243.727 116.286 244.081 115.975L242.369 112.76Z" fill="#ED893E"/>
<path d="M240.472 109.786C240.505 109.769 240.542 109.76 240.579 109.76C240.616 109.76 240.653 109.769 240.686 109.786C240.946 109.895 241.229 109.941 241.511 109.92C241.793 109.898 242.066 109.81 242.307 109.662C242.33 109.643 242.357 109.63 242.386 109.622C242.414 109.615 242.444 109.613 242.473 109.618C242.502 109.622 242.53 109.633 242.555 109.649C242.58 109.665 242.601 109.685 242.618 109.71C242.651 109.76 242.663 109.821 242.653 109.88C242.643 109.939 242.611 109.992 242.563 110.027C242.261 110.229 241.913 110.351 241.551 110.384C241.19 110.417 240.826 110.358 240.493 110.214C240.464 110.203 240.438 110.187 240.417 110.166C240.395 110.145 240.377 110.12 240.365 110.093C240.353 110.065 240.346 110.035 240.346 110.005C240.345 109.975 240.35 109.945 240.361 109.917C240.385 109.864 240.423 109.818 240.472 109.786Z" fill="#263238"/>
<path d="M256.176 105.57C258.246 110.904 259.274 113.119 257.853 117.059C255.058 121.716 248.621 124.545 244.95 119.978C241.652 115.838 238.788 107.854 242.969 103.28C244.366 101.712 246.325 100.76 248.42 100.631C250.515 100.502 252.576 101.206 254.154 102.59C255.058 103.407 255.751 104.429 256.176 105.57Z" fill="#FAB27B"/>
<path d="M261.227 107.157C260.936 108.947 260.759 110.754 260.696 112.567C260.646 114.24 260.099 115.86 259.125 117.22C258.15 118.581 256.792 119.62 255.224 120.205C255.224 120.205 247.703 120.115 244.508 110.655C243.625 110.739 242.734 110.604 241.915 110.262C241.096 109.919 240.373 109.381 239.811 108.694C239.249 108.006 238.865 107.191 238.693 106.32C238.521 105.45 238.565 104.55 238.823 103.7C239.437 101.685 241.983 100.43 244.087 100.354C244.777 99.4577 245.677 98.7449 246.707 98.2781C247.736 97.8112 248.865 97.6047 249.994 97.6766C252.27 97.8611 254.468 98.5899 256.404 99.8018C258.151 100.676 259.629 102.006 260.682 103.652C261.244 104.729 261.436 105.961 261.227 107.157Z" fill="#263238"/>
<path d="M246.075 111.78C245.836 112.314 245.706 112.889 245.692 113.473C245.678 114.057 245.78 114.638 245.992 115.182C246.571 116.624 248.117 116.383 249.007 115.182C249.814 114.085 250.47 112.029 249.38 110.966C248.29 109.904 246.675 110.469 246.075 111.78Z" fill="#FAB27B"/>
<path d="M261.248 117.41C259.178 117.5 256.121 118.901 252.036 121.716C251.823 121.901 251.66 122.138 251.564 122.403C251.467 122.669 251.44 122.955 251.484 123.234C251.533 123.786 252.085 124.303 252.609 124.131C252.878 124.821 253.057 125.58 253.299 126.242C254.576 125.592 255.9 125.038 257.26 124.586C259.319 123.765 261.427 123.074 263.573 122.516C263 121.64 262.234 120.784 262.007 119.756C262.248 119.649 262.445 119.461 262.562 119.224C262.679 118.987 262.71 118.716 262.648 118.459C262.531 118.175 262.339 117.927 262.092 117.742C261.846 117.558 261.554 117.443 261.248 117.41Z" fill="#407BFF"/>
<path d="M261.248 117.41C259.178 117.5 256.121 118.901 252.036 121.716C251.823 121.901 251.66 122.138 251.564 122.403C251.467 122.669 251.44 122.955 251.484 123.234C251.533 123.786 252.085 124.303 252.609 124.131C252.878 124.821 253.057 125.58 253.299 126.242C254.576 125.592 255.9 125.038 257.26 124.586C259.319 123.765 261.427 123.074 263.573 122.516C263 121.64 262.234 120.784 262.007 119.756C262.248 119.649 262.445 119.461 262.562 119.224C262.679 118.987 262.71 118.716 262.648 118.459C262.531 118.175 262.339 117.927 262.092 117.742C261.846 117.558 261.554 117.443 261.248 117.41Z" fill="#407BFF"/>
<path d="M255.189 170.265C250.81 159.785 247.084 149.044 244.032 138.104C240.83 126.153 249.973 125.946 261.006 122.979C269.755 120.626 273.495 122.731 275.993 127.167C278.491 131.604 282.52 169.154 282.52 169.154L255.189 170.265Z" fill="#407BFF"/>
<path d="M255.189 170.265C250.81 159.785 247.084 149.044 244.032 138.104C240.83 126.153 249.973 125.946 261.006 122.979C269.755 120.626 273.495 122.731 275.993 127.167C278.491 131.604 282.52 169.154 282.52 169.154L255.189 170.265Z" fill="#407BFF"/>
<path opacity="0.3" d="M255.189 170.265C250.81 159.785 247.084 149.044 244.032 138.104C240.83 126.153 249.973 125.946 261.006 122.979C269.755 120.626 273.495 122.731 275.993 127.167C278.491 131.604 282.52 169.154 282.52 169.154L255.189 170.265Z" fill="black"/>
<path d="M215.28 153.042H214.507C214.163 153.056 213.831 153.176 213.558 153.386C213.285 153.596 213.083 153.886 212.982 154.215L212.823 154.726C212.742 154.982 212.724 155.255 212.772 155.519C212.82 155.784 212.933 156.033 213.099 156.244C214.141 157.534 216.681 160.032 220.413 159.37L223.594 157.755L223.801 153.891L218.13 152.021C217.773 151.973 217.41 152.04 217.095 152.214L215.28 153.042Z" fill="#FAB27B"/>
<path d="M223.608 157.782L231.447 158.769L230.991 154.326L223.815 153.918L223.608 157.782Z" fill="#FAB27B"/>
<path d="M229.08 154.015C228.642 154.559 228.399 155.235 228.39 155.933C228.342 157.038 228.595 158.135 229.121 159.107C227.807 158.894 226.462 158.983 225.188 159.369H225.119C221.559 155.885 224.478 153.021 224.478 153.021L224.74 153.104C226.151 153.557 227.606 153.863 229.08 154.015Z" fill="#407BFF"/>
<path d="M244.343 160.315C236.829 160.701 227.879 158.935 227.879 158.935C227.67 158.384 227.637 157.781 227.783 157.21C228.066 156.009 228.473 154.526 229.045 153.995C229.618 153.463 232.758 153.691 232.758 153.691C232.758 153.691 239.285 151.952 240.589 151.241C241.893 150.531 242.604 146.28 242.88 143.41C244.405 128.092 247.261 127.43 249.78 127.174C255.058 126.65 250.994 159.977 244.343 160.315Z" fill="#407BFF"/>
<path d="M269.1 247.572L263.89 204.033C263.635 201.905 262.609 199.944 261.006 198.521C259.402 197.098 257.333 196.312 255.189 196.312H238.002C235.918 196.305 233.9 197.043 232.313 198.393C230.727 199.743 229.675 201.617 229.349 203.674L222.339 247.02L220.959 246.799L227.976 203.467C228.353 201.086 229.57 198.918 231.406 197.355C233.242 195.792 235.577 194.938 237.988 194.946H255.203C257.684 194.948 260.078 195.858 261.934 197.504C263.79 199.15 264.979 201.419 265.277 203.881L270.487 247.42L269.1 247.572Z" fill="#263238"/>
<path d="M293.208 247.572L287.999 204.033C287.744 201.905 286.718 199.944 285.114 198.521C283.511 197.098 281.442 196.312 279.298 196.312H262.083C259.999 196.303 257.98 197.041 256.393 198.391C254.806 199.742 253.755 201.616 253.43 203.675L246.413 247.02L245.033 246.8L252.05 203.468C252.426 201.085 253.642 198.916 255.478 197.353C257.315 195.79 259.65 194.936 262.062 194.946H279.277C281.758 194.948 284.152 195.858 286.008 197.504C287.864 199.15 289.053 201.419 289.351 203.882L294.561 247.42L293.208 247.572Z" fill="#263238"/>
<path d="M247.199 234.89H223.498V236.27H247.199V234.89Z" fill="#263238"/>
<path d="M289.11 203.26H264.608V204.64H289.11V203.26Z" fill="#263238"/>
<path d="M269.1 196.609H287.13C290.482 196.609 293.711 195.345 296.172 193.07C298.634 190.795 300.148 187.676 300.412 184.334L302.979 151.945C303.077 150.706 302.918 149.46 302.512 148.285C302.106 147.11 301.461 146.031 300.619 145.117C299.777 144.202 298.756 143.471 297.618 142.97C296.481 142.468 295.252 142.207 294.009 142.202H284.004C278.343 142.202 272.833 144.03 268.295 147.412C263.756 150.795 260.43 155.553 258.812 160.977L251.912 184.099C251.35 185.988 250.192 187.645 248.612 188.822C247.031 190 245.113 190.635 243.142 190.633H230.529C228.945 190.635 227.427 191.266 226.308 192.386C225.189 193.506 224.56 195.025 224.56 196.609H269.1Z" fill="#407BFF"/>
<path opacity="0.7" d="M269.1 196.609H287.13C290.482 196.609 293.711 195.345 296.172 193.07C298.634 190.795 300.148 187.676 300.412 184.334L302.979 151.945C303.077 150.706 302.918 149.46 302.512 148.285C302.106 147.11 301.461 146.031 300.619 145.117C299.777 144.202 298.756 143.471 297.618 142.97C296.481 142.468 295.252 142.207 294.009 142.202H284.004C278.343 142.202 272.833 144.03 268.295 147.412C263.756 150.795 260.43 155.553 258.812 160.977L251.912 184.099C251.35 185.988 250.192 187.645 248.612 188.822C247.031 190 245.113 190.635 243.142 190.633H230.529C228.945 190.635 227.427 191.266 226.308 192.386C225.189 193.506 224.56 195.025 224.56 196.609H269.1Z" fill="white"/>
<path d="M251.222 84.8295V84.7529C251.225 84.7783 251.225 84.8041 251.222 84.8295Z" fill="#407BFF"/>
<path d="M218.73 76.0935C216.368 78.2699 214.639 81.0453 213.727 84.1251H212.465C212.901 80.6586 214.199 77.3566 216.239 74.5203L218.73 76.0935Z" fill="#407BFF"/>
<path opacity="0.6" d="M218.73 76.0935C216.368 78.2699 214.639 81.0453 213.727 84.1251H212.465C212.901 80.6586 214.199 77.3566 216.239 74.5203L218.73 76.0935Z" fill="white"/>
<path d="M226.044 71.9602C223.311 72.7377 220.803 74.1571 218.73 76.1002L216.239 74.5201C218.272 71.6756 220.948 69.3516 224.05 67.7374L226.044 71.9602Z" fill="#407BFF"/>
<path opacity="0.5" d="M226.044 71.9602C223.311 72.7377 220.803 74.1571 218.73 76.1002L216.239 74.5201C218.272 71.6756 220.948 69.3516 224.05 67.7374L226.044 71.9602Z" fill="white"/>
<path d="M233.793 65.4121L233.179 71.5738C232.297 71.4201 231.403 71.3439 230.508 71.3461C228.999 71.3474 227.497 71.554 226.044 71.9602L224.05 67.7512C226.967 66.2228 230.21 65.4204 233.503 65.4121H233.793Z" fill="#407BFF"/>
<path opacity="0.4" d="M233.793 65.4121L233.179 71.5738C232.297 71.4201 231.403 71.3439 230.508 71.3461C228.999 71.3474 227.497 71.554 226.044 71.9602L224.05 67.7512C226.967 66.2228 230.21 65.4204 233.503 65.4121H233.793Z" fill="white"/>
<path d="M243.025 68.0272L239.002 73.9267C237.256 72.7261 235.268 71.9229 233.178 71.5738L233.793 65.4121C237.049 65.4352 240.24 66.3388 243.025 68.0272Z" fill="#407BFF"/>
<path opacity="0.3" d="M243.025 68.0272L239.002 73.9267C237.256 72.7261 235.268 71.9229 233.178 71.5738L233.793 65.4121C237.049 65.4352 240.24 66.3388 243.025 68.0272Z" fill="white"/>
<path d="M249.407 74.9823L243.128 78.3426C242.084 76.5882 240.672 75.0815 238.988 73.9266L243.011 68.0271C245.749 69.705 247.964 72.1137 249.407 74.9823Z" fill="#407BFF"/>
<path opacity="0.2" d="M249.407 74.9823L243.128 78.3426C242.084 76.5882 240.672 75.0815 238.988 73.9266L243.011 68.0271C245.749 69.705 247.964 72.1137 249.407 74.9823Z" fill="white"/>
<path d="M251.243 84.5734L245.102 84.5044C244.909 82.3295 244.235 80.2246 243.128 78.3427L249.407 74.9824C250.88 77.9531 251.514 81.269 251.243 84.5734Z" fill="#407BFF"/>
<path opacity="0.1" d="M251.243 84.5734L245.102 84.5044C244.909 82.3295 244.235 80.2246 243.128 78.3427L249.407 74.9824C250.88 77.9531 251.514 81.269 251.243 84.5734Z" fill="white"/>
<path d="M251.229 84.7528C251.232 84.778 251.232 84.8035 251.229 84.8287C250.981 86.988 250.43 89.1017 249.593 91.1077L244.618 89.983L245.019 88.0855C245.053 87.8371 245.088 87.5887 245.108 87.3403V87.1885C245.188 86.2956 245.188 85.3973 245.108 84.5044L251.249 84.5734C251.249 84.6148 251.249 84.6424 251.249 84.6769C251.246 84.7031 251.239 84.7287 251.229 84.7528Z" fill="#407BFF"/>
<path d="M213.21 90.7143L212.844 90.7971C212.727 90.321 212.63 89.838 212.547 89.3481C212.315 87.8533 212.259 86.3363 212.382 84.8286V84.7527C212.379 84.7275 212.379 84.702 212.382 84.6768C212.382 84.4905 212.416 84.2973 212.444 84.111H213.707C213.414 85.1114 213.215 86.1371 213.113 87.1746C213.113 87.1746 213.113 87.2229 213.113 87.2505C213.113 87.2781 213.113 87.2988 213.113 87.3264C213.067 87.9393 213.056 88.5544 213.079 89.1687C213.106 89.7 213.148 90.2106 213.21 90.7143Z" fill="#407BFF"/>
<path opacity="0.7" d="M213.21 90.7143L212.844 90.7971C212.727 90.321 212.63 89.838 212.547 89.3481C212.315 87.8533 212.259 86.3363 212.382 84.8286V84.7527C212.379 84.7275 212.379 84.702 212.382 84.6768C212.382 84.4905 212.416 84.2973 212.444 84.111H213.707C213.414 85.1114 213.215 86.1371 213.113 87.1746C213.113 87.1746 213.113 87.2229 213.113 87.2505C213.113 87.2781 213.113 87.2988 213.113 87.3264C213.067 87.9393 213.056 88.5544 213.079 89.1687C213.106 89.7 213.148 90.2106 213.21 90.7143Z" fill="white"/>
<path d="M250.828 89.7L250.304 90.9972L249.242 90.7626L239.34 88.5201L235.076 87.5541C235.372 87.1706 235.618 86.7509 235.807 86.3052C236.024 85.7847 236.155 85.2324 236.194 84.6699L245.647 87.9198L250.828 89.7Z" fill="#263238"/>
<path d="M236.194 84.6837C236.115 85.7345 235.726 86.7382 235.076 87.5679L231.246 86.6985L232.454 83.4003L236.194 84.6837Z" fill="#263238"/>
<path d="M236.194 84.684C236.115 85.7348 235.726 86.7385 235.076 87.5682C234.601 88.175 234.004 88.6757 233.323 89.0378C230.86 90.3558 227.955 89.5278 226.844 87.1749C226.334 85.9638 226.303 84.6045 226.756 83.3712C227.21 82.138 228.114 81.1226 229.287 80.5302C231.75 79.2123 234.655 80.0472 235.773 82.3932C236.108 83.1077 236.253 83.8968 236.194 84.684Z" fill="#407BFF"/>
<path d="M78.9913 81.7651H82.945V85.0771H78.598L77.9908 89.9071H74.5408L75.148 85.0771H70.6837L70.0765 89.9071H66.6955L67.3027 85.0771H63.3214V81.7651H67.696L68.3308 76.8454H64.3564V73.5334H68.731L69.3382 68.7034H72.7399L72.1327 73.5334H76.5901L77.1973 68.7034H80.599L79.9918 73.5334H83.9386V76.8454H79.564L78.9913 81.7651ZM75.5413 81.7651L76.1761 76.8454H71.7601L71.0701 81.7651H75.5413Z" fill="#407BFF"/>
<path d="M93.9643 68.6688V89.9346H89.0446V72.6225H84.7942V68.6688H93.9643Z" fill="#407BFF"/>
<path d="M75.5273 157.106H41.5034V180.532H75.5273V157.106Z" fill="#263238"/>
<path d="M75.5273 157.106H41.5034V159.252H75.5273V157.106Z" fill="#407BFF"/>
<path d="M47.7343 170.064L53.3026 173.149C53.5111 173.25 53.6984 173.391 53.8546 173.563C53.9521 173.699 54.0007 173.864 53.9926 174.032C53.9942 174.148 53.9725 174.264 53.9286 174.372C53.8848 174.48 53.8197 174.577 53.7373 174.66C53.6595 174.743 53.5655 174.809 53.461 174.854C53.3565 174.899 53.2439 174.922 53.1301 174.922C52.8842 174.893 52.6482 174.808 52.4401 174.674L45.2641 170.678C45.1511 170.621 45.0562 170.533 44.99 170.424C44.9237 170.316 44.8887 170.191 44.8887 170.064C44.8887 169.937 44.9237 169.813 44.99 169.704C45.0562 169.596 45.1511 169.508 45.2641 169.45L52.4401 165.455C52.6499 165.326 52.8853 165.243 53.1301 165.214C53.3607 165.217 53.5808 165.311 53.7433 165.475C53.9058 165.638 53.9977 165.859 53.9995 166.09C54.0123 166.258 53.9632 166.425 53.8615 166.559C53.7079 166.735 53.5201 166.879 53.3095 166.98L47.7343 170.064Z" fill="white"/>
<path d="M62.0517 164.317L56.5317 176.178C56.4484 176.396 56.319 176.594 56.1522 176.757C56.004 176.877 55.8183 176.941 55.6278 176.937C55.5147 176.937 55.4027 176.914 55.2984 176.87C55.1941 176.826 55.0997 176.762 55.0206 176.681C54.9409 176.61 54.877 176.523 54.8331 176.425C54.7891 176.328 54.766 176.222 54.7653 176.116C54.7855 175.875 54.8535 175.64 54.9654 175.426L60.4854 163.571C60.5693 163.355 60.6961 163.158 60.858 162.992C61.022 162.865 61.2264 162.802 61.4333 162.815C61.6402 162.828 61.8354 162.915 61.9827 163.061C62.0627 163.132 62.1268 163.219 62.1708 163.316C62.2148 163.414 62.2377 163.52 62.238 163.627C62.2221 163.867 62.1587 164.101 62.0517 164.317Z" fill="white"/>
<path d="M69.0001 170.064L63.4111 166.98C63.1975 166.88 63.0071 166.737 62.8522 166.559C62.7557 166.422 62.7071 166.257 62.7142 166.09C62.7124 165.975 62.7349 165.861 62.78 165.755C62.8252 165.649 62.8921 165.554 62.9764 165.476C63.0541 165.393 63.1482 165.327 63.2527 165.281C63.3571 165.236 63.4698 165.213 63.5836 165.214C63.8286 165.242 64.0642 165.325 64.2736 165.455L71.4496 169.45C71.5626 169.508 71.6574 169.596 71.7237 169.704C71.7899 169.813 71.825 169.937 71.825 170.064C71.825 170.191 71.7899 170.316 71.7237 170.424C71.6574 170.533 71.5626 170.621 71.4496 170.678L64.2736 174.674C64.0658 174.808 63.8296 174.893 63.5836 174.922C63.4688 174.922 63.3552 174.899 63.2497 174.854C63.1441 174.809 63.0488 174.743 62.9695 174.66C62.8055 174.492 62.7139 174.266 62.7142 174.032C62.7091 173.865 62.7575 173.7 62.8522 173.563C63.0098 173.39 63.1996 173.249 63.4111 173.149L69.0001 170.064Z" fill="white"/>
</svg>
