<svg width="34" height="26" viewBox="0 0 34 26" fill="none" xmlns="http://www.w3.org/2000/svg">
<path d="M33.1129 3.02499C31.8952 3.53618 30.5871 3.88157 29.2119 4.03769C30.6308 3.23333 31.6924 1.96735 32.1985 0.47598C30.8654 1.22616 29.4063 1.75421 27.8848 2.03716C26.8616 1.00217 25.5063 0.316167 24.0294 0.0856474C22.5525 -0.144872 21.0366 0.092994 19.717 0.762316C18.3974 1.43164 17.348 2.49497 16.7317 3.78722C16.1154 5.07947 15.9666 6.52833 16.3085 7.90888C13.6073 7.78039 10.9647 7.11523 8.55229 5.95657C6.1399 4.79792 4.01164 3.17166 2.30562 1.18335C1.72229 2.13664 1.38688 3.2419 1.38688 4.41901C1.38622 5.47867 1.66167 6.52211 2.18878 7.45673C2.71589 8.39136 3.47836 9.18827 4.40854 9.77677C3.32978 9.74425 2.27481 9.46811 1.33146 8.97131V9.05421C1.33135 10.5404 1.87401 11.9809 2.86735 13.1312C3.86069 14.2816 5.24354 15.0709 6.78125 15.3653C5.78052 15.6218 4.73133 15.6596 3.71292 15.4758C4.14677 16.7546 4.99187 17.8729 6.12991 18.674C7.26795 19.4752 8.64196 19.9192 10.0596 19.9438C7.65309 21.7335 4.68109 22.7043 1.62167 22.7001C1.07972 22.7002 0.538236 22.6702 0 22.6103C3.10549 24.5019 6.7205 25.5058 10.4125 25.5019C22.9104 25.5019 29.7427 15.6955 29.7427 7.19046C29.7427 6.91414 29.7354 6.63506 29.7223 6.35874C31.0513 5.44825 32.1984 4.32077 33.11 3.02914L33.1129 3.02499Z" fill="white"/>
</svg>
