<svg width="345" height="258" viewBox="0 0 345 258" fill="none" xmlns="http://www.w3.org/2000/svg">
<path d="M345 225.906H0V226.079H345V225.906Z" fill="#EBEBEB"/>
<path d="M310.431 237.008H287.578V237.181H310.431V237.008Z" fill="#EBEBEB"/>
<path d="M228.542 238.885H222.546V239.057H228.542V238.885Z" fill="#EBEBEB"/>
<path d="M286.888 230.605H273.647V230.777H286.888V230.605Z" fill="#EBEBEB"/>
<path d="M65.9985 231.764H36.1974V231.937H65.9985V231.764Z" fill="#EBEBEB"/>
<path d="M76.5141 231.764H72.1464V231.937H76.5141V231.764Z" fill="#EBEBEB"/>
<path d="M155.353 234.676H90.7143V234.848H155.353V234.676Z" fill="#EBEBEB"/>
<path d="M163.53 195.132H30.2979C29.2542 195.13 28.2538 194.714 27.5164 193.976C26.779 193.237 26.3649 192.236 26.3649 191.192V3.9054C26.374 2.86766 26.7921 1.87541 27.5285 1.14417C28.2649 0.412936 29.2601 0.00177771 30.2979 0H163.53C164.575 0 165.577 0.415096 166.316 1.15397C167.055 1.89284 167.47 2.89497 167.47 3.9399V191.192C167.47 192.237 167.055 193.239 166.316 193.978C165.577 194.717 164.575 195.132 163.53 195.132ZM30.2979 0.138001C29.2999 0.139828 28.3434 0.537555 27.6384 1.24388C26.9334 1.95021 26.5374 2.90742 26.5374 3.9054V191.192C26.5374 192.19 26.9334 193.147 27.6384 193.854C28.3434 194.56 29.2999 194.958 30.2979 194.959H163.53C164.529 194.958 165.486 194.56 166.192 193.854C166.898 193.148 167.296 192.191 167.297 191.192V3.9054C167.296 2.90678 166.898 1.94959 166.192 1.24346C165.486 0.537331 164.529 0.139824 163.53 0.138001H30.2979Z" fill="#EBEBEB"/>
<path d="M312.784 195.132H179.545C178.501 195.13 177.499 194.714 176.761 193.976C176.022 193.238 175.607 192.236 175.605 191.192V3.9054C175.616 2.86703 176.036 1.87478 176.773 1.14374C177.511 0.412695 178.506 0.00175832 179.545 0H312.784C313.82 0.0035911 314.814 0.415552 315.549 1.14659C316.284 1.87763 316.701 2.86885 316.71 3.9054V191.192C316.71 192.235 316.297 193.235 315.561 193.973C314.825 194.712 313.826 195.128 312.784 195.132ZM179.545 0.138001C178.546 0.139824 177.589 0.537331 176.883 1.24346C176.177 1.94959 175.779 2.90678 175.777 3.9054V191.192C175.779 192.191 176.177 193.148 176.883 193.854C177.589 194.56 178.546 194.958 179.545 194.959H312.784C313.783 194.958 314.74 194.56 315.446 193.854C316.152 193.148 316.549 192.191 316.551 191.192V3.9054C316.549 2.90678 316.152 1.94959 315.446 1.24346C314.74 0.537331 313.783 0.139824 312.784 0.138001H179.545Z" fill="#EBEBEB"/>
<path d="M263.104 188.225L251.864 155.795C251.864 155.795 267.458 167.353 267.354 154.532C267.251 141.712 260.247 151.676 257.818 146.942C255.39 142.209 264.718 142.264 261.455 135.081C258.191 127.898 248.855 138.938 247.213 132.577C245.571 126.215 242.942 122.986 236.173 123.551C236.173 123.551 232.502 131.921 237.001 137.965C241.5 144.01 225.878 139.166 227.465 145.245C229.052 151.324 234.269 156.637 236.566 152.352C238.864 148.067 241.776 156.278 237.85 158.389C233.924 160.501 242.963 169.685 244.95 164.91C246.334 161.717 248.045 158.677 250.056 155.837L260.406 190.502L263.104 188.225Z" fill="#EBEBEB"/>
<path d="M274.689 188.508L287.364 167.808C287.364 167.808 274.827 173.445 276.835 164.599C278.843 155.754 282.182 163.689 284.577 160.777C286.971 157.865 280.499 156.492 283.852 152.021C287.206 147.55 291.994 156.589 294.092 152.442C296.189 148.295 298.494 146.446 303.11 147.867C303.11 147.867 304.38 154.215 300.35 157.713C296.32 161.212 307.864 160.225 305.87 164.192C303.876 168.16 299.439 171.044 298.501 167.739C297.562 164.434 294.299 169.664 296.7 171.72C299.101 173.776 291.442 178.738 290.794 175.122C290.32 172.703 289.596 170.34 288.634 168.07L276.214 190.488L274.689 188.508Z" fill="#E6E6E6"/>
<path d="M266.154 188.708L271.957 155.333C271.957 155.333 258.598 169.085 256.659 156.575C254.72 144.065 263.125 152.649 264.746 147.653C266.368 142.658 257.253 144.203 259.309 136.661C261.365 129.12 272.205 138.414 272.798 131.949C273.392 125.483 275.441 121.916 282.148 121.399C282.148 121.399 287.054 128.989 283.631 135.578C280.209 142.168 294.671 134.978 294.085 141.16C293.498 147.343 289.255 153.346 286.35 149.537C283.445 145.728 281.893 154.187 286.053 155.623C290.214 157.058 282.845 167.429 280.14 163.068C278.286 160.172 276.136 157.478 273.723 155.029L269.141 190.475L266.154 188.708Z" fill="#F5F5F5"/>
<path d="M258.964 226.23H278.891C279.561 226.228 280.205 225.972 280.693 225.513C281.181 225.055 281.476 224.428 281.52 223.76L283.631 189.398C283.653 189.039 283.601 188.68 283.479 188.342C283.356 188.004 283.166 187.695 282.92 187.433C282.674 187.172 282.377 186.963 282.047 186.82C281.717 186.678 281.362 186.604 281.002 186.604H256.852C256.493 186.604 256.138 186.678 255.808 186.82C255.478 186.963 255.181 187.172 254.935 187.433C254.689 187.695 254.498 188.004 254.376 188.342C254.254 188.68 254.202 189.039 254.224 189.398L256.335 223.76C256.377 224.429 256.672 225.056 257.161 225.515C257.649 225.974 258.294 226.23 258.964 226.23Z" fill="#EBEBEB"/>
<path d="M283.631 185.203H254.472C253.028 185.203 251.857 186.374 251.857 187.818V187.859C251.857 189.304 253.028 190.474 254.472 190.474H283.631C285.076 190.474 286.246 189.304 286.246 187.859V187.818C286.246 186.374 285.076 185.203 283.631 185.203Z" fill="#F5F5F5"/>
<path d="M63.2729 218.93H115.582V162.633H63.2729L63.2729 218.93Z" fill="#E6E6E6"/>
<path d="M55.2828 226.237H61.8585L61.8585 158.445H55.2828L55.2828 226.237Z" fill="#E6E6E6"/>
<path d="M102.969 188.094H107.254V167.056H102.969V188.094Z" fill="#FAFAFA"/>
<path d="M85.1943 188.094H89.4792V167.056H85.1943V188.094Z" fill="#F5F5F5"/>
<path d="M98.6838 188.101H102.969V168.539H98.6838V188.101Z" fill="#F5F5F5"/>
<path d="M89.4861 188.101H93.771V168.539H89.4861V188.101Z" fill="#FAFAFA"/>
<path d="M93.771 188.094H96.5379V167.056H93.771V188.094Z" fill="#EBEBEB"/>
<path d="M96.5379 188.101H98.6838V168.539H96.5379V188.101Z" fill="#FAFAFA"/>
<path d="M80.9163 188.094H85.2012V167.056H80.9163V188.094Z" fill="#EBEBEB"/>
<path d="M76.6314 188.101H80.9163V168.539H76.6314V188.101Z" fill="#E6E6E6"/>
<path d="M67.4337 188.101H71.7186V168.539H67.4337V188.101Z" fill="#E6E6E6"/>
<path d="M71.7186 188.094H74.4855V167.056H71.7186V188.094Z" fill="#FAFAFA"/>
<path d="M74.4786 188.101H76.6245V168.539H74.4786V188.101Z" fill="#EBEBEB"/>
<path d="M65.2809 188.101H67.4268V167.56H65.2809V188.101Z" fill="#FAFAFA"/>
<path d="M69.5727 195.256H65.2878V216.294H69.5727V195.256Z" fill="#FAFAFA"/>
<path d="M87.3402 195.256H83.0553V216.294H87.3402V195.256Z" fill="#FAFAFA"/>
<path d="M73.8576 196.74H69.5727V216.301H73.8576V196.74Z" fill="#F0F0F0"/>
<path d="M83.0553 196.74H78.7704V216.301H83.0553V196.74Z" fill="#EBEBEB"/>
<path d="M78.7635 195.256H75.9966V216.294H78.7635V195.256Z" fill="#FAFAFA"/>
<path d="M76.0035 196.74H73.8576V216.301H76.0035V196.74Z" fill="#F5F5F5"/>
<path d="M91.6251 195.256H87.3402V216.294H91.6251V195.256Z" fill="#EBEBEB"/>
<path d="M95.91 196.74H91.6251V216.301H95.91V196.74Z" fill="#F5F5F5"/>
<path d="M105.108 196.74H100.823V216.301H105.108V196.74Z" fill="#E6E6E6"/>
<path d="M100.823 195.256H98.0559V216.294H100.823V195.256Z" fill="#FAFAFA"/>
<path d="M110.02 195.256H107.254V216.294H110.02V195.256Z" fill="#FAFAFA"/>
<path d="M98.0559 196.74H95.91V216.301H98.0559V196.74Z" fill="#EBEBEB"/>
<path d="M107.254 195.76H105.108V216.301H107.254V195.76Z" fill="#F0F0F0"/>
<path d="M61.7826 158.438V226.23H65.2878V222.435H117.238V158.438H61.7826ZM65.2878 191.627H113.933V216.301H65.2878V191.627ZM65.2878 164.579H113.933V188.122H65.2878V164.579Z" fill="#F0F0F0"/>
<path d="M167.974 162.626H115.665V218.923H167.974V162.626Z" fill="#E6E6E6"/>
<path d="M165.959 221.745H159.383V226.23H165.959V221.745Z" fill="#E6E6E6"/>
<path d="M121.716 167.063H117.431V188.101H121.716V167.063Z" fill="#FAFAFA"/>
<path d="M139.483 167.063H135.199V188.101H139.483V167.063Z" fill="#F5F5F5"/>
<path d="M126.001 168.539H121.716V188.101H126.001V168.539Z" fill="#F5F5F5"/>
<path d="M135.199 168.539H130.914V188.101H135.199V168.539Z" fill="#FAFAFA"/>
<path d="M130.907 167.063H128.14V188.101H130.907V167.063Z" fill="#EBEBEB"/>
<path d="M128.147 168.539H126.001V188.101H128.147V168.539Z" fill="#FAFAFA"/>
<path d="M140.946 167.063H136.661V188.101H140.946V167.063Z" fill="#EBEBEB"/>
<path d="M145.231 168.539H140.946V188.101H145.231V168.539Z" fill="#E6E6E6"/>
<path d="M154.429 168.539H150.144V188.101H154.429V168.539Z" fill="#E6E6E6"/>
<path d="M150.137 167.063H147.37V188.101H150.137V167.063Z" fill="#FAFAFA"/>
<path d="M147.377 168.539H145.231V188.101H147.377V168.539Z" fill="#EBEBEB"/>
<path d="M156.575 167.56H154.429V188.101H156.575V167.56Z" fill="#F5F5F5"/>
<path d="M154.298 216.301H158.583V195.263H154.298V216.301Z" fill="#FAFAFA"/>
<path d="M136.53 216.301H140.815V195.263H136.53V216.301Z" fill="#FAFAFA"/>
<path d="M150.013 216.294H154.298V196.733H150.013V216.294Z" fill="#F5F5F5"/>
<path d="M140.815 216.294H145.1V196.733H140.815V216.294Z" fill="#EBEBEB"/>
<path d="M145.1 216.301H147.867V195.263H145.1V216.301Z" fill="#FAFAFA"/>
<path d="M147.867 216.294H150.013V196.733H147.867V216.294Z" fill="#F5F5F5"/>
<path d="M135.067 216.301H139.352V195.263H135.067V216.301Z" fill="#EBEBEB"/>
<path d="M130.783 216.294H135.067V196.733H130.783V216.294Z" fill="#F5F5F5"/>
<path d="M121.585 216.294H125.87V196.733H121.585V216.294Z" fill="#E6E6E6"/>
<path d="M125.87 216.301H128.637V195.263H125.87V216.301Z" fill="#FAFAFA"/>
<path d="M117.238 216.301H120.005V195.263H117.238V216.301Z" fill="#FAFAFA"/>
<path d="M128.637 216.294H130.783V196.733H128.637V216.294Z" fill="#EBEBEB"/>
<path d="M119.439 216.294H121.585V195.753H119.439V216.294Z" fill="#EBEBEB"/>
<path d="M167.711 158.438H114.009V222.435H165.959V226.23H169.464V158.438H167.711ZM165.959 216.301H117.3V191.627H165.945L165.959 216.301ZM165.959 188.122H117.3V164.579H165.945L165.959 188.122Z" fill="#F0F0F0"/>
<path d="M62.3345 128.699H161.094V26.6478L62.3345 26.6478L62.3345 128.699Z" fill="#EBEBEB"/>
<path d="M58.8845 128.699H157.644V26.6478L58.8845 26.6478L58.8845 128.699Z" fill="#F0F0F0"/>
<path d="M155.153 29.0697H61.4997V126.325H155.153V29.0697Z" fill="#E0E0E0"/>
<path d="M155.153 29.0697H63.8388V126.325H155.153V29.0697Z" fill="#F5F5F5"/>
<path d="M108.544 126.325H110.4L110.4 29.0697H108.544L108.544 126.325Z" fill="#EBEBEB"/>
<path d="M97.911 29.0697L71.8842 126.325H69.3864L95.4132 29.0697H97.911Z" fill="white"/>
<path d="M107.757 128.188H109.344L109.344 27.5655H107.757L107.757 128.188Z" fill="#F0F0F0"/>
<path d="M88.4649 29.0697L63.8388 121.109V70.518L74.9271 29.0697H88.4649Z" fill="white"/>
<path d="M155.153 37.8948V47.2305L133.984 126.325H131.486L155.153 37.8948Z" fill="white"/>
<path d="M155.153 56.7456V107.336L150.075 126.325H136.537L155.153 56.7456Z" fill="white"/>
<path d="M267.973 29.8746C269.747 22.3568 265.091 14.8239 257.573 13.0495C250.055 11.2752 242.523 15.9312 240.748 23.4491C238.974 30.9669 243.63 38.4998 251.148 40.2741C258.665 42.0485 266.198 37.3925 267.973 29.8746Z" fill="#E0E0E0"/>
<path d="M265.938 29.3944C267.447 23.0003 263.487 16.5935 257.093 15.0844C250.699 13.5752 244.292 17.5353 242.783 23.9293C241.274 30.3234 245.234 36.7302 251.628 38.2394C258.022 39.7485 264.429 35.7885 265.938 29.3944Z" fill="#F0F0F0"/>
<path d="M254.927 34.8312V26.5167L260.44 29.6286" fill="#F0F0F0"/>
<path d="M254.927 34.8312V26.5167L260.44 29.6286" stroke="#E0E0E0" stroke-width="0.492464" stroke-linecap="round" stroke-linejoin="round"/>
<path d="M172.5 257.066C246.387 257.066 306.284 253.569 306.284 249.256C306.284 244.942 246.387 241.445 172.5 241.445C98.6131 241.445 38.7159 244.942 38.7159 249.256C38.7159 253.569 98.6131 257.066 172.5 257.066Z" fill="#F5F5F5"/>
<path d="M288.289 53.8683H115.775V182.712H288.289V53.8683Z" fill="#407BFF"/>
<path opacity="0.8" d="M288.289 53.8683H115.775V182.712H288.289V53.8683Z" fill="white"/>
<path d="M281.554 49.8594H109.406V58.5948H281.554V49.8594Z" fill="#407BFF"/>
<path d="M135.792 54.7722H107.405C107.238 54.7731 107.072 54.7409 106.917 54.6775C106.763 54.6141 106.622 54.5207 106.503 54.4028C106.385 54.2848 106.29 54.1445 106.226 53.99C106.162 53.8355 106.129 53.6699 106.129 53.5026C106.129 53.164 106.263 52.8393 106.503 52.6C106.742 52.3606 107.067 52.2261 107.405 52.2261H135.792C136.131 52.2261 136.455 52.3606 136.695 52.6C136.934 52.8393 137.069 53.164 137.069 53.5026C137.069 53.6699 137.035 53.8355 136.971 53.99C136.907 54.1445 136.813 54.2848 136.694 54.4028C136.576 54.5207 136.435 54.6141 136.28 54.6775C136.125 54.7409 135.959 54.7731 135.792 54.7722Z" fill="#407BFF"/>
<path opacity="0.8" d="M135.792 54.7722H107.405C107.238 54.7731 107.072 54.7409 106.917 54.6775C106.763 54.6141 106.622 54.5207 106.503 54.4028C106.385 54.2848 106.29 54.1445 106.226 53.99C106.162 53.8355 106.129 53.6699 106.129 53.5026C106.129 53.164 106.263 52.8393 106.503 52.6C106.742 52.3606 107.067 52.2261 107.405 52.2261H135.792C136.131 52.2261 136.455 52.3606 136.695 52.6C136.934 52.8393 137.069 53.164 137.069 53.5026C137.069 53.6699 137.035 53.8355 136.971 53.99C136.907 54.1445 136.813 54.2848 136.694 54.4028C136.576 54.5207 136.435 54.6141 136.28 54.6775C136.125 54.7409 135.959 54.7731 135.792 54.7722Z" fill="white"/>
<path d="M259.081 51.3222C260.339 51.3222 261.358 50.3027 261.358 49.0452C261.358 47.7876 260.339 46.7682 259.081 46.7682C257.824 46.7682 256.804 47.7876 256.804 49.0452C256.804 50.3027 257.824 51.3222 259.081 51.3222Z" fill="#407BFF"/>
<path opacity="0.8" d="M259.081 51.3222C260.339 51.3222 261.358 50.3027 261.358 49.0452C261.358 47.7876 260.339 46.7682 259.081 46.7682C257.824 46.7682 256.804 47.7876 256.804 49.0452C256.804 50.3027 257.824 51.3222 259.081 51.3222Z" fill="white"/>
<path d="M266.726 51.3222C267.984 51.3222 269.003 50.3027 269.003 49.0452C269.003 47.7876 267.984 46.7682 266.726 46.7682C265.469 46.7682 264.449 47.7876 264.449 49.0452C264.449 50.3027 265.469 51.3222 266.726 51.3222Z" fill="#407BFF"/>
<path opacity="0.8" d="M266.726 51.3222C267.984 51.3222 269.003 50.3027 269.003 49.0452C269.003 47.7876 267.984 46.7682 266.726 46.7682C265.469 46.7682 264.449 47.7876 264.449 49.0452C264.449 50.3027 265.469 51.3222 266.726 51.3222Z" fill="white"/>
<path d="M274.372 51.3222C275.629 51.3222 276.649 50.3027 276.649 49.0452C276.649 47.7876 275.629 46.7682 274.372 46.7682C273.114 46.7682 272.095 47.7876 272.095 49.0452C272.095 50.3027 273.114 51.3222 274.372 51.3222Z" fill="#407BFF"/>
<path opacity="0.8" d="M274.372 51.3222C275.629 51.3222 276.649 50.3027 276.649 49.0452C276.649 47.7876 275.629 46.7682 274.372 46.7682C273.114 46.7682 272.095 47.7876 272.095 49.0452C272.095 50.3027 273.114 51.3222 274.372 51.3222Z" fill="white"/>
<path d="M267.844 109.248V71.5599H206.959V109.248H267.844Z" fill="#407BFF"/>
<path opacity="0.5" d="M267.844 109.248V71.5599H206.959V109.248H267.844Z" fill="white"/>
<path d="M267.154 101.002V72.2499H207.649V101.002H267.154Z" fill="white"/>
<path d="M235.739 106.971L239.651 105.122L235.739 103.286V106.971Z" fill="white"/>
<path d="M249.601 103.286V105.046L245.868 103.286V106.971L249.601 105.204V106.971H249.98V103.286H249.601Z" fill="white"/>
<path d="M225.202 103.286H224.823V106.971H225.202V105.204L228.942 106.971V103.286L225.202 105.046V103.286Z" fill="white"/>
<path d="M300.716 161.653V123.965H239.83V161.653H300.716Z" fill="#407BFF"/>
<path opacity="0.5" d="M300.716 161.653V123.965H239.83V161.653H300.716Z" fill="white"/>
<path d="M269.611 142.809L240.52 125.062V160.556L269.611 142.809Z" fill="white"/>
<path d="M299.363 124.655H241.183L270.273 142.402L299.363 124.655Z" fill="white"/>
<path d="M270.273 143.209L241.183 160.956H299.363L270.273 143.209Z" fill="white"/>
<path d="M270.935 142.809L300.026 160.556V125.062L270.935 142.809Z" fill="white"/>
<path d="M296.569 117.742H238.519C238.109 117.742 237.716 117.904 237.426 118.194C237.136 118.484 236.974 118.877 236.974 119.287C236.974 119.697 237.136 120.09 237.426 120.38C237.716 120.67 238.109 120.833 238.519 120.833H296.569C296.979 120.833 297.372 120.67 297.662 120.38C297.952 120.09 298.115 119.697 298.115 119.287C298.115 118.877 297.952 118.484 297.662 118.194C297.372 117.904 296.979 117.742 296.569 117.742Z" fill="#407BFF"/>
<path opacity="0.5" d="M296.569 117.742H238.519C238.109 117.742 237.716 117.904 237.426 118.194C237.136 118.484 236.974 118.877 236.974 119.287C236.974 119.697 237.136 120.09 237.426 120.38C237.716 120.67 238.109 120.833 238.519 120.833H296.569C296.979 120.833 297.372 120.67 297.662 120.38C297.952 120.09 298.115 119.697 298.115 119.287C298.115 118.877 297.952 118.484 297.662 118.194C297.372 117.904 296.979 117.742 296.569 117.742Z" fill="white"/>
<path d="M261.089 65.6949H203.033C202.179 65.6949 201.487 66.3869 201.487 67.2405C201.487 68.0941 202.179 68.7861 203.033 68.7861H261.089C261.943 68.7861 262.635 68.0941 262.635 67.2405C262.635 66.3869 261.943 65.6949 261.089 65.6949Z" fill="#407BFF"/>
<path opacity="0.5" d="M261.089 65.6949H203.033C202.179 65.6949 201.487 66.3869 201.487 67.2405C201.487 68.0941 202.179 68.7861 203.033 68.7861H261.089C261.943 68.7861 262.635 68.0941 262.635 67.2405C262.635 66.3869 261.943 65.6949 261.089 65.6949Z" fill="white"/>
<path d="M166.097 65.6949H108.04C107.187 65.6949 106.495 66.3869 106.495 67.2405C106.495 68.0941 107.187 68.7861 108.04 68.7861H166.097C166.95 68.7861 167.642 68.0941 167.642 67.2405C167.642 66.3869 166.95 65.6949 166.097 65.6949Z" fill="#407BFF"/>
<path opacity="0.5" d="M166.097 65.6949H108.04C107.187 65.6949 106.495 66.3869 106.495 67.2405C106.495 68.0941 107.187 68.7861 108.04 68.7861H166.097C166.95 68.7861 167.642 68.0941 167.642 67.2405C167.642 66.3869 166.95 65.6949 166.097 65.6949Z" fill="white"/>
<path d="M209.912 142.14H165.014C164.794 142.14 164.583 142.227 164.428 142.383C164.273 142.538 164.186 142.748 164.186 142.968C164.186 143.188 164.273 143.398 164.428 143.553C164.583 143.709 164.794 143.796 165.014 143.796H209.912C210.131 143.796 210.342 143.709 210.497 143.553C210.653 143.398 210.74 143.188 210.74 142.968C210.74 142.748 210.653 142.538 210.497 142.383C210.342 142.227 210.131 142.14 209.912 142.14Z" fill="#407BFF"/>
<path opacity="0.5" d="M209.912 142.14H165.014C164.794 142.14 164.583 142.227 164.428 142.383C164.273 142.538 164.186 142.748 164.186 142.968C164.186 143.188 164.273 143.398 164.428 143.553C164.583 143.709 164.794 143.796 165.014 143.796H209.912C210.131 143.796 210.342 143.709 210.497 143.553C210.653 143.398 210.74 143.188 210.74 142.968C210.74 142.748 210.653 142.538 210.497 142.383C210.342 142.227 210.131 142.14 209.912 142.14Z" fill="white"/>
<path d="M209.912 146.108H165.014C164.905 146.112 164.798 146.138 164.699 146.184C164.6 146.229 164.512 146.294 164.438 146.374C164.364 146.454 164.307 146.548 164.27 146.65C164.232 146.753 164.215 146.861 164.22 146.97C164.219 147.079 164.24 147.187 164.281 147.288C164.322 147.389 164.383 147.48 164.46 147.558C164.538 147.635 164.629 147.696 164.73 147.737C164.831 147.778 164.939 147.799 165.048 147.798H209.946C210.166 147.798 210.377 147.711 210.532 147.555C210.687 147.4 210.774 147.19 210.774 146.97C210.779 146.855 210.76 146.741 210.719 146.634C210.677 146.527 210.614 146.43 210.533 146.349C210.451 146.268 210.354 146.205 210.248 146.163C210.141 146.122 210.026 146.103 209.912 146.108Z" fill="#407BFF"/>
<path opacity="0.5" d="M209.912 146.108H165.014C164.905 146.112 164.798 146.138 164.699 146.184C164.6 146.229 164.512 146.294 164.438 146.374C164.364 146.454 164.307 146.548 164.27 146.65C164.232 146.753 164.215 146.861 164.22 146.97C164.219 147.079 164.24 147.187 164.281 147.288C164.322 147.389 164.383 147.48 164.46 147.558C164.538 147.635 164.629 147.696 164.73 147.737C164.831 147.778 164.939 147.799 165.048 147.798H209.946C210.166 147.798 210.377 147.711 210.532 147.555C210.687 147.4 210.774 147.19 210.774 146.97C210.779 146.855 210.76 146.741 210.719 146.634C210.677 146.527 210.614 146.43 210.533 146.349C210.451 146.268 210.354 146.205 210.248 146.163C210.141 146.122 210.026 146.103 209.912 146.108Z" fill="white"/>
<path d="M209.912 150.109H165.014C164.904 150.109 164.796 150.131 164.695 150.173C164.594 150.215 164.503 150.277 164.426 150.354C164.349 150.432 164.288 150.524 164.247 150.625C164.205 150.727 164.185 150.835 164.186 150.944C164.186 151.164 164.273 151.375 164.428 151.53C164.583 151.685 164.794 151.772 165.014 151.772H209.912C210.131 151.772 210.342 151.685 210.497 151.53C210.653 151.375 210.74 151.164 210.74 150.944C210.74 150.724 210.653 150.513 210.498 150.356C210.343 150.2 210.132 150.111 209.912 150.109Z" fill="#407BFF"/>
<path opacity="0.5" d="M209.912 150.109H165.014C164.904 150.109 164.796 150.131 164.695 150.173C164.594 150.215 164.503 150.277 164.426 150.354C164.349 150.432 164.288 150.524 164.247 150.625C164.205 150.727 164.185 150.835 164.186 150.944C164.186 151.164 164.273 151.375 164.428 151.53C164.583 151.685 164.794 151.772 165.014 151.772H209.912C210.131 151.772 210.342 151.685 210.497 151.53C210.653 151.375 210.74 151.164 210.74 150.944C210.74 150.724 210.653 150.513 210.498 150.356C210.343 150.2 210.132 150.111 209.912 150.109Z" fill="white"/>
<path d="M209.912 154.118H165.014C164.905 154.117 164.796 154.138 164.696 154.18C164.595 154.221 164.503 154.282 164.426 154.359C164.349 154.436 164.288 154.528 164.247 154.628C164.205 154.729 164.185 154.837 164.186 154.946C164.186 155.166 164.273 155.377 164.428 155.532C164.583 155.687 164.794 155.774 165.014 155.774H209.912C210.131 155.774 210.342 155.687 210.497 155.532C210.653 155.377 210.74 155.166 210.74 154.946C210.74 154.727 210.653 154.516 210.497 154.361C210.342 154.206 210.131 154.118 209.912 154.118Z" fill="#407BFF"/>
<path opacity="0.5" d="M209.912 154.118H165.014C164.905 154.117 164.796 154.138 164.696 154.18C164.595 154.221 164.503 154.282 164.426 154.359C164.349 154.436 164.288 154.528 164.247 154.628C164.205 154.729 164.185 154.837 164.186 154.946C164.186 155.166 164.273 155.377 164.428 155.532C164.583 155.687 164.794 155.774 165.014 155.774H209.912C210.131 155.774 210.342 155.687 210.497 155.532C210.653 155.377 210.74 155.166 210.74 154.946C210.74 154.727 210.653 154.516 210.497 154.361C210.342 154.206 210.131 154.118 209.912 154.118Z" fill="white"/>
<path d="M209.912 158.12H165.014C164.794 158.12 164.583 158.208 164.428 158.363C164.273 158.518 164.186 158.729 164.186 158.948C164.186 159.168 164.273 159.379 164.428 159.534C164.583 159.689 164.794 159.776 165.014 159.776H209.912C210.131 159.776 210.342 159.689 210.497 159.534C210.653 159.379 210.74 159.168 210.74 158.948C210.74 158.729 210.653 158.518 210.497 158.363C210.342 158.208 210.131 158.12 209.912 158.12Z" fill="#407BFF"/>
<path opacity="0.5" d="M209.912 158.12H165.014C164.794 158.12 164.583 158.208 164.428 158.363C164.273 158.518 164.186 158.729 164.186 158.948C164.186 159.168 164.273 159.379 164.428 159.534C164.583 159.689 164.794 159.776 165.014 159.776H209.912C210.131 159.776 210.342 159.689 210.497 159.534C210.653 159.379 210.74 159.168 210.74 158.948C210.74 158.729 210.653 158.518 210.497 158.363C210.342 158.208 210.131 158.12 209.912 158.12Z" fill="white"/>
<path d="M209.912 162.15H165.014C164.794 162.15 164.583 162.237 164.428 162.392C164.273 162.548 164.186 162.758 164.186 162.978C164.185 163.087 164.205 163.195 164.247 163.296C164.288 163.397 164.349 163.488 164.426 163.566C164.503 163.643 164.595 163.704 164.696 163.745C164.796 163.786 164.905 163.807 165.014 163.806H209.912C210.131 163.806 210.342 163.719 210.497 163.563C210.653 163.408 210.74 163.198 210.74 162.978C210.74 162.758 210.653 162.548 210.497 162.392C210.342 162.237 210.131 162.15 209.912 162.15Z" fill="#407BFF"/>
<path opacity="0.5" d="M209.912 162.15H165.014C164.794 162.15 164.583 162.237 164.428 162.392C164.273 162.548 164.186 162.758 164.186 162.978C164.185 163.087 164.205 163.195 164.247 163.296C164.288 163.397 164.349 163.488 164.426 163.566C164.503 163.643 164.595 163.704 164.696 163.745C164.796 163.786 164.905 163.807 165.014 163.806H209.912C210.131 163.806 210.342 163.719 210.497 163.563C210.653 163.408 210.74 163.198 210.74 162.978C210.74 162.758 210.653 162.548 210.497 162.392C210.342 162.237 210.131 162.15 209.912 162.15Z" fill="white"/>
<path d="M196.112 166.124H165.014C164.795 166.133 164.589 166.228 164.44 166.389C164.292 166.549 164.213 166.762 164.22 166.98C164.219 167.089 164.24 167.197 164.281 167.298C164.322 167.399 164.383 167.49 164.46 167.568C164.538 167.645 164.629 167.706 164.73 167.747C164.831 167.788 164.939 167.809 165.048 167.808H196.146C196.366 167.808 196.577 167.721 196.732 167.565C196.887 167.41 196.974 167.2 196.974 166.98C196.978 166.866 196.959 166.752 196.916 166.646C196.874 166.54 196.811 166.444 196.73 166.364C196.649 166.283 196.552 166.221 196.446 166.18C196.34 166.138 196.226 166.12 196.112 166.124Z" fill="#407BFF"/>
<path opacity="0.5" d="M196.112 166.124H165.014C164.795 166.133 164.589 166.228 164.44 166.389C164.292 166.549 164.213 166.762 164.22 166.98C164.219 167.089 164.24 167.197 164.281 167.298C164.322 167.399 164.383 167.49 164.46 167.568C164.538 167.645 164.629 167.706 164.73 167.747C164.831 167.788 164.939 167.809 165.048 167.808H196.146C196.366 167.808 196.577 167.721 196.732 167.565C196.887 167.41 196.974 167.2 196.974 166.98C196.978 166.866 196.959 166.752 196.916 166.646C196.874 166.54 196.811 166.444 196.73 166.364C196.649 166.283 196.552 166.221 196.446 166.18C196.34 166.138 196.226 166.12 196.112 166.124Z" fill="white"/>
<path d="M194.628 131.404V74.4855H133.743V131.404H194.628Z" fill="#407BFF"/>
<path opacity="0.5" d="M194.628 131.404V74.4855H133.743V131.404H194.628Z" fill="white"/>
<path d="M193.938 130.714V75.1755H134.433V130.714H193.938Z" fill="white"/>
<path d="M195.215 73.8921H194.035V75.072H195.215V73.8921Z" fill="#407BFF"/>
<path d="M195.215 130.817H194.035V131.997H195.215V130.817Z" fill="#407BFF"/>
<path d="M134.329 73.8714H133.149V75.0513H134.329V73.8714Z" fill="#407BFF"/>
<path d="M134.329 130.817H133.149V131.997H134.329V130.817Z" fill="#407BFF"/>
<path d="M68.6895 95.0751H46.1679V72.5466H68.6895V95.0751ZM46.8579 94.3851H67.9995V73.2366H46.8579V94.3851Z" fill="#407BFF"/>
<g opacity="0.5">
<path opacity="0.5" d="M68.6895 95.0751H46.1679V72.5466H68.6895V95.0751ZM46.8579 94.3851H67.9995V73.2366H46.8579V94.3851Z" fill="white"/>
</g>
<path d="M56.9388 80.5782H53.3025V79.2603H62.1V80.5782H58.443V89.8656H56.9388V80.5782Z" fill="#407BFF"/>
<path d="M69.0345 72.2085H67.6683V73.5747H69.0345V72.2085Z" fill="#407BFF"/>
<path d="M69.0345 94.047H67.6683V95.4132H69.0345V94.047Z" fill="#407BFF"/>
<path d="M47.196 94.047H45.8298V95.4132H47.196V94.047Z" fill="#407BFF"/>
<path d="M47.196 72.2085H45.8298V73.5747H47.196V72.2085Z" fill="#407BFF"/>
<path d="M211.644 210.988H189.115V188.46H211.644V210.988ZM189.805 210.298H210.954V189.15H189.805V210.298Z" fill="#407BFF"/>
<g opacity="0.5">
<path opacity="0.5" d="M211.644 210.988H189.115V188.46H211.644V210.988ZM189.805 210.298H210.954V189.15H189.805V210.298Z" fill="white"/>
</g>
<path d="M211.982 188.122H210.616V189.488H211.982V188.122Z" fill="#407BFF"/>
<path d="M211.982 209.96H210.616V211.326H211.982V209.96Z" fill="#407BFF"/>
<path d="M190.143 209.96H188.777V211.326H190.143V209.96Z" fill="#407BFF"/>
<path d="M190.143 188.122H188.777V189.488H190.143V188.122Z" fill="#407BFF"/>
<path d="M190.44 202.867L194.939 198.361L198.81 202.232L205.358 195.677L210.319 200.638V209.691H190.44V202.867Z" fill="#407BFF"/>
<path d="M198.354 193.538C198.354 193.853 198.261 194.162 198.086 194.424C197.91 194.686 197.662 194.89 197.37 195.011C197.079 195.131 196.759 195.163 196.449 195.101C196.14 195.04 195.856 194.888 195.633 194.665C195.41 194.442 195.259 194.158 195.197 193.849C195.136 193.54 195.167 193.219 195.288 192.928C195.408 192.637 195.613 192.388 195.875 192.213C196.137 192.038 196.445 191.944 196.76 191.944C197.183 191.946 197.587 192.115 197.885 192.413C198.184 192.712 198.352 193.116 198.354 193.538Z" fill="#407BFF"/>
<path d="M77.4456 93.4743C77.4456 93.4743 67.7442 105.467 66.6678 108.544C65.5914 111.621 69.2622 133.018 69.2622 133.018C69.2622 133.018 66.8541 138.104 68.3859 139.27C69.9177 140.436 72.5259 142.72 73.2159 141.271C73.9059 139.822 74.2923 134.66 74.2923 134.66L73.209 133.377C73.209 133.377 72.2154 111.483 72.3327 110.745C72.45 110.007 82.5999 98.8563 82.5999 98.8563L77.4456 93.4743Z" fill="#9F5B53"/>
<path d="M78.0735 89.9829L70.0626 101.12L75.7758 107.385L84.249 104.121L78.0735 89.9829Z" fill="#407BFF"/>
<path opacity="0.7" d="M84.249 104.121L82.5792 104.763L77.6457 106.66L75.7758 107.385L70.0626 101.12L78.0735 89.9829L84.249 104.121Z" fill="white"/>
<path opacity="0.2" d="M82.5792 104.763L77.6457 106.66C77.6557 104.012 78.4321 101.424 79.8813 99.2082L82.5792 104.763Z" fill="black"/>
<path d="M70.1868 99.7533L76.8798 107.398L75.3756 108.558L69.0276 101.257L70.1868 99.7533Z" fill="#407BFF"/>
<path opacity="0.6" d="M70.1868 99.7533L76.8798 107.398L75.3756 108.558L69.0276 101.257L70.1868 99.7533Z" fill="white"/>
<path d="M96.4689 71.07C96.5133 71.0737 96.5578 71.0654 96.5979 71.046C96.638 71.0265 96.6721 70.9967 96.6966 70.9596C96.8596 70.7036 97.0795 70.4888 97.3393 70.332C97.599 70.1752 97.8915 70.0806 98.1939 70.0557C98.258 70.0557 98.3194 70.0302 98.3647 69.985C98.41 69.9397 98.4354 69.8782 98.4354 69.8142C98.4354 69.7501 98.41 69.6887 98.3647 69.6434C98.3194 69.5981 98.258 69.5727 98.1939 69.5727C97.8115 69.5947 97.4399 69.7076 97.1099 69.902C96.7799 70.0964 96.501 70.3667 96.2964 70.6905C96.2605 70.7432 96.2461 70.8076 96.2564 70.8706C96.2667 70.9335 96.3008 70.9901 96.3516 71.0286C96.388 71.0491 96.4277 71.0631 96.4689 71.07Z" fill="#263238"/>
<path d="M97.9386 73.2297C97.9869 73.6368 98.2905 73.9197 98.5596 73.8714C98.8287 73.8231 98.9736 73.4505 98.8977 73.0434C98.8218 72.6363 98.5389 72.3534 98.2767 72.4086C98.0145 72.4638 97.8627 72.8226 97.9386 73.2297Z" fill="#263238"/>
<path d="M97.8075 74.2026C98.3863 75.4243 99.1317 76.5598 100.022 77.5767C99.7548 77.7983 99.442 77.9587 99.1059 78.0469C98.7699 78.1351 98.4186 78.1489 98.0766 78.0873L97.8075 74.2026Z" fill="#A24E3F"/>
<path d="M98.118 79.5777C98.0582 79.8111 97.9868 80.0414 97.9041 80.2677C97.4277 81.6094 96.5541 82.7743 95.3994 83.6073C95.1075 83.8178 94.8008 84.0069 94.4817 84.1731C93.2583 84.8282 91.854 85.0648 90.4835 84.8468C89.1129 84.6287 87.8514 83.968 86.8917 82.9656C84.3525 80.4057 84.4215 77.4456 84.1317 72.4362C84.0469 71.3616 84.222 70.2824 84.6423 69.2898C84.9876 68.4572 85.4936 67.7008 86.1313 67.0639C86.7691 66.427 87.5262 65.922 88.3593 65.5779C89.1924 65.2338 90.0851 65.0572 90.9864 65.0584C91.8878 65.0595 92.7801 65.2383 93.6123 65.5845C98.532 67.62 99.2082 75.072 98.118 79.5777Z" fill="#9F5B53"/>
<path opacity="0.2" d="M95.3994 83.6349C95.1075 83.8454 94.8008 84.0345 94.4817 84.2007C93.6388 84.6529 92.7049 84.9094 91.7493 84.9512C90.7936 84.993 89.8409 84.8191 88.9617 84.4422C89.1855 83.8411 89.4846 83.2707 89.8518 82.7448C91.7482 82.4992 93.6751 82.8084 95.3994 83.6349Z" fill="black"/>
<path d="M85.3185 90.1347C87.7818 92.3703 93.8262 91.5147 93.8262 91.5147C93.8262 91.5147 97.6005 90.4866 96.807 89.3067C94.5852 88.941 93.5088 87.9267 93.0672 86.5467C92.8255 85.7234 92.7481 84.8606 92.8395 84.0075C92.8778 83.5332 92.94 83.0611 93.0258 82.593L85.5531 77.073C86.5329 80.7645 87.7335 87.4851 85.3185 90.1347Z" fill="#9F5B53"/>
<path d="M92.1978 63.48C92.1978 63.48 93.5226 62.6727 95.7789 64.8048C97.6833 66.5988 95.7789 68.0409 96.9174 70.3248C98.0559 72.6087 96.5172 74.8995 96.5172 74.8995C96.5172 74.8995 95.4201 77.2662 93.5088 77.1213C93.5088 77.1213 91.9494 79.005 92.1978 80.9646C92.4462 82.9242 89.6379 84.4629 85.8153 84.4146C81.9927 84.3663 83.5245 81.9789 83.5245 81.9789C82.4175 80.7018 81.5228 79.255 80.8749 77.694C80.0977 75.7979 79.7263 73.76 79.7847 71.7117C79.7506 70.6475 79.9282 69.5871 80.3072 68.5922C80.6862 67.5972 81.2592 66.6874 81.9927 65.9157C84.5457 63.0315 90.6246 61.5894 92.1978 63.48Z" fill="#263238"/>
<path d="M92.5497 76.0242C92.6441 76.4958 92.8432 76.9403 93.1322 77.3248C93.4211 77.7093 93.7927 78.0241 94.2195 78.246C95.2338 78.6807 95.91 77.2455 95.7582 75.7344C95.6202 74.4027 94.9302 72.5259 93.84 72.7743C92.7498 73.0227 92.1978 74.6787 92.5497 76.0242Z" fill="#9F5B53"/>
<path d="M80.3712 73.4229C80.3712 73.4229 80.2125 70.9389 80.7507 70.6146C81.2889 70.2903 83.8626 69.7797 84.2904 70.1661C84.7182 70.5525 85.2633 72.8571 85.2633 72.8571C85.2633 72.8571 82.3998 73.83 80.3712 73.4229Z" fill="#263238"/>
<path d="M93.3915 60.03C98.2215 59.3745 97.7592 63.2109 94.1229 68.9448C91.5768 72.9468 81.627 83.7936 77.832 78.6807C75.7413 75.8241 83.2899 61.3548 93.3915 60.03Z" fill="#407BFF"/>
<path opacity="0.2" d="M93.3915 60.03C98.2215 59.3745 97.7592 63.2109 94.1229 68.9448C91.5768 72.9468 81.627 83.7936 77.832 78.6807C75.7413 75.8241 83.2899 61.3548 93.3915 60.03Z" fill="white"/>
<path d="M88.9341 70.0902C85.9326 73.9128 79.833 75.003 79.833 75.003L76.6521 68.4549C78.2874 63.0867 84.0213 60.5406 84.0213 60.5406L90.666 62.79C90.666 62.79 91.9356 66.24 88.9341 70.0902Z" fill="#407BFF"/>
<path opacity="0.2" d="M81.9927 65.9019C79.2327 68.6619 78.3771 69.9108 76.6521 68.4549C78.2874 63.0867 84.0213 60.5406 84.0213 60.5406C84.9459 60.9546 84.7872 63.1695 81.9927 65.9019Z" fill="white"/>
<path d="M84.7251 89.0099L85.5462 85.8704C85.5462 85.8704 92.0943 84.7802 96.1239 86.4224L96.8139 89.3066L84.7251 89.0099Z" fill="#407BFF"/>
<path opacity="0.6" d="M84.7251 89.0099L85.5462 85.8704C85.5462 85.8704 92.0943 84.7802 96.1239 86.4224L96.8139 89.3066L84.7251 89.0099Z" fill="white"/>
<path d="M104.576 244.412L109.8 244.964L110.069 241.935L110.78 233.696L105.556 233.137L104.763 242.245L104.576 244.412Z" fill="#9F5B53"/>
<path d="M78.5013 243.749H83.5659L83.6073 242.604L83.6142 242.459L83.8764 235.118L83.8833 234.973L83.9868 232.157H78.9153L78.5013 243.749Z" fill="#9F5B53"/>
<path opacity="0.2" d="M105.556 233.137L104.763 242.245L110.069 241.935L110.78 233.696L105.556 233.137Z" fill="black"/>
<path opacity="0.2" d="M78.5358 243.108H78.5427L83.6073 242.459H83.6142L83.8833 235.38H83.8764L78.798 235.78L78.5427 242.887L78.5358 243.108Z" fill="black"/>
<path d="M84.2697 243.446H78.1149C78.0143 243.446 77.9167 243.48 77.8378 243.543C77.759 243.606 77.7035 243.693 77.6802 243.791L76.6866 248.303C76.6457 248.496 76.683 248.698 76.7904 248.863C76.8977 249.029 77.0664 249.145 77.2593 249.187C77.3143 249.193 77.3699 249.193 77.4249 249.187C79.419 249.152 80.8749 249.028 83.3658 249.028C84.9045 249.028 89.5758 249.193 91.6458 249.193C93.7158 249.193 94.047 247.089 93.1776 246.896C89.2791 246.047 86.3397 244.867 85.0908 243.749C84.864 243.55 84.5715 243.442 84.2697 243.446Z" fill="#263238"/>
<path d="M110.359 243.287H104.19C104.09 243.287 103.993 243.321 103.915 243.383C103.837 243.446 103.783 243.534 103.762 243.632L102.81 248.145C102.769 248.338 102.806 248.539 102.914 248.705C103.021 248.87 103.19 248.987 103.383 249.028C103.438 249.035 103.493 249.035 103.548 249.028C105.542 249.028 106.998 248.876 109.489 248.876C111.028 248.876 115.699 249.035 117.769 249.035C119.839 249.035 120.177 246.965 119.308 246.744C115.403 245.895 112.463 244.715 111.214 243.591C110.977 243.386 110.672 243.277 110.359 243.287Z" fill="#263238"/>
<path d="M111.263 241.127H103.831C103.831 241.127 104.438 172.369 96.4068 149.15C95.841 156.83 95.1993 164.793 94.5783 171.431C94.185 175.536 93.7986 179.062 93.4329 181.781C91.0938 199.1 85.1943 241.811 85.1943 241.811H77.8527C77.8527 241.811 78.7221 200.845 79.5915 183.851C80.5506 165.372 80.9715 124.766 81.006 121.302H107.882C110.435 135.833 116.996 194.021 111.263 241.127Z" fill="#407BFF"/>
<path opacity="0.2" d="M96.4068 149.123C95.841 156.796 95.1993 164.779 94.5783 171.41C93.6606 161.833 92.5428 155.002 92.5428 155.002C92.5428 155.002 91.494 154.077 88.6029 149.123C85.7118 144.169 88.6029 134.923 88.6029 134.923C88.5132 143.52 96.4068 149.123 96.4068 149.123Z" fill="black"/>
<path d="M112.097 239.078L111.732 241.176H102.955V239.244L112.097 239.078Z" fill="#407BFF"/>
<path d="M86.0361 239.885L85.1943 241.817H77.832L77.349 239.885H86.0361Z" fill="#407BFF"/>
<path d="M81.9858 121.833C81.8057 121.836 81.6268 121.802 81.4603 121.734C81.2938 121.665 81.1431 121.563 81.0177 121.433C80.8922 121.304 80.7946 121.15 80.7309 120.982C80.6672 120.813 80.6387 120.633 80.6472 120.453C80.7507 118.618 80.6472 114.409 79.8399 104.832C79.4397 100.264 78.867 95.289 78.0735 89.9967C78.0735 89.9967 92.7774 86.1396 102.969 89.3619C102.969 89.3619 107.619 109.255 108.178 120.06C108.187 120.236 108.159 120.413 108.098 120.579C108.037 120.744 107.943 120.896 107.822 121.025C107.701 121.154 107.555 121.257 107.394 121.328C107.232 121.399 107.058 121.437 106.881 121.44L81.9858 121.833Z" fill="#407BFF"/>
<path opacity="0.7" d="M81.9858 121.833C81.8057 121.836 81.6268 121.802 81.4603 121.734C81.2938 121.665 81.1431 121.563 81.0177 121.433C80.8922 121.304 80.7946 121.15 80.7309 120.982C80.6672 120.813 80.6387 120.633 80.6472 120.453C80.7507 118.618 80.6472 114.409 79.8399 104.832C79.4397 100.264 78.867 95.289 78.0735 89.9967C78.0735 89.9967 92.7774 86.1396 102.969 89.3619C102.969 89.3619 107.619 109.255 108.178 120.06C108.187 120.236 108.159 120.413 108.098 120.579C108.037 120.744 107.943 120.896 107.822 121.025C107.701 121.154 107.555 121.257 107.394 121.328C107.232 121.399 107.058 121.437 106.881 121.44L81.9858 121.833Z" fill="white"/>
<path d="M90.7971 122.275L88.8858 95.979L79.7433 89.5206L81.0198 89.0652L89.8449 94.8888L98.0766 88.1544L99.5325 88.2924L90.8868 96.0687L92.8464 122.413L90.7971 122.275Z" fill="#263238"/>
<path d="M88.7271 95.8617L89.6793 94.6266C89.6948 94.609 89.714 94.5949 89.7354 94.5852C89.7568 94.5756 89.78 94.5706 89.8035 94.5706C89.827 94.5706 89.8502 94.5756 89.8716 94.5852C89.8931 94.5949 89.9122 94.609 89.9277 94.6266L90.9834 95.8548C91.0031 95.8777 91.0158 95.9056 91.0202 95.9354C91.0245 95.9652 91.0203 95.9957 91.008 96.0232C90.9957 96.0507 90.9758 96.0741 90.9507 96.0907C90.9256 96.1073 90.8962 96.1165 90.8661 96.117H88.8513C88.8218 96.1167 88.793 96.1082 88.7681 96.0924C88.7432 96.0767 88.7232 96.0543 88.7103 96.0278C88.6974 96.0012 88.6921 95.9717 88.6951 95.9424C88.6981 95.913 88.7092 95.8851 88.7271 95.8617Z" fill="white"/>
<path opacity="0.2" d="M105.087 104.356C103.017 102.486 101.934 95.496 101.837 95.22L103.873 95.8272C104.225 98.0421 104.632 100.816 105.039 103.99L105.087 104.356Z" fill="black"/>
<path d="M104.3 97.2486C104.3 97.2486 115.437 97.29 119.004 96.2205C122.572 95.151 129.823 78.4806 129.823 78.4806L135.212 75.8517C135.212 75.8517 133.998 71.7117 132.383 71.5599C130.769 71.4081 127.436 75.5412 127.084 76.4451C126.732 77.349 117.424 89.4033 116.927 90.0519C116.431 90.7005 102.969 89.3619 102.969 89.3619L104.3 97.2486Z" fill="#9F5B53"/>
<path d="M102.969 89.3481C102.186 91.3561 101.852 93.5108 101.989 95.6616C102.265 99.0702 104.859 101.803 104.859 101.803L115.506 99.2082L115.706 90.0657L102.969 89.3481Z" fill="#407BFF"/>
<path opacity="0.7" d="M102.969 89.3481C102.186 91.3561 101.852 93.5108 101.989 95.6616C102.265 99.0702 104.859 101.803 104.859 101.803L115.506 99.2082L115.706 90.0657L102.969 89.3481Z" fill="white"/>
<path d="M114.754 89.5896L114.278 99.9603L115.955 99.6153L116.12 89.5896H114.754Z" fill="#407BFF"/>
<path opacity="0.6" d="M114.754 89.5896L114.278 99.9603L115.955 99.6153L116.12 89.5896H114.754Z" fill="white"/>
<path d="M98.7804 124.531L107.999 124.517L107.516 122.24L98.7804 122.261V124.531Z" fill="#263238"/>
<path d="M85.8843 122.282L81.0405 122.289L80.9715 124.566L85.8843 124.552V122.282Z" fill="#263238"/>
<path d="M86.8434 122.282V124.552L97.6212 124.538V122.261L86.8434 122.282Z" fill="#263238"/>
<path opacity="0.2" d="M112.097 239.078L111.732 241.176H102.955V239.244L112.097 239.078Z" fill="black"/>
<path opacity="0.2" d="M86.0361 239.885L85.1943 241.817H77.832L77.349 239.885H86.0361Z" fill="black"/>
</svg>
