<svg width="31" height="29" viewBox="0 0 31 29" fill="none" xmlns="http://www.w3.org/2000/svg">
<path d="M29.9167 8.40631C29.8999 7.21045 29.6636 6.02648 29.2183 4.90736C28.8323 3.96339 28.2426 3.1061 27.487 2.39026C26.7313 1.67441 25.8264 1.11576 24.83 0.749999C23.6639 0.3353 22.432 0.111065 21.1867 0.0868421C19.5833 0.0189475 19.075 0 15.005 0C10.935 0 10.4133 1.05877e-07 8.82167 0.0868421C7.57693 0.111243 6.34558 0.335476 5.18 0.749999C4.18343 1.11551 3.27837 1.67407 2.52272 2.38994C1.76707 3.10582 1.17748 3.96325 0.791667 4.90736C0.353052 6.01126 0.116872 7.17806 0.0933333 8.35736C0.0216667 9.87788 0 10.3595 0 14.2152C0 18.071 -1.24176e-08 18.5637 0.0933333 20.0731C0.118333 21.2542 0.353333 22.4195 0.791667 23.5263C1.17813 24.4701 1.76816 25.3272 2.52406 26.0428C3.27996 26.7583 4.18511 27.3167 5.18167 27.6821C6.34406 28.1134 7.57562 28.3537 8.82334 28.3926C10.4283 28.4605 10.9367 28.481 15.0067 28.481C19.0767 28.481 19.5983 28.481 21.19 28.3926C22.4353 28.3694 23.6673 28.1457 24.8333 27.731C25.8295 27.3648 26.7342 26.806 27.4897 26.0902C28.2453 25.3745 28.8351 24.5174 29.2217 23.5737C29.66 22.4684 29.895 21.3031 29.92 20.1205C29.9917 18.6016 30.0133 18.12 30.0133 14.2626C30.01 10.4068 30.01 9.91736 29.9167 8.40631ZM14.995 21.5068C10.7383 21.5068 7.29 18.24 7.29 14.2074C7.29 10.1747 10.7383 6.90789 14.995 6.90789C17.0385 6.90789 18.9983 7.67694 20.4433 9.04585C21.8882 10.4148 22.7 12.2714 22.7 14.2074C22.7 16.1433 21.8882 17.9999 20.4433 19.3689C18.9983 20.7378 17.0385 21.5068 14.995 21.5068ZM23.0067 8.33999C22.7707 8.3402 22.5369 8.29632 22.3189 8.21085C22.1008 8.12538 21.9026 8.00002 21.7357 7.84192C21.5689 7.68382 21.4365 7.4961 21.3463 7.2895C21.2561 7.0829 21.2098 6.86147 21.21 6.63789C21.21 6.41447 21.2565 6.19324 21.3467 5.98682C21.437 5.78041 21.5692 5.59286 21.736 5.43488C21.9028 5.2769 22.1007 5.15158 22.3186 5.06608C22.5365 4.98058 22.77 4.93657 23.0058 4.93657C23.2417 4.93657 23.4752 4.98058 23.6931 5.06608C23.911 5.15158 24.1089 5.2769 24.2757 5.43488C24.4424 5.59286 24.5747 5.78041 24.665 5.98682C24.7552 6.19324 24.8017 6.41447 24.8017 6.63789C24.8017 7.57894 23.9983 8.33999 23.0067 8.33999Z" fill="white"/>
</svg>
