<svg xmlns="http://www.w3.org/2000/svg" xmlns:xlink="http://www.w3.org/1999/xlink" width="1599.825" height="1000.869" viewBox="0 0 1599.825 1000.869">
  <defs>
    <linearGradient id="linear-gradient" x1="1" y1="0.427" x2="0.049" y2="0.432" gradientUnits="objectBoundingBox">
      <stop offset="0" stop-color="#09f" stop-opacity="0.212"/>
      <stop offset="0.536" stop-color="#6e4cff" stop-opacity="0.369"/>
      <stop offset="1" stop-color="#db00ff" stop-opacity="0.49"/>
    </linearGradient>
  </defs>
  <g id="Main-Background" transform="translate(0.158 0.961)">
    <path id="Vector" d="M1582.662,565.362l-81.055,70.153c-66.46,49.615-185.305,187.01-318.768,141.454s-297.246-132.5-430.451-108.948-233.312,77.84-366.151,196.814S120.106,984.321,53.46,984.577l-66.646.257L-17-15.855h66.4c66.647-.256,199.47.512,332.763,0s267.429.512,400.722,0,265.868.512,399.16,0,267.681.256,334.325,0l66.148.781Z" transform="translate(17.005 15.074)" fill="rgba(0,153,255,0.55)" fill-rule="evenodd"/>
    <path id="Vector_2_" data-name="Vector (2)" d="M1578.838,443.952l-81.065,57.2c-66.46,40.456-185.318,152.459-318.725,115.4S881.961,508.708,748.789,527.951,515.518,591.476,382.67,688.474,246.228,795.8,33.223,824.676H-20.043L-20.2-28.083h66.4c66.624-.237,201.857.474,335.106,0s263.566-.307,396.816-.781,268.094,1.255,401.347.781,264.726.237,331.349,0L1578.957-29Z" transform="translate(20.043 29)" fill-rule="evenodd" fill="url(#linear-gradient)"/>
  </g>
</svg>
